%TF.GenerationSoftware,KiCad,Pcbnew,9.0.0*%
%TF.CreationDate,2025-05-04T18:28:28+01:00*%
%TF.ProjectId,specter,73706563-7465-4722-9e6b-696361645f70,rev?*%
%TF.SameCoordinates,Original*%
%TF.FileFunction,Soldermask,Bot*%
%TF.FilePolarity,Negative*%
%FSLAX46Y46*%
G04 Gerber Fmt 4.6, Leading zero omitted, Abs format (unit mm)*
G04 Created by KiCad (PCBNEW 9.0.0) date 2025-05-04 18:28:28*
%MOMM*%
%LPD*%
G01*
G04 APERTURE LIST*
G04 Aperture macros list*
%AMRoundRect*
0 Rectangle with rounded corners*
0 $1 Rounding radius*
0 $2 $3 $4 $5 $6 $7 $8 $9 X,Y pos of 4 corners*
0 Add a 4 corners polygon primitive as box body*
4,1,4,$2,$3,$4,$5,$6,$7,$8,$9,$2,$3,0*
0 Add four circle primitives for the rounded corners*
1,1,$1+$1,$2,$3*
1,1,$1+$1,$4,$5*
1,1,$1+$1,$6,$7*
1,1,$1+$1,$8,$9*
0 Add four rect primitives between the rounded corners*
20,1,$1+$1,$2,$3,$4,$5,0*
20,1,$1+$1,$4,$5,$6,$7,0*
20,1,$1+$1,$6,$7,$8,$9,0*
20,1,$1+$1,$8,$9,$2,$3,0*%
G04 Aperture macros list end*
%ADD10RoundRect,0.250000X-0.475000X0.337500X-0.475000X-0.337500X0.475000X-0.337500X0.475000X0.337500X0*%
%ADD11RoundRect,0.250000X0.650000X-0.412500X0.650000X0.412500X-0.650000X0.412500X-0.650000X-0.412500X0*%
%ADD12O,1.800000X1.000000*%
%ADD13O,2.100000X1.000000*%
%ADD14C,0.650000*%
%ADD15R,1.200000X2.750000*%
%ADD16C,5.800000*%
%ADD17R,0.300000X1.550000*%
%ADD18C,1.650000*%
%ADD19C,1.150000*%
%ADD20R,4.000000X4.000000*%
%ADD21C,2.700000*%
%ADD22RoundRect,0.250000X-0.450000X0.350000X-0.450000X-0.350000X0.450000X-0.350000X0.450000X0.350000X0*%
%ADD23C,1.000000*%
%ADD24R,1.750000X0.450000*%
%ADD25R,1.050000X1.750000*%
%ADD26R,0.500000X0.300000*%
%ADD27RoundRect,0.250000X-0.475000X0.250000X-0.475000X-0.250000X0.475000X-0.250000X0.475000X0.250000X0*%
%ADD28R,1.500000X1.000000*%
%ADD29RoundRect,0.135000X0.185000X-0.135000X0.185000X0.135000X-0.185000X0.135000X-0.185000X-0.135000X0*%
%ADD30RoundRect,0.250000X-0.250000X-0.475000X0.250000X-0.475000X0.250000X0.475000X-0.250000X0.475000X0*%
%ADD31RoundRect,0.250000X0.450000X-0.325000X0.450000X0.325000X-0.450000X0.325000X-0.450000X-0.325000X0*%
%ADD32RoundRect,0.140000X-0.170000X0.140000X-0.170000X-0.140000X0.170000X-0.140000X0.170000X0.140000X0*%
%ADD33RoundRect,0.250000X0.450000X-0.350000X0.450000X0.350000X-0.450000X0.350000X-0.450000X-0.350000X0*%
%ADD34RoundRect,0.250000X0.250000X0.475000X-0.250000X0.475000X-0.250000X-0.475000X0.250000X-0.475000X0*%
%ADD35RoundRect,0.250000X1.025000X-0.787500X1.025000X0.787500X-1.025000X0.787500X-1.025000X-0.787500X0*%
%ADD36RoundRect,0.135000X-0.185000X0.135000X-0.185000X-0.135000X0.185000X-0.135000X0.185000X0.135000X0*%
%ADD37RoundRect,0.150000X0.512500X0.150000X-0.512500X0.150000X-0.512500X-0.150000X0.512500X-0.150000X0*%
%ADD38R,1.550000X0.600000*%
%ADD39R,1.800000X1.200000*%
%ADD40RoundRect,0.250000X0.475000X-0.250000X0.475000X0.250000X-0.475000X0.250000X-0.475000X-0.250000X0*%
%ADD41RoundRect,0.150000X-0.512500X-0.150000X0.512500X-0.150000X0.512500X0.150000X-0.512500X0.150000X0*%
%ADD42RoundRect,0.250000X0.325000X0.450000X-0.325000X0.450000X-0.325000X-0.450000X0.325000X-0.450000X0*%
%ADD43R,0.600000X1.550000*%
%ADD44R,1.200000X1.800000*%
%ADD45RoundRect,0.140000X0.170000X-0.140000X0.170000X0.140000X-0.170000X0.140000X-0.170000X-0.140000X0*%
%ADD46RoundRect,0.500000X0.900000X-0.500000X0.900000X0.500000X-0.900000X0.500000X-0.900000X-0.500000X0*%
%ADD47RoundRect,0.135000X0.135000X0.185000X-0.135000X0.185000X-0.135000X-0.185000X0.135000X-0.185000X0*%
%ADD48R,1.100000X0.700000*%
%ADD49R,0.930000X0.900000*%
%ADD50R,0.780000X1.050000*%
%ADD51R,3.330000X0.700000*%
%ADD52R,1.830000X1.140000*%
%ADD53R,2.800000X0.860000*%
%ADD54R,1.200000X1.400000*%
G04 APERTURE END LIST*
D10*
%TO.C,C4*%
X102250000Y-111187500D03*
X102250000Y-109112500D03*
%TD*%
D11*
%TO.C,C5*%
X104750000Y-108037500D03*
X104750000Y-111162500D03*
%TD*%
D10*
%TO.C,C6*%
X101600000Y-82600000D03*
X101600000Y-80525000D03*
%TD*%
D11*
%TO.C,C7*%
X106000000Y-79450000D03*
X106000000Y-82575000D03*
%TD*%
D12*
%TO.C,J1*%
X162375000Y-73200000D03*
D13*
X158195000Y-73200000D03*
D12*
X162375000Y-81840000D03*
D13*
X158195000Y-81840000D03*
D14*
X158695000Y-74630000D03*
X158695000Y-80410000D03*
%TD*%
D15*
%TO.C,J3*%
X120650000Y-79975000D03*
X141350000Y-79975000D03*
D16*
X131000000Y-124725000D03*
X131000000Y-112725000D03*
D17*
X121750000Y-79200000D03*
X122000000Y-86750000D03*
X122250000Y-79200000D03*
X122500000Y-86750000D03*
X122750000Y-79200000D03*
X123000000Y-86750000D03*
X123250000Y-79200000D03*
X123500000Y-86750000D03*
X123750000Y-79200000D03*
X126000000Y-86750000D03*
X126250000Y-79200000D03*
X126500000Y-86750000D03*
X126750000Y-79200000D03*
X127000000Y-86750000D03*
X127250000Y-79200000D03*
X127500000Y-86750000D03*
X127750000Y-79200000D03*
X128000000Y-86750000D03*
X128250000Y-79200000D03*
X128500000Y-86750000D03*
X128750000Y-79200000D03*
X129000000Y-86750000D03*
X129250000Y-79200000D03*
X129500000Y-86750000D03*
X129750000Y-79200000D03*
X130000000Y-86750000D03*
X130250000Y-79200000D03*
X130500000Y-86750000D03*
X130750000Y-79200000D03*
X131000000Y-86750000D03*
X131250000Y-79200000D03*
X131500000Y-86750000D03*
X131750000Y-79200000D03*
X132000000Y-86750000D03*
X132250000Y-79200000D03*
X132500000Y-86750000D03*
X132750000Y-79200000D03*
X133000000Y-86750000D03*
X133250000Y-79200000D03*
X133500000Y-86750000D03*
X133750000Y-79200000D03*
X134000000Y-86750000D03*
X134250000Y-79200000D03*
X134500000Y-86750000D03*
X134750000Y-79200000D03*
X135000000Y-86750000D03*
X135250000Y-79200000D03*
X135500000Y-86750000D03*
X135750000Y-79200000D03*
X136000000Y-86750000D03*
X136250000Y-79200000D03*
X136500000Y-86750000D03*
X136750000Y-79200000D03*
X137000000Y-86750000D03*
X137250000Y-79200000D03*
X137500000Y-86750000D03*
X137750000Y-79200000D03*
X138000000Y-86750000D03*
X138250000Y-79200000D03*
X138500000Y-86750000D03*
X138750000Y-79200000D03*
X139000000Y-86750000D03*
X139250000Y-79200000D03*
X139500000Y-86750000D03*
X139750000Y-79200000D03*
X140000000Y-86750000D03*
X140250000Y-79200000D03*
D18*
X121000000Y-84475000D03*
D19*
X141000000Y-84475000D03*
%TD*%
D20*
%TO.C,J8*%
X134000000Y-132000000D03*
%TD*%
%TO.C,J23*%
X126000000Y-132000000D03*
%TD*%
D21*
%TO.C,Module1*%
X148000000Y-120225000D03*
X148000000Y-72225000D03*
X115000000Y-120225000D03*
X115000000Y-72225000D03*
%TD*%
D22*
%TO.C,R5*%
X103000000Y-126800000D03*
X103000000Y-124800000D03*
%TD*%
%TO.C,R7*%
X103750000Y-82575000D03*
X103750000Y-80575000D03*
%TD*%
D23*
%TO.C,TP1*%
X122500000Y-110600000D03*
%TD*%
%TO.C,TP2*%
X120600000Y-111700000D03*
%TD*%
%TO.C,TP3*%
X120600000Y-109600000D03*
%TD*%
%TO.C,TP4*%
X122500000Y-90300000D03*
%TD*%
%TO.C,TP5*%
X120900000Y-91700000D03*
%TD*%
%TO.C,TP6*%
X121000000Y-88800000D03*
%TD*%
D24*
%TO.C,U1*%
X110550000Y-107025000D03*
X110550000Y-107675000D03*
X110550000Y-108325000D03*
X110550000Y-108975000D03*
X110550000Y-109625000D03*
X110550000Y-110275000D03*
X110550000Y-110925000D03*
X110550000Y-111575000D03*
X110550000Y-112225000D03*
X110550000Y-112875000D03*
X110550000Y-113525000D03*
X110550000Y-114175000D03*
X110550000Y-114825000D03*
X110550000Y-115475000D03*
X117750000Y-115475000D03*
X117750000Y-114825000D03*
X117750000Y-114175000D03*
X117750000Y-113525000D03*
X117750000Y-112875000D03*
X117750000Y-112225000D03*
X117750000Y-111575000D03*
X117750000Y-110925000D03*
X117750000Y-110275000D03*
X117750000Y-109625000D03*
X117750000Y-108975000D03*
X117750000Y-108325000D03*
X117750000Y-107675000D03*
X117750000Y-107025000D03*
%TD*%
%TO.C,U2*%
X110800000Y-79075000D03*
X110800000Y-79725000D03*
X110800000Y-80375000D03*
X110800000Y-81025000D03*
X110800000Y-81675000D03*
X110800000Y-82325000D03*
X110800000Y-82975000D03*
X110800000Y-83625000D03*
X110800000Y-84275000D03*
X110800000Y-84925000D03*
X110800000Y-85575000D03*
X110800000Y-86225000D03*
X110800000Y-86875000D03*
X110800000Y-87525000D03*
X118000000Y-87525000D03*
X118000000Y-86875000D03*
X118000000Y-86225000D03*
X118000000Y-85575000D03*
X118000000Y-84925000D03*
X118000000Y-84275000D03*
X118000000Y-83625000D03*
X118000000Y-82975000D03*
X118000000Y-82325000D03*
X118000000Y-81675000D03*
X118000000Y-81025000D03*
X118000000Y-80375000D03*
X118000000Y-79725000D03*
X118000000Y-79075000D03*
%TD*%
D25*
%TO.C,U9*%
X129500000Y-75000000D03*
D26*
X128600000Y-74250000D03*
X128600000Y-74750000D03*
X128600000Y-75250000D03*
X128600000Y-75750000D03*
X130400000Y-75750000D03*
X130400000Y-75250000D03*
X130400000Y-74750000D03*
X130400000Y-74250000D03*
%TD*%
D27*
%TO.C,C22*%
X136000000Y-74050000D03*
X136000000Y-75950000D03*
%TD*%
D28*
%TO.C,JP3*%
X126700000Y-94000000D03*
X126700000Y-92700000D03*
%TD*%
D29*
%TO.C,R18*%
X152650000Y-117460000D03*
X152650000Y-116440000D03*
%TD*%
D30*
%TO.C,C13*%
X154000000Y-112550000D03*
X155900000Y-112550000D03*
%TD*%
D31*
%TO.C,D1*%
X104700000Y-121525000D03*
X104700000Y-119475000D03*
%TD*%
D28*
%TO.C,JP2*%
X124000000Y-94000000D03*
X124000000Y-92700000D03*
%TD*%
D27*
%TO.C,C21*%
X133750000Y-74050000D03*
X133750000Y-75950000D03*
%TD*%
D32*
%TO.C,C23*%
X142000000Y-74520000D03*
X142000000Y-75480000D03*
%TD*%
D33*
%TO.C,R9*%
X106000000Y-86575000D03*
X106000000Y-84575000D03*
%TD*%
D34*
%TO.C,C8*%
X117975000Y-99980000D03*
X116075000Y-99980000D03*
%TD*%
D32*
%TO.C,C18*%
X127500000Y-71770000D03*
X127500000Y-72730000D03*
%TD*%
D35*
%TO.C,C14*%
X161400000Y-118112500D03*
X161400000Y-111887500D03*
%TD*%
D31*
%TO.C,D2*%
X106900000Y-121525000D03*
X106900000Y-119475000D03*
%TD*%
D36*
%TO.C,R21*%
X132200000Y-73800000D03*
X132200000Y-74820000D03*
%TD*%
D30*
%TO.C,C12*%
X154000000Y-114650000D03*
X155900000Y-114650000D03*
%TD*%
D22*
%TO.C,R3*%
X104750000Y-113187500D03*
X104750000Y-115187500D03*
%TD*%
D37*
%TO.C,U8*%
X156437500Y-116500000D03*
X156437500Y-117450000D03*
X156437500Y-118400000D03*
X154162500Y-118400000D03*
X154162500Y-117450000D03*
X154162500Y-116500000D03*
%TD*%
D38*
%TO.C,J25*%
X105000000Y-76200000D03*
X105000000Y-75200000D03*
X105000000Y-74200000D03*
X105000000Y-73200000D03*
D39*
X101125000Y-77500000D03*
X101125000Y-71900000D03*
%TD*%
D10*
%TO.C,C3*%
X107250000Y-109150000D03*
X107250000Y-111225000D03*
%TD*%
D40*
%TO.C,C11*%
X157800000Y-114850000D03*
X157800000Y-112950000D03*
%TD*%
D41*
%TO.C,U3*%
X116050000Y-104480000D03*
X116050000Y-103530000D03*
X116050000Y-102580000D03*
X118325000Y-102580000D03*
X118325000Y-104480000D03*
%TD*%
D10*
%TO.C,C9*%
X108250000Y-80575000D03*
X108250000Y-82650000D03*
%TD*%
D42*
%TO.C,D3*%
X102925000Y-122900000D03*
X100875000Y-122900000D03*
%TD*%
D40*
%TO.C,C19*%
X131500000Y-72450000D03*
X131500000Y-70550000D03*
%TD*%
D43*
%TO.C,J24*%
X109300000Y-125000000D03*
X108300000Y-125000000D03*
X107300000Y-125000000D03*
X106300000Y-125000000D03*
D44*
X110600000Y-128875000D03*
X105000000Y-128875000D03*
%TD*%
D40*
%TO.C,C15*%
X133754721Y-72486115D03*
X133754721Y-70586115D03*
%TD*%
D45*
%TO.C,C17*%
X138250000Y-71680000D03*
X138250000Y-70720000D03*
%TD*%
D36*
%TO.C,R23*%
X145600000Y-80290000D03*
X145600000Y-81310000D03*
%TD*%
D28*
%TO.C,JP4*%
X153900000Y-80600000D03*
X153900000Y-81900000D03*
%TD*%
D46*
%TO.C,L1*%
X122800000Y-75350000D03*
X122800000Y-70850000D03*
%TD*%
D31*
%TO.C,D9*%
X143900000Y-80125000D03*
X143900000Y-78075000D03*
%TD*%
D47*
%TO.C,R22*%
X132210000Y-77100000D03*
X131190000Y-77100000D03*
%TD*%
D48*
%TO.C,J2*%
X101700000Y-96100000D03*
X101700000Y-97200000D03*
X101700000Y-98300000D03*
X101700000Y-99400000D03*
X101700000Y-100500000D03*
X101700000Y-101600000D03*
X101700000Y-102700000D03*
X101700000Y-103800000D03*
D49*
X114165000Y-94310000D03*
D50*
X114240000Y-98575000D03*
D51*
X112965000Y-92000000D03*
D52*
X101715000Y-92220000D03*
D53*
X102200000Y-104880000D03*
D51*
X112965000Y-104960000D03*
%TD*%
D33*
%TO.C,R2*%
X102250000Y-115187500D03*
X102250000Y-113187500D03*
%TD*%
D54*
%TO.C,U10*%
X139800000Y-74000000D03*
X139800000Y-76200000D03*
X138100000Y-76200000D03*
X138100000Y-74000000D03*
%TD*%
D40*
%TO.C,C20*%
X129260000Y-72450000D03*
X129260000Y-70550000D03*
%TD*%
D22*
%TO.C,R8*%
X103750000Y-84575000D03*
X103750000Y-86575000D03*
%TD*%
D40*
%TO.C,C16*%
X135998395Y-72482660D03*
X135998395Y-70582660D03*
%TD*%
D23*
%TO.C,TP33*%
X124500000Y-111600000D03*
%TD*%
D29*
%TO.C,R20*%
X126500000Y-74510000D03*
X126500000Y-73490000D03*
%TD*%
M02*
