%TF.GenerationSoftware,KiCad,Pcbnew,9.0.0*%
%TF.CreationDate,2025-05-04T18:28:28+01:00*%
%TF.ProjectId,specter,73706563-7465-4722-9e6b-696361645f70,rev?*%
%TF.SameCoordinates,Original*%
%TF.FileFunction,Copper,L2,Inr*%
%TF.FilePolarity,Positive*%
%FSLAX46Y46*%
G04 Gerber Fmt 4.6, Leading zero omitted, Abs format (unit mm)*
G04 Created by KiCad (PCBNEW 9.0.0) date 2025-05-04 18:28:28*
%MOMM*%
%LPD*%
G01*
G04 APERTURE LIST*
%TA.AperFunction,HeatsinkPad*%
%ADD10O,1.800000X1.000000*%
%TD*%
%TA.AperFunction,HeatsinkPad*%
%ADD11O,2.100000X1.000000*%
%TD*%
%TA.AperFunction,ComponentPad*%
%ADD12C,5.800000*%
%TD*%
%TA.AperFunction,ComponentPad*%
%ADD13R,4.000000X4.000000*%
%TD*%
%TA.AperFunction,ViaPad*%
%ADD14C,0.450000*%
%TD*%
%TA.AperFunction,ViaPad*%
%ADD15C,0.600000*%
%TD*%
%TA.AperFunction,Conductor*%
%ADD16C,0.200000*%
%TD*%
%TA.AperFunction,Conductor*%
%ADD17C,0.500000*%
%TD*%
%TA.AperFunction,Conductor*%
%ADD18C,0.220000*%
%TD*%
G04 APERTURE END LIST*
D10*
%TO.N,GND*%
%TO.C,J1*%
X162375000Y-73200000D03*
D11*
X158195000Y-73200000D03*
D10*
X162375000Y-81840000D03*
D11*
X158195000Y-81840000D03*
%TD*%
D12*
%TO.N,GND*%
%TO.C,J3*%
X131000000Y-124725000D03*
X131000000Y-112725000D03*
%TD*%
D13*
%TO.N,GND*%
%TO.C,J8*%
X134000000Y-132000000D03*
%TD*%
%TO.N,/+5v*%
%TO.C,J23*%
X126000000Y-132000000D03*
%TD*%
D14*
%TO.N,/+3.3v*%
X102450000Y-120900000D03*
%TO.N,/VBUS*%
X104750000Y-111162500D03*
X103000000Y-126800000D03*
X107250000Y-115187500D03*
X107600000Y-118400000D03*
%TO.N,GND*%
X159000000Y-70500000D03*
X161500000Y-108000000D03*
X140500000Y-120500000D03*
X159000000Y-69500000D03*
X140000000Y-121500000D03*
X119200000Y-117700000D03*
X133700000Y-77300000D03*
X158500000Y-70000000D03*
X162000000Y-109500000D03*
X162000000Y-108000000D03*
X140500000Y-120000000D03*
X161500000Y-108500000D03*
X106000000Y-105500000D03*
X140500000Y-121500000D03*
X141000000Y-121000000D03*
X120700000Y-117700000D03*
X158000000Y-70500000D03*
X162000000Y-109000000D03*
X123600000Y-126800000D03*
X157500000Y-70500000D03*
X140500000Y-121000000D03*
X111700000Y-99000000D03*
X158000000Y-69500000D03*
X158500000Y-70500000D03*
X110200000Y-124800000D03*
X113100000Y-125250000D03*
X137600000Y-77500000D03*
X119200000Y-119200000D03*
X162500000Y-108000000D03*
X120200000Y-118700000D03*
X162000000Y-108500000D03*
X161500000Y-109000000D03*
X119200000Y-118700000D03*
X135200000Y-77300000D03*
X158500000Y-69500000D03*
X162500000Y-109500000D03*
X119300000Y-125250000D03*
X163000000Y-108500000D03*
X161500000Y-109500000D03*
X119200000Y-118200000D03*
X157500000Y-71000000D03*
X134700000Y-77300000D03*
X141500000Y-120000000D03*
X140000000Y-121000000D03*
X162500000Y-109000000D03*
X157500000Y-69500000D03*
X159000000Y-71000000D03*
X119700000Y-117700000D03*
X140000000Y-120500000D03*
X157500000Y-70000000D03*
X158500000Y-71000000D03*
X156437500Y-117450000D03*
X137100000Y-77500000D03*
X115100000Y-92000000D03*
X141000000Y-121500000D03*
X134200000Y-77300000D03*
X119700000Y-118200000D03*
X140000000Y-120000000D03*
X138600000Y-77500000D03*
X158000000Y-71000000D03*
X127750000Y-79200000D03*
X119700000Y-118700000D03*
X119700000Y-119200000D03*
X129250000Y-79200000D03*
X141500000Y-121000000D03*
X163000000Y-109000000D03*
X163000000Y-109500000D03*
X163000000Y-108000000D03*
X133200000Y-77300000D03*
X120200000Y-118200000D03*
X114900000Y-96500000D03*
X141500000Y-120500000D03*
X141000000Y-120000000D03*
X138100000Y-77500000D03*
X141500000Y-121500000D03*
X120700000Y-118200000D03*
X158000000Y-70000000D03*
X120200000Y-117700000D03*
X120700000Y-118700000D03*
X109700000Y-122400000D03*
X120700000Y-119200000D03*
X120200000Y-119200000D03*
X141000000Y-120500000D03*
X111200000Y-99000000D03*
X162500000Y-108500000D03*
X159000000Y-70000000D03*
%TO.N,/+5v*%
X103000000Y-75500000D03*
X153650000Y-75520000D03*
X109500000Y-127000000D03*
X109000000Y-127000000D03*
X103000000Y-75000000D03*
X144700000Y-75200000D03*
X103500000Y-76200000D03*
X135998395Y-72482660D03*
X103200000Y-75900000D03*
X155700000Y-84500000D03*
X133754721Y-72486115D03*
X138250000Y-71680000D03*
X131450000Y-75550000D03*
D15*
X157800000Y-114900000D03*
D14*
X153650000Y-74520000D03*
X110000000Y-127000000D03*
X153650000Y-75020000D03*
X145000000Y-75500000D03*
X144400000Y-74900000D03*
X107800000Y-100100000D03*
%TO.N,Net-(U1-3V3OUT)*%
X107250000Y-111225000D03*
X112200000Y-114100000D03*
X112750000Y-109450000D03*
%TO.N,/SD_PWR*%
X117000000Y-101400000D03*
X104200000Y-99400000D03*
X103600000Y-99400000D03*
%TO.N,Net-(U2-3V3OUT)*%
X108250000Y-82650000D03*
X112500000Y-86200000D03*
%TO.N,/VBUS*%
X151000000Y-112000000D03*
X123100000Y-114600000D03*
X122800000Y-114300000D03*
X122500000Y-114000000D03*
X150500000Y-112000000D03*
X150000000Y-112000000D03*
%TO.N,/TXL1*%
X112900000Y-110275000D03*
X108000000Y-122500000D03*
%TO.N,/RXL1*%
X108599479Y-122000000D03*
X112625000Y-110925000D03*
%TO.N,Net-(D4-A)*%
X103750000Y-80575000D03*
%TO.N,Net-(D5-A)*%
X103750000Y-84575000D03*
%TO.N,/TXL2*%
X113000000Y-82300000D03*
%TO.N,Net-(D6-A)*%
X102000000Y-84000000D03*
%TO.N,/RXL2*%
X112400000Y-83300000D03*
%TO.N,/+3.3v*%
X124500000Y-111600000D03*
X121500000Y-106100000D03*
X152400000Y-113600000D03*
X118100000Y-103600000D03*
X122100000Y-105500000D03*
X158100000Y-116700000D03*
X124400000Y-108600000D03*
X159700000Y-96950000D03*
%TO.N,/SD_DAT3*%
X110000000Y-98700000D03*
%TO.N,/SD_DAT2*%
X108600000Y-98100000D03*
%TO.N,/SD_DAT0*%
X111995734Y-101589336D03*
%TO.N,/SD_CLK*%
X112200000Y-100100000D03*
%TO.N,/SD_CMD*%
X114454848Y-99845152D03*
%TO.N,/SD_DAT1*%
X111550000Y-102550000D03*
%TO.N,/PCIE_CLK_P*%
X126500000Y-81000000D03*
%TO.N,/PCIE_RX_P*%
X130500000Y-81000000D03*
%TO.N,/PCIE_nRST*%
X128300000Y-89000000D03*
%TO.N,/PCIE_nCLKREQ*%
X150550000Y-86450000D03*
%TO.N,/PCIE_RX_N*%
X129500000Y-81000000D03*
%TO.N,/PCIE_TX_N*%
X128000000Y-83600000D03*
%TO.N,/PCIE_CLK_N*%
X127500000Y-81000000D03*
%TO.N,/PCIE_TX_P*%
X129000000Y-83600000D03*
%TO.N,/PCIE_nWAKE*%
X151400000Y-86400000D03*
%TO.N,/CAM_GPIO1*%
X156500000Y-95700000D03*
X122300000Y-108300000D03*
%TO.N,/DPHY0_D0_P*%
X157000000Y-87700000D03*
X146000000Y-92400000D03*
%TO.N,/DPHY0_D2_P*%
X156000000Y-92200000D03*
X145000000Y-96000000D03*
%TO.N,/CAM_GPIO0*%
X155900000Y-95400000D03*
X114013021Y-108111979D03*
%TO.N,/SCL0*%
X120600000Y-104500000D03*
X155000000Y-97000000D03*
%TO.N,/DPHY_C_P*%
X146000000Y-94800000D03*
X157000000Y-90700000D03*
%TO.N,/DPHY_C_N*%
X146000000Y-93900000D03*
X157000000Y-89700000D03*
%TO.N,/DPHY0_D3_P*%
X157000000Y-93700000D03*
X146000000Y-97200000D03*
%TO.N,/DPHY0_D2_N*%
X145000000Y-95100000D03*
X156000000Y-91200000D03*
%TO.N,/DPHY0_D1_P*%
X156000000Y-89200000D03*
X145000000Y-93600000D03*
%TO.N,/DPHY0_D3_N*%
X146000000Y-96300000D03*
X157000000Y-92700000D03*
%TO.N,/DPHY0_D1_N*%
X156000000Y-88200000D03*
X145000000Y-92700000D03*
%TO.N,/DPHY0_D0_N*%
X146000000Y-91500000D03*
X157000000Y-86700000D03*
%TO.N,/DPHY1_C_N*%
X146000000Y-105900000D03*
X157000000Y-107000000D03*
%TO.N,/DPHY1_C_P*%
X146000000Y-106800000D03*
X157000000Y-107900000D03*
%TO.N,/DPHY1_D2_P*%
X145000000Y-108000000D03*
X156000000Y-109400000D03*
%TO.N,/DPHY1_D0_N*%
X146000000Y-103500000D03*
X157000000Y-104000000D03*
%TO.N,/DPHY1_D1_N*%
X156000000Y-105500000D03*
X145000000Y-104700000D03*
%TO.N,/DPHY1_D1_P*%
X145000000Y-105600000D03*
X156000000Y-106400000D03*
%TO.N,/DPHY1_D2_N*%
X156000000Y-108500000D03*
X145000000Y-107100000D03*
%TO.N,/GPIO14*%
X113800000Y-101400000D03*
X108100000Y-104300000D03*
%TO.N,/GPIO15*%
X114300000Y-101800000D03*
X108100000Y-104900000D03*
%TO.N,/SDA0*%
X155250000Y-97600000D03*
X121100000Y-104925000D03*
%TO.N,/RX_TELEM*%
X116000000Y-109700000D03*
X107600000Y-123300000D03*
%TO.N,/TX_TELEM*%
X113800000Y-106500000D03*
X109700000Y-123500000D03*
%TO.N,/GPIO9*%
X108000000Y-107400000D03*
X122600000Y-97600000D03*
%TO.N,/GPIO10*%
X115280132Y-97475000D03*
X108600000Y-106800000D03*
%TO.N,/CE0*%
X109200000Y-106300000D03*
X114350000Y-96950000D03*
%TO.N,/GPIO11*%
X107400000Y-107900000D03*
X122000000Y-97100000D03*
%TO.N,/GPIO4*%
X109100000Y-78000000D03*
X119000000Y-99000000D03*
%TO.N,/GPIO7*%
X110800000Y-95800000D03*
X107200000Y-90800000D03*
%TO.N,/GPIO6*%
X110400000Y-77100000D03*
X118500000Y-94911251D03*
%TO.N,/GPIO13*%
X111700000Y-77200000D03*
X118992408Y-94407592D03*
%TO.N,/GPIO12*%
X108300000Y-89900000D03*
X110500000Y-94700000D03*
%TO.N,/GPIO5*%
X119300000Y-95000000D03*
X109800000Y-77500000D03*
%TO.N,/GPIO21*%
X109400000Y-88300000D03*
X111700000Y-93400000D03*
%TO.N,/GPIO16*%
X108700000Y-89300000D03*
X110900000Y-94300000D03*
%TO.N,/GPIO20*%
X109100000Y-88800000D03*
X111300000Y-93800000D03*
%TO.N,/GPIO19*%
X120600000Y-94100000D03*
X110700000Y-74000000D03*
%TO.N,/GPIO18*%
X107400000Y-95000000D03*
X110500000Y-98300000D03*
%TO.N,/GPIO17*%
X120100000Y-98100000D03*
X107400000Y-98000000D03*
%TO.N,/GPIO25*%
X110400000Y-96300000D03*
X107600000Y-92200000D03*
%TO.N,/GPIO22*%
X119100000Y-97400000D03*
X107400000Y-96000000D03*
%TO.N,/GPIO24*%
X107400000Y-93000000D03*
X112200000Y-97700000D03*
%TO.N,/GPIO26*%
X121100000Y-93700000D03*
X111000000Y-73200000D03*
%TO.N,/GPIO23*%
X107400000Y-94000000D03*
X111100000Y-97900000D03*
%TO.N,/GPIO27*%
X119600000Y-97700000D03*
X108000000Y-96700000D03*
%TO.N,/EEPROM-nWP*%
X124000000Y-92700000D03*
%TO.N,/SYNC_OUT*%
X126700000Y-92700000D03*
%TO.N,/USBOTG*%
X146600000Y-88300000D03*
X153900000Y-83300000D03*
%TO.N,/PWR_BUT*%
X120750000Y-115150000D03*
X123600000Y-125500000D03*
%TO.N,/ID_SC*%
X120400000Y-96600000D03*
X114500000Y-96000000D03*
%TO.N,/ID_SD*%
X120154031Y-96108063D03*
X115000000Y-95500000D03*
%TO.N,/SD_PWR_ON*%
X118325000Y-102580000D03*
X115003128Y-103820094D03*
%TO.N,/USB3-1-D_P*%
X144100000Y-102000000D03*
%TO.N,/USB2_P*%
X146100000Y-90100000D03*
X155000000Y-77400000D03*
%TO.N,/nPWR_LED*%
X101800000Y-118000000D03*
X112200000Y-107800000D03*
%TO.N,/CC2*%
X124250000Y-103250000D03*
X152300000Y-76700000D03*
%TO.N,/CC1*%
X155600521Y-78800521D03*
X124450000Y-102350000D03*
%TO.N,/VBUS_EN*%
X161242409Y-95557591D03*
X145800000Y-90950000D03*
%TO.N,/USB3-0-D_N*%
X148600000Y-97900000D03*
%TO.N,/USB3-1-D_N*%
X144700000Y-102800000D03*
%TO.N,/LED_nACT*%
X104900000Y-118300000D03*
X109500000Y-98000000D03*
%TO.N,/PCIE_PWR_EN*%
X151600000Y-89200000D03*
X126500000Y-74500000D03*
%TO.N,/USB3-0-D_P*%
X147961637Y-97351396D03*
%TO.N,/USB2_N*%
X155000000Y-78300000D03*
X146100000Y-88900000D03*
%TO.N,/DPHY1_D0_P*%
X146000000Y-104400000D03*
X157000000Y-104900000D03*
%TO.N,/+3.3v*%
X152300000Y-114900000D03*
X121100000Y-104000000D03*
X128900000Y-104000000D03*
%TD*%
D16*
%TO.N,Net-(U1-3V3OUT)*%
X112200000Y-114100000D02*
X112200000Y-110000000D01*
X110975000Y-111225000D02*
X107250000Y-111225000D01*
X112750000Y-109450000D02*
X110975000Y-111225000D01*
%TO.N,/VBUS*%
X105300000Y-113237500D02*
X105300000Y-111712500D01*
X105300000Y-111712500D02*
X104750000Y-111162500D01*
X107250000Y-115187500D02*
X105300000Y-113237500D01*
D17*
%TO.N,/SD_PWR*%
X116425000Y-100825000D02*
X105925000Y-100825000D01*
X104500000Y-99400000D02*
X103600000Y-99400000D01*
X105925000Y-100825000D02*
X104500000Y-99400000D01*
X117000000Y-101400000D02*
X116425000Y-100825000D01*
D16*
%TO.N,Net-(U2-3V3OUT)*%
X108650000Y-82650000D02*
X112200000Y-86200000D01*
X112200000Y-86200000D02*
X112500000Y-86200000D01*
X108250000Y-82650000D02*
X108650000Y-82650000D01*
%TO.N,/TXL1*%
X113225000Y-115075000D02*
X109425000Y-118875000D01*
X109425000Y-118875000D02*
X109425000Y-121875000D01*
X109425000Y-121875000D02*
X108800000Y-122500000D01*
X112900000Y-110275000D02*
X113225000Y-110600000D01*
X113225000Y-110600000D02*
X113225000Y-115075000D01*
X108800000Y-122500000D02*
X108000000Y-122500000D01*
%TO.N,/RXL1*%
X109000000Y-121599479D02*
X108599479Y-122000000D01*
X112625000Y-110925000D02*
X112800000Y-111100000D01*
X112800000Y-114900000D02*
X109000000Y-118700000D01*
X112800000Y-111100000D02*
X112800000Y-114900000D01*
X109000000Y-118700000D02*
X109000000Y-121599479D01*
%TO.N,/+3.3v*%
X111700000Y-123100000D02*
X110500000Y-124300000D01*
X104500000Y-124300000D02*
X102450000Y-122250000D01*
X113800000Y-116700000D02*
X111700000Y-118800000D01*
X124500000Y-114600000D02*
X124500000Y-111600000D01*
X156900000Y-116700000D02*
X126600000Y-116700000D01*
X156900000Y-116700000D02*
X153800000Y-113600000D01*
X110500000Y-124300000D02*
X104500000Y-124300000D01*
X126600000Y-116700000D02*
X124500000Y-114600000D01*
X102450000Y-122250000D02*
X102450000Y-120900000D01*
X111700000Y-118800000D02*
X111700000Y-123100000D01*
X153800000Y-113600000D02*
X152400000Y-113600000D01*
X118100000Y-103600000D02*
X120000000Y-105500000D01*
X116300000Y-116700000D02*
X113800000Y-116700000D01*
X124400000Y-108600000D02*
X116300000Y-116700000D01*
X158100000Y-116700000D02*
X156900000Y-116700000D01*
X120000000Y-105500000D02*
X122100000Y-105500000D01*
%TO.N,/CAM_GPIO1*%
X123000000Y-108300000D02*
X130000000Y-101300000D01*
X153500000Y-101300000D02*
X156500000Y-98300000D01*
X130000000Y-101300000D02*
X153500000Y-101300000D01*
X122300000Y-108300000D02*
X123000000Y-108300000D01*
X156500000Y-98300000D02*
X156500000Y-95700000D01*
%TO.N,/CAM_GPIO0*%
X122900000Y-107800000D02*
X129800000Y-100900000D01*
X129800000Y-100900000D02*
X153300000Y-100900000D01*
X114013021Y-108111979D02*
X114325000Y-107800000D01*
X153300000Y-100900000D02*
X155900000Y-98300000D01*
X114325000Y-107800000D02*
X122900000Y-107800000D01*
X155900000Y-98300000D02*
X155900000Y-95400000D01*
%TO.N,/SCL0*%
X120600000Y-104500000D02*
X124200000Y-104500000D01*
X152400000Y-99600000D02*
X155000000Y-97000000D01*
X124200000Y-104500000D02*
X129100000Y-99600000D01*
X129100000Y-99600000D02*
X152400000Y-99600000D01*
%TO.N,/GPIO14*%
X113800000Y-101400000D02*
X111800000Y-103400000D01*
X109000000Y-103400000D02*
X108100000Y-104300000D01*
X111800000Y-103400000D02*
X109000000Y-103400000D01*
%TO.N,/GPIO15*%
X108101041Y-104900000D02*
X109201041Y-103800000D01*
X108100000Y-104900000D02*
X108101041Y-104900000D01*
X112300000Y-103800000D02*
X114300000Y-101800000D01*
X109201041Y-103800000D02*
X112300000Y-103800000D01*
%TO.N,/SDA0*%
X155100000Y-97600000D02*
X155250000Y-97600000D01*
X129300000Y-100000000D02*
X152700000Y-100000000D01*
X121125000Y-104900000D02*
X124400000Y-104900000D01*
X152700000Y-100000000D02*
X155100000Y-97600000D01*
X121100000Y-104925000D02*
X121125000Y-104900000D01*
X124400000Y-104900000D02*
X129300000Y-100000000D01*
%TO.N,/RX_TELEM*%
X110300000Y-119000000D02*
X113900000Y-115400000D01*
X113900000Y-111800000D02*
X116000000Y-109700000D01*
X110025000Y-123075000D02*
X110300000Y-122800000D01*
X107600000Y-123300000D02*
X107825000Y-123075000D01*
X113900000Y-115400000D02*
X113900000Y-111800000D01*
X110300000Y-122800000D02*
X110300000Y-119000000D01*
X107825000Y-123075000D02*
X110025000Y-123075000D01*
%TO.N,/TX_TELEM*%
X113400000Y-106900000D02*
X113400000Y-108300000D01*
X113800000Y-106500000D02*
X113400000Y-106900000D01*
X116600000Y-109300000D02*
X116600000Y-110100000D01*
X114300000Y-115500000D02*
X110700000Y-119100000D01*
X110700000Y-123000000D02*
X110200000Y-123500000D01*
X110200000Y-123500000D02*
X109700000Y-123500000D01*
X116200000Y-108900000D02*
X116600000Y-109300000D01*
X113400000Y-108300000D02*
X114000000Y-108900000D01*
X114300000Y-112400000D02*
X114300000Y-115500000D01*
X110700000Y-119100000D02*
X110700000Y-123000000D01*
X114000000Y-108900000D02*
X116200000Y-108900000D01*
X116600000Y-110100000D02*
X114300000Y-112400000D01*
%TO.N,/GPIO9*%
X108000000Y-106400000D02*
X109400000Y-105000000D01*
X108000000Y-107400000D02*
X108000000Y-106400000D01*
X109400000Y-105000000D02*
X115200000Y-105000000D01*
X115200000Y-105000000D02*
X122600000Y-97600000D01*
%TO.N,/GPIO11*%
X107400000Y-106300000D02*
X109200000Y-104500000D01*
X109200000Y-104500000D02*
X114924264Y-104500000D01*
X122000000Y-97424264D02*
X122000000Y-97100000D01*
X107400000Y-107900000D02*
X107400000Y-106300000D01*
X114924264Y-104500000D02*
X122000000Y-97424264D01*
%TO.N,/GPIO4*%
X120383063Y-95683063D02*
X121000000Y-96300000D01*
X109100000Y-78000000D02*
X110500000Y-79400000D01*
X119900000Y-99000000D02*
X119000000Y-99000000D01*
X116300000Y-94200000D02*
X117783063Y-95683063D01*
X116300000Y-84600000D02*
X116300000Y-94200000D01*
X121000000Y-96300000D02*
X121000000Y-97900000D01*
X111100000Y-79400000D02*
X116300000Y-84600000D01*
X110500000Y-79400000D02*
X111100000Y-79400000D01*
X121000000Y-97900000D02*
X119900000Y-99000000D01*
X117783063Y-95683063D02*
X120383063Y-95683063D01*
%TO.N,/GPIO7*%
X108500000Y-92100000D02*
X107200000Y-90800000D01*
X110800000Y-95800000D02*
X108500000Y-93500000D01*
X108500000Y-93500000D02*
X108500000Y-92100000D01*
%TO.N,/GPIO6*%
X117400000Y-93811251D02*
X117400000Y-83100000D01*
X112100000Y-77800000D02*
X111100000Y-77800000D01*
X111100000Y-77800000D02*
X110400000Y-77100000D01*
X118500000Y-94911251D02*
X117400000Y-93811251D01*
X117400000Y-83100000D02*
X112100000Y-77800000D01*
%TO.N,/GPIO13*%
X117900000Y-82400000D02*
X117900000Y-93315184D01*
X111700000Y-77200000D02*
X112700000Y-77200000D01*
X117900000Y-93315184D02*
X118992408Y-94407592D01*
X112700000Y-77200000D02*
X117900000Y-82400000D01*
%TO.N,/GPIO12*%
X109100000Y-93300000D02*
X110500000Y-94700000D01*
X109100000Y-90700000D02*
X109100000Y-93300000D01*
X108300000Y-89900000D02*
X109100000Y-90700000D01*
%TO.N,/GPIO5*%
X116900000Y-93912292D02*
X118323959Y-95336251D01*
X109800000Y-77500000D02*
X110700000Y-78400000D01*
X111400000Y-78400000D02*
X116900000Y-83900000D01*
X118323959Y-95336251D02*
X118963749Y-95336251D01*
X116900000Y-83900000D02*
X116900000Y-93912292D01*
X110700000Y-78400000D02*
X111400000Y-78400000D01*
X118963749Y-95336251D02*
X119300000Y-95000000D01*
%TO.N,/GPIO21*%
X109400000Y-88300000D02*
X110600000Y-89500000D01*
X110600000Y-92300000D02*
X111700000Y-93400000D01*
X110600000Y-89500000D02*
X110600000Y-92300000D01*
%TO.N,/GPIO16*%
X109600000Y-93000000D02*
X110900000Y-94300000D01*
X109600000Y-90200000D02*
X109600000Y-93000000D01*
X108700000Y-89300000D02*
X109600000Y-90200000D01*
%TO.N,/GPIO20*%
X110100000Y-89800000D02*
X110100000Y-92600000D01*
X109100000Y-88800000D02*
X110100000Y-89800000D01*
X110100000Y-92600000D02*
X111300000Y-93800000D01*
%TO.N,/GPIO19*%
X118400000Y-81700000D02*
X118400000Y-91900000D01*
X110700000Y-74000000D02*
X118400000Y-81700000D01*
X118400000Y-91900000D02*
X120600000Y-94100000D01*
%TO.N,/GPIO17*%
X119900000Y-98300000D02*
X120100000Y-98100000D01*
X107950520Y-97449480D02*
X111348440Y-97449480D01*
X111348440Y-97449480D02*
X112198960Y-98300000D01*
X112198960Y-98300000D02*
X119900000Y-98300000D01*
X107400000Y-98000000D02*
X107950520Y-97449480D01*
%TO.N,/GPIO25*%
X108000000Y-92600000D02*
X107600000Y-92200000D01*
X110400000Y-96300000D02*
X108000000Y-93900000D01*
X108000000Y-93900000D02*
X108000000Y-92600000D01*
%TO.N,/GPIO22*%
X119100000Y-97400000D02*
X118700000Y-97000000D01*
X118700000Y-97000000D02*
X116700000Y-97000000D01*
X110125000Y-96725000D02*
X109400000Y-96000000D01*
X109400000Y-96000000D02*
X107400000Y-96000000D01*
X110876041Y-96425000D02*
X110576041Y-96725000D01*
X116125000Y-96425000D02*
X110876041Y-96425000D01*
X116700000Y-97000000D02*
X116125000Y-96425000D01*
X110576041Y-96725000D02*
X110125000Y-96725000D01*
%TO.N,/GPIO26*%
X118900000Y-81100000D02*
X118900000Y-91500000D01*
X118900000Y-91500000D02*
X121100000Y-93700000D01*
X111000000Y-73200000D02*
X118900000Y-81100000D01*
%TO.N,/GPIO27*%
X114600000Y-97900000D02*
X113800000Y-97100000D01*
X109800000Y-97100000D02*
X109400000Y-96700000D01*
X113800000Y-97100000D02*
X109800000Y-97100000D01*
X109400000Y-96700000D02*
X108000000Y-96700000D01*
X119600000Y-97700000D02*
X119400000Y-97900000D01*
X119400000Y-97900000D02*
X114600000Y-97900000D01*
%TO.N,/USBOTG*%
X148500000Y-90200000D02*
X152600000Y-90200000D01*
X153900000Y-88900000D02*
X153900000Y-83300000D01*
X146600000Y-88300000D02*
X148500000Y-90200000D01*
X152600000Y-90200000D02*
X153900000Y-88900000D01*
%TO.N,/PWR_BUT*%
X120750000Y-115150000D02*
X123600000Y-118000000D01*
X123600000Y-118000000D02*
X123600000Y-125500000D01*
%TO.N,/ID_SC*%
X116900000Y-96600000D02*
X116300000Y-96000000D01*
X120400000Y-96600000D02*
X116900000Y-96600000D01*
X116300000Y-96000000D02*
X114500000Y-96000000D01*
%TO.N,/ID_SD*%
X120154031Y-96108063D02*
X120145968Y-96100000D01*
X120145968Y-96100000D02*
X117100000Y-96100000D01*
X116500000Y-95500000D02*
X115000000Y-95500000D01*
X117100000Y-96100000D02*
X116500000Y-95500000D01*
%TO.N,/USB2_P*%
X145475736Y-89700000D02*
X145900000Y-89700000D01*
X152800000Y-77700000D02*
X152200000Y-77700000D01*
X149447686Y-80452314D02*
X145000000Y-84900000D01*
X145000000Y-89224264D02*
X145475736Y-89700000D01*
X153160000Y-77403051D02*
X153160000Y-77460000D01*
X146100000Y-89900000D02*
X146100000Y-90100000D01*
X146100000Y-90100000D02*
X146100000Y-90000000D01*
X154700000Y-77700000D02*
X154000000Y-77700000D01*
X152920000Y-77700000D02*
X152800000Y-77700000D01*
X153760000Y-77460000D02*
X153760000Y-77403051D01*
X145000000Y-84900000D02*
X145000000Y-89224264D01*
X153520000Y-77163051D02*
X153400000Y-77163051D01*
X145900000Y-89700000D02*
X146100000Y-89900000D01*
X155000000Y-77400000D02*
X154700000Y-77700000D01*
X152200000Y-77700000D02*
X149447686Y-80452314D01*
X153760000Y-77403051D02*
G75*
G03*
X153520000Y-77163000I-240000J51D01*
G01*
X153400000Y-77163051D02*
G75*
G03*
X153160051Y-77403051I0J-239949D01*
G01*
X154000000Y-77700000D02*
G75*
G02*
X153760000Y-77460000I0J240000D01*
G01*
X153160000Y-77460000D02*
G75*
G02*
X152920000Y-77700000I-240000J0D01*
G01*
%TO.N,/nPWR_LED*%
X108800000Y-107800000D02*
X106200000Y-110400000D01*
X104600000Y-117700000D02*
X104300000Y-118000000D01*
X112200000Y-107800000D02*
X108800000Y-107800000D01*
X107800000Y-113800000D02*
X107800000Y-116500000D01*
X107800000Y-116500000D02*
X106600000Y-117700000D01*
X106200000Y-110400000D02*
X106200000Y-112200000D01*
X106200000Y-112200000D02*
X107800000Y-113800000D01*
X104300000Y-118000000D02*
X101800000Y-118000000D01*
X106600000Y-117700000D02*
X104600000Y-117700000D01*
%TO.N,/CC2*%
X124250000Y-103250000D02*
X150800000Y-76700000D01*
X150800000Y-76700000D02*
X152300000Y-76700000D01*
%TO.N,/CC1*%
X155201041Y-76200000D02*
X155600521Y-76599480D01*
X124450000Y-102350000D02*
X150600000Y-76200000D01*
X150600000Y-76200000D02*
X155201041Y-76200000D01*
X155600521Y-76599480D02*
X155600521Y-78800521D01*
D18*
%TO.N,/VBUS_EN*%
X147415183Y-90700000D02*
X156384817Y-90700000D01*
X147165183Y-90950000D02*
X147415183Y-90700000D01*
X145800000Y-90950000D02*
X147165183Y-90950000D01*
X161242408Y-95557591D02*
X161242409Y-95557591D01*
X156384817Y-90700000D02*
X161242408Y-95557591D01*
D16*
%TO.N,/PCIE_PWR_EN*%
X153700000Y-68700000D02*
X135800000Y-68700000D01*
X135800000Y-68700000D02*
X130000000Y-74500000D01*
X130000000Y-74500000D02*
X126500000Y-74500000D01*
X152200000Y-83400000D02*
X156600000Y-79000000D01*
X151600000Y-89200000D02*
X152200000Y-88600000D01*
X156600000Y-71600000D02*
X153700000Y-68700000D01*
X152200000Y-88600000D02*
X152200000Y-83400000D01*
X156600000Y-79000000D02*
X156600000Y-71600000D01*
%TO.N,/USB2_N*%
X145300000Y-89100000D02*
X145600000Y-89400000D01*
X145300000Y-85024264D02*
X145300000Y-89100000D01*
X146100000Y-89200000D02*
X146100000Y-88900000D01*
X154700000Y-78000000D02*
X152324264Y-78000000D01*
X145600000Y-89400000D02*
X145900000Y-89400000D01*
X155000000Y-78300000D02*
X154700000Y-78000000D01*
X152324264Y-78000000D02*
X145300000Y-85024264D01*
X145900000Y-89400000D02*
X146100000Y-89200000D01*
%TO.N,/+3.3v*%
X145800000Y-114900000D02*
X134900000Y-104000000D01*
X134900000Y-104000000D02*
X128900000Y-104000000D01*
X152300000Y-114900000D02*
X145800000Y-114900000D01*
%TD*%
%TA.AperFunction,Conductor*%
%TO.N,GND*%
G36*
X116059133Y-96644407D02*
G01*
X116070946Y-96654496D01*
X116586426Y-97169976D01*
X116586427Y-97169976D01*
X116586428Y-97169977D01*
X116660117Y-97200500D01*
X116660118Y-97200500D01*
X116739882Y-97200500D01*
X118575943Y-97200500D01*
X118583540Y-97202968D01*
X118591430Y-97201719D01*
X118612084Y-97212242D01*
X118634134Y-97219407D01*
X118645946Y-97229496D01*
X118745503Y-97329052D01*
X118773281Y-97383568D01*
X118774500Y-97399056D01*
X118774500Y-97442853D01*
X118783659Y-97477034D01*
X118796682Y-97525639D01*
X118811325Y-97551001D01*
X118824046Y-97610849D01*
X118799159Y-97666745D01*
X118746170Y-97697337D01*
X118725588Y-97699500D01*
X115685979Y-97699500D01*
X115627788Y-97680593D01*
X115591824Y-97631093D01*
X115590352Y-97574878D01*
X115605632Y-97517853D01*
X115605632Y-97432147D01*
X115583450Y-97349362D01*
X115540597Y-97275138D01*
X115479994Y-97214535D01*
X115405770Y-97171682D01*
X115322985Y-97149500D01*
X115237279Y-97149500D01*
X115154494Y-97171682D01*
X115080270Y-97214535D01*
X115019667Y-97275138D01*
X114976814Y-97349362D01*
X114954632Y-97432147D01*
X114954632Y-97517853D01*
X114969911Y-97574878D01*
X114968440Y-97602957D01*
X114968440Y-97631093D01*
X114966850Y-97633280D01*
X114966709Y-97635978D01*
X114949020Y-97657822D01*
X114932476Y-97680593D01*
X114929903Y-97681428D01*
X114928204Y-97683528D01*
X114874285Y-97699500D01*
X114724058Y-97699500D01*
X114665867Y-97680593D01*
X114654054Y-97670504D01*
X114408575Y-97425025D01*
X114380798Y-97370508D01*
X114390369Y-97310076D01*
X114433634Y-97266811D01*
X114452943Y-97259398D01*
X114475638Y-97253318D01*
X114549862Y-97210465D01*
X114610465Y-97149862D01*
X114653318Y-97075638D01*
X114675500Y-96992853D01*
X114675500Y-96907147D01*
X114653318Y-96824362D01*
X114624240Y-96773998D01*
X114611520Y-96714151D01*
X114636407Y-96658256D01*
X114689395Y-96627663D01*
X114709978Y-96625500D01*
X116000942Y-96625500D01*
X116059133Y-96644407D01*
G37*
%TD.AperFunction*%
%TA.AperFunction,Conductor*%
G36*
X161012834Y-68029407D02*
G01*
X161024647Y-68039496D01*
X164960504Y-71975353D01*
X164988281Y-72029870D01*
X164989500Y-72045357D01*
X164989500Y-125954642D01*
X164970593Y-126012833D01*
X164960504Y-126024646D01*
X161024647Y-129960504D01*
X160970130Y-129988281D01*
X160954643Y-129989500D01*
X140002908Y-129989500D01*
X140001673Y-129988759D01*
X139998708Y-129989500D01*
X139995122Y-129989500D01*
X139994223Y-129989796D01*
X139993508Y-129990412D01*
X139993234Y-129990867D01*
X139993234Y-129990868D01*
X139991660Y-129993490D01*
X139989500Y-129995651D01*
X139989500Y-129997091D01*
X139983804Y-130006583D01*
X137022894Y-134941435D01*
X136976742Y-134981605D01*
X136938002Y-134989500D01*
X123061998Y-134989500D01*
X123003807Y-134970593D01*
X122977106Y-134941435D01*
X121812245Y-133000000D01*
X120016190Y-130006576D01*
X120009622Y-129993533D01*
X120009294Y-129992741D01*
X120008596Y-129992224D01*
X120005727Y-129990098D01*
X123899500Y-129990098D01*
X123899500Y-134009898D01*
X123905331Y-134039214D01*
X123927539Y-134072452D01*
X123927540Y-134072453D01*
X123927543Y-134072457D01*
X123960787Y-134094669D01*
X123990101Y-134100500D01*
X128009898Y-134100499D01*
X128039213Y-134094669D01*
X128072457Y-134072457D01*
X128088916Y-134047824D01*
X131499999Y-134047824D01*
X131506401Y-134107370D01*
X131506403Y-134107381D01*
X131556646Y-134242088D01*
X131556647Y-134242090D01*
X131642807Y-134357184D01*
X131642815Y-134357192D01*
X131757909Y-134443352D01*
X131757911Y-134443353D01*
X131892618Y-134493596D01*
X131892629Y-134493598D01*
X131952176Y-134500000D01*
X133749999Y-134500000D01*
X133750000Y-134499999D01*
X133750000Y-132969863D01*
X133901509Y-133000000D01*
X134098491Y-133000000D01*
X134250000Y-132969863D01*
X134250000Y-134499999D01*
X134250001Y-134500000D01*
X136047824Y-134500000D01*
X136107370Y-134493598D01*
X136107381Y-134493596D01*
X136242088Y-134443353D01*
X136242090Y-134443352D01*
X136357184Y-134357192D01*
X136357192Y-134357184D01*
X136443352Y-134242090D01*
X136443353Y-134242088D01*
X136493596Y-134107381D01*
X136493598Y-134107370D01*
X136500000Y-134047824D01*
X136500000Y-132250001D01*
X136499999Y-132250000D01*
X134969863Y-132250000D01*
X135000000Y-132098491D01*
X135000000Y-131901509D01*
X134969863Y-131750000D01*
X136499999Y-131750000D01*
X136500000Y-131749999D01*
X136500000Y-129952175D01*
X136493598Y-129892629D01*
X136493596Y-129892618D01*
X136443353Y-129757911D01*
X136443352Y-129757909D01*
X136357192Y-129642815D01*
X136357184Y-129642807D01*
X136242090Y-129556647D01*
X136242088Y-129556646D01*
X136107381Y-129506403D01*
X136107370Y-129506401D01*
X136047824Y-129500000D01*
X134250001Y-129500000D01*
X134250000Y-129500001D01*
X134250000Y-131030136D01*
X134098491Y-131000000D01*
X133901509Y-131000000D01*
X133750000Y-131030136D01*
X133750000Y-129500001D01*
X133749999Y-129500000D01*
X131952176Y-129500000D01*
X131892629Y-129506401D01*
X131892618Y-129506403D01*
X131757911Y-129556646D01*
X131757909Y-129556647D01*
X131642815Y-129642807D01*
X131642807Y-129642815D01*
X131556647Y-129757909D01*
X131556646Y-129757911D01*
X131506403Y-129892618D01*
X131506401Y-129892629D01*
X131500000Y-129952175D01*
X131500000Y-131749999D01*
X131500001Y-131750000D01*
X133030137Y-131750000D01*
X133000000Y-131901509D01*
X133000000Y-132098491D01*
X133030137Y-132250000D01*
X131500001Y-132250000D01*
X131500000Y-132250001D01*
X131500000Y-134047824D01*
X131499999Y-134047824D01*
X128088916Y-134047824D01*
X128094669Y-134039213D01*
X128100500Y-134009899D01*
X128100499Y-131901509D01*
X128100499Y-129990101D01*
X128096269Y-129968833D01*
X128094669Y-129960788D01*
X128094669Y-129960787D01*
X128072457Y-129927543D01*
X128039213Y-129905331D01*
X128039212Y-129905330D01*
X128039211Y-129905330D01*
X128009899Y-129899500D01*
X123990101Y-129899500D01*
X123960785Y-129905331D01*
X123927547Y-129927539D01*
X123927542Y-129927544D01*
X123905330Y-129960788D01*
X123899500Y-129990098D01*
X120005727Y-129990098D01*
X120004953Y-129989524D01*
X120004880Y-129989500D01*
X120004349Y-129989500D01*
X120001291Y-129989500D01*
X119998327Y-129988759D01*
X119997092Y-129989500D01*
X104045358Y-129989500D01*
X103987167Y-129970593D01*
X103975354Y-129960504D01*
X100771997Y-126757147D01*
X102674500Y-126757147D01*
X102674500Y-126842853D01*
X102696682Y-126925638D01*
X102739535Y-126999862D01*
X102800138Y-127060465D01*
X102874362Y-127103318D01*
X102957147Y-127125500D01*
X102957149Y-127125500D01*
X103042851Y-127125500D01*
X103042853Y-127125500D01*
X103125638Y-127103318D01*
X103199862Y-127060465D01*
X103260465Y-126999862D01*
X103285126Y-126957147D01*
X108674500Y-126957147D01*
X108674500Y-127042853D01*
X108696682Y-127125638D01*
X108739535Y-127199862D01*
X108800138Y-127260465D01*
X108874362Y-127303318D01*
X108957147Y-127325500D01*
X108957149Y-127325500D01*
X109042851Y-127325500D01*
X109042853Y-127325500D01*
X109125638Y-127303318D01*
X109199862Y-127260465D01*
X109199864Y-127260462D01*
X109200499Y-127260096D01*
X109260348Y-127247374D01*
X109299501Y-127260096D01*
X109300135Y-127260462D01*
X109300138Y-127260465D01*
X109374362Y-127303318D01*
X109457147Y-127325500D01*
X109457149Y-127325500D01*
X109542851Y-127325500D01*
X109542853Y-127325500D01*
X109625638Y-127303318D01*
X109699862Y-127260465D01*
X109699864Y-127260462D01*
X109700499Y-127260096D01*
X109760348Y-127247374D01*
X109799501Y-127260096D01*
X109800135Y-127260462D01*
X109800138Y-127260465D01*
X109874362Y-127303318D01*
X109957147Y-127325500D01*
X109957149Y-127325500D01*
X110042851Y-127325500D01*
X110042853Y-127325500D01*
X110125638Y-127303318D01*
X110199862Y-127260465D01*
X110260465Y-127199862D01*
X110303318Y-127125638D01*
X110325500Y-127042853D01*
X110325500Y-126957147D01*
X110303318Y-126874362D01*
X110260465Y-126800138D01*
X110199862Y-126739535D01*
X110125638Y-126696682D01*
X110042853Y-126674500D01*
X109957147Y-126674500D01*
X109874362Y-126696682D01*
X109800138Y-126739535D01*
X109800136Y-126739536D01*
X109799500Y-126739904D01*
X109739651Y-126752625D01*
X109700500Y-126739904D01*
X109699863Y-126739536D01*
X109699862Y-126739535D01*
X109625638Y-126696682D01*
X109542853Y-126674500D01*
X109457147Y-126674500D01*
X109374362Y-126696682D01*
X109300138Y-126739535D01*
X109300136Y-126739536D01*
X109299500Y-126739904D01*
X109239651Y-126752625D01*
X109200500Y-126739904D01*
X109199863Y-126739536D01*
X109199862Y-126739535D01*
X109125638Y-126696682D01*
X109042853Y-126674500D01*
X108957147Y-126674500D01*
X108874362Y-126696682D01*
X108800138Y-126739535D01*
X108739535Y-126800138D01*
X108696682Y-126874362D01*
X108674500Y-126957147D01*
X103285126Y-126957147D01*
X103303318Y-126925638D01*
X103325500Y-126842853D01*
X103325500Y-126757147D01*
X103303318Y-126674362D01*
X103260465Y-126600138D01*
X103199862Y-126539535D01*
X103125638Y-126496682D01*
X103042853Y-126474500D01*
X102957147Y-126474500D01*
X102874362Y-126496682D01*
X102800138Y-126539535D01*
X102739535Y-126600138D01*
X102696682Y-126674362D01*
X102674500Y-126757147D01*
X100771997Y-126757147D01*
X100039496Y-126024646D01*
X100011719Y-125970129D01*
X100010500Y-125954642D01*
X100010500Y-120857147D01*
X102124500Y-120857147D01*
X102124500Y-120942853D01*
X102146682Y-121025638D01*
X102189535Y-121099862D01*
X102220505Y-121130832D01*
X102248281Y-121185347D01*
X102249500Y-121200834D01*
X102249500Y-122289882D01*
X102280022Y-122363571D01*
X102280023Y-122363572D01*
X102280024Y-122363574D01*
X104330024Y-124413574D01*
X104330023Y-124413574D01*
X104386426Y-124469976D01*
X104460117Y-124500500D01*
X104460118Y-124500500D01*
X110539883Y-124500500D01*
X110586351Y-124481251D01*
X110613574Y-124469976D01*
X111869976Y-123213574D01*
X111900500Y-123139882D01*
X111900500Y-123060118D01*
X111900500Y-121185939D01*
X111919407Y-121127748D01*
X111968907Y-121091784D01*
X112030093Y-121091784D01*
X112079593Y-121127748D01*
X112092943Y-121153239D01*
X112177264Y-121394215D01*
X112177266Y-121394219D01*
X112325916Y-121702895D01*
X112325920Y-121702902D01*
X112325924Y-121702910D01*
X112508211Y-121993018D01*
X112721834Y-122260893D01*
X112964107Y-122503166D01*
X113231982Y-122716789D01*
X113522090Y-122899076D01*
X113522101Y-122899081D01*
X113522104Y-122899083D01*
X113624660Y-122948471D01*
X113830785Y-123047736D01*
X113980542Y-123100138D01*
X114154179Y-123160896D01*
X114154182Y-123160896D01*
X114154183Y-123160897D01*
X114488217Y-123237139D01*
X114828688Y-123275500D01*
X114828689Y-123275500D01*
X115171311Y-123275500D01*
X115171312Y-123275500D01*
X115511783Y-123237139D01*
X115845817Y-123160897D01*
X116169215Y-123047736D01*
X116477910Y-122899076D01*
X116768018Y-122716789D01*
X117035893Y-122503166D01*
X117278166Y-122260893D01*
X117491789Y-121993018D01*
X117674076Y-121702910D01*
X117822736Y-121394215D01*
X117935897Y-121070817D01*
X118012139Y-120736783D01*
X118050500Y-120396312D01*
X118050500Y-120053688D01*
X118012139Y-119713217D01*
X117935897Y-119379183D01*
X117924089Y-119345438D01*
X117822736Y-119055786D01*
X117822736Y-119055785D01*
X117710660Y-118823057D01*
X117674083Y-118747104D01*
X117674079Y-118747097D01*
X117674076Y-118747090D01*
X117491789Y-118456982D01*
X117278166Y-118189107D01*
X117035893Y-117946834D01*
X116768018Y-117733211D01*
X116477910Y-117550924D01*
X116477902Y-117550920D01*
X116477895Y-117550916D01*
X116169215Y-117402264D01*
X116169213Y-117402263D01*
X115845820Y-117289103D01*
X115511781Y-117212860D01*
X115171313Y-117174500D01*
X115171312Y-117174500D01*
X114828688Y-117174500D01*
X114828686Y-117174500D01*
X114488218Y-117212860D01*
X114154179Y-117289103D01*
X113830786Y-117402263D01*
X113830784Y-117402264D01*
X113522104Y-117550916D01*
X113522097Y-117550920D01*
X113522092Y-117550922D01*
X113522090Y-117550924D01*
X113499679Y-117565006D01*
X113487216Y-117572837D01*
X113427884Y-117587786D01*
X113371098Y-117565006D01*
X113338546Y-117513198D01*
X113342663Y-117452151D01*
X113364543Y-117419006D01*
X113854054Y-116929496D01*
X113908570Y-116901719D01*
X113924057Y-116900500D01*
X116339883Y-116900500D01*
X116386351Y-116881251D01*
X116413574Y-116869976D01*
X118176403Y-115107147D01*
X120424500Y-115107147D01*
X120424500Y-115192853D01*
X120446682Y-115275638D01*
X120489535Y-115349862D01*
X120550138Y-115410465D01*
X120624362Y-115453318D01*
X120707147Y-115475500D01*
X120750942Y-115475500D01*
X120809133Y-115494407D01*
X120820946Y-115504496D01*
X123370504Y-118054054D01*
X123398281Y-118108571D01*
X123399500Y-118124058D01*
X123399500Y-125199165D01*
X123380593Y-125257356D01*
X123370505Y-125269168D01*
X123339535Y-125300137D01*
X123296682Y-125374362D01*
X123274500Y-125457147D01*
X123274500Y-125542853D01*
X123296682Y-125625638D01*
X123339535Y-125699862D01*
X123400138Y-125760465D01*
X123474362Y-125803318D01*
X123557147Y-125825500D01*
X123557149Y-125825500D01*
X123642851Y-125825500D01*
X123642853Y-125825500D01*
X123725638Y-125803318D01*
X123799862Y-125760465D01*
X123860465Y-125699862D01*
X123903318Y-125625638D01*
X123925500Y-125542853D01*
X123925500Y-125457147D01*
X123903318Y-125374362D01*
X123860465Y-125300138D01*
X123829495Y-125269168D01*
X123801719Y-125214651D01*
X123800500Y-125199165D01*
X123800500Y-124557971D01*
X127600000Y-124557971D01*
X127600000Y-124892028D01*
X127632743Y-125224481D01*
X127697917Y-125552133D01*
X127794886Y-125871798D01*
X127922726Y-126180431D01*
X127922739Y-126180458D01*
X128080203Y-126475054D01*
X128265802Y-126752821D01*
X128424837Y-126946607D01*
X129527059Y-125844384D01*
X129606112Y-125947407D01*
X129777593Y-126118888D01*
X129880613Y-126197938D01*
X128778391Y-127300161D01*
X128972178Y-127459197D01*
X129249945Y-127644796D01*
X129544541Y-127802260D01*
X129544568Y-127802273D01*
X129853201Y-127930113D01*
X130172866Y-128027082D01*
X130500520Y-128092256D01*
X130500516Y-128092256D01*
X130832972Y-128125000D01*
X131167028Y-128125000D01*
X131499481Y-128092256D01*
X131827133Y-128027082D01*
X132146798Y-127930113D01*
X132455431Y-127802273D01*
X132455458Y-127802260D01*
X132750054Y-127644796D01*
X133027821Y-127459197D01*
X133221607Y-127300161D01*
X132119385Y-126197939D01*
X132222407Y-126118888D01*
X132393888Y-125947407D01*
X132472939Y-125844385D01*
X133575161Y-126946607D01*
X133734197Y-126752821D01*
X133919796Y-126475054D01*
X134077260Y-126180458D01*
X134077273Y-126180431D01*
X134205113Y-125871798D01*
X134302082Y-125552133D01*
X134367256Y-125224481D01*
X134400000Y-124892028D01*
X134400000Y-124557971D01*
X134367256Y-124225518D01*
X134302082Y-123897866D01*
X134205113Y-123578201D01*
X134077273Y-123269568D01*
X134077260Y-123269541D01*
X133919796Y-122974945D01*
X133734197Y-122697178D01*
X133575161Y-122503391D01*
X132472938Y-123605613D01*
X132393888Y-123502593D01*
X132222407Y-123331112D01*
X132119384Y-123252059D01*
X133221607Y-122149837D01*
X133027821Y-121990802D01*
X132750054Y-121805203D01*
X132455458Y-121647739D01*
X132455431Y-121647726D01*
X132146798Y-121519886D01*
X131827133Y-121422917D01*
X131499479Y-121357743D01*
X131499483Y-121357743D01*
X131167028Y-121325000D01*
X130832972Y-121325000D01*
X130500518Y-121357743D01*
X130172866Y-121422917D01*
X129853201Y-121519886D01*
X129544568Y-121647726D01*
X129544541Y-121647739D01*
X129249945Y-121805203D01*
X128972178Y-121990802D01*
X128778391Y-122149837D01*
X129880614Y-123252060D01*
X129777593Y-123331112D01*
X129606112Y-123502593D01*
X129527060Y-123605614D01*
X128424837Y-122503391D01*
X128265802Y-122697178D01*
X128080203Y-122974945D01*
X127922739Y-123269541D01*
X127922726Y-123269568D01*
X127794886Y-123578201D01*
X127697917Y-123897866D01*
X127632743Y-124225518D01*
X127600000Y-124557971D01*
X123800500Y-124557971D01*
X123800500Y-120053686D01*
X144949500Y-120053686D01*
X144949500Y-120396313D01*
X144987860Y-120736781D01*
X145064103Y-121070820D01*
X145177263Y-121394213D01*
X145177264Y-121394215D01*
X145325916Y-121702895D01*
X145325920Y-121702902D01*
X145325924Y-121702910D01*
X145508211Y-121993018D01*
X145721834Y-122260893D01*
X145964107Y-122503166D01*
X146231982Y-122716789D01*
X146522090Y-122899076D01*
X146522101Y-122899081D01*
X146522104Y-122899083D01*
X146624660Y-122948471D01*
X146830785Y-123047736D01*
X146980542Y-123100138D01*
X147154179Y-123160896D01*
X147154182Y-123160896D01*
X147154183Y-123160897D01*
X147488217Y-123237139D01*
X147828688Y-123275500D01*
X147828689Y-123275500D01*
X148171311Y-123275500D01*
X148171312Y-123275500D01*
X148511783Y-123237139D01*
X148845817Y-123160897D01*
X149169215Y-123047736D01*
X149477910Y-122899076D01*
X149768018Y-122716789D01*
X150035893Y-122503166D01*
X150278166Y-122260893D01*
X150491789Y-121993018D01*
X150674076Y-121702910D01*
X150822736Y-121394215D01*
X150935897Y-121070817D01*
X151012139Y-120736783D01*
X151050500Y-120396312D01*
X151050500Y-120053688D01*
X151012139Y-119713217D01*
X150935897Y-119379183D01*
X150924089Y-119345438D01*
X150822736Y-119055786D01*
X150822736Y-119055785D01*
X150710660Y-118823057D01*
X150674083Y-118747104D01*
X150674079Y-118747097D01*
X150674076Y-118747090D01*
X150491789Y-118456982D01*
X150278166Y-118189107D01*
X150035893Y-117946834D01*
X149768018Y-117733211D01*
X149477910Y-117550924D01*
X149477902Y-117550920D01*
X149477895Y-117550916D01*
X149169215Y-117402264D01*
X149169213Y-117402263D01*
X148845820Y-117289103D01*
X148511781Y-117212860D01*
X148171313Y-117174500D01*
X148171312Y-117174500D01*
X147828688Y-117174500D01*
X147828686Y-117174500D01*
X147488218Y-117212860D01*
X147154179Y-117289103D01*
X146830786Y-117402263D01*
X146830784Y-117402264D01*
X146522104Y-117550916D01*
X146522091Y-117550923D01*
X146522090Y-117550924D01*
X146437951Y-117603791D01*
X146231981Y-117733211D01*
X145964108Y-117946833D01*
X145721833Y-118189108D01*
X145508211Y-118456981D01*
X145416262Y-118603318D01*
X145353429Y-118703317D01*
X145325923Y-118747092D01*
X145325916Y-118747104D01*
X145177264Y-119055784D01*
X145177263Y-119055786D01*
X145064103Y-119379179D01*
X144987860Y-119713218D01*
X144949500Y-120053686D01*
X123800500Y-120053686D01*
X123800500Y-117960117D01*
X123769976Y-117886426D01*
X123713574Y-117830023D01*
X123713574Y-117830024D01*
X121104496Y-115220946D01*
X121076719Y-115166429D01*
X121075500Y-115150942D01*
X121075500Y-115107148D01*
X121073548Y-115099862D01*
X121053318Y-115024362D01*
X121010465Y-114950138D01*
X120949862Y-114889535D01*
X120875638Y-114846682D01*
X120792853Y-114824500D01*
X120707147Y-114824500D01*
X120624362Y-114846682D01*
X120550138Y-114889535D01*
X120489535Y-114950138D01*
X120446682Y-115024362D01*
X120424500Y-115107147D01*
X118176403Y-115107147D01*
X119326403Y-113957147D01*
X122174500Y-113957147D01*
X122174500Y-114042853D01*
X122196682Y-114125638D01*
X122239535Y-114199862D01*
X122300138Y-114260465D01*
X122374362Y-114303318D01*
X122415623Y-114314373D01*
X122466936Y-114347697D01*
X122485625Y-114384376D01*
X122496680Y-114425634D01*
X122496681Y-114425637D01*
X122496682Y-114425638D01*
X122539535Y-114499862D01*
X122600138Y-114560465D01*
X122674362Y-114603318D01*
X122715623Y-114614373D01*
X122766936Y-114647697D01*
X122785625Y-114684376D01*
X122796680Y-114725634D01*
X122796681Y-114725637D01*
X122796682Y-114725638D01*
X122839535Y-114799862D01*
X122900138Y-114860465D01*
X122974362Y-114903318D01*
X123057147Y-114925500D01*
X123057149Y-114925500D01*
X123142851Y-114925500D01*
X123142853Y-114925500D01*
X123225638Y-114903318D01*
X123299862Y-114860465D01*
X123360465Y-114799862D01*
X123403318Y-114725638D01*
X123425500Y-114642853D01*
X123425500Y-114557147D01*
X123403318Y-114474362D01*
X123360465Y-114400138D01*
X123299862Y-114339535D01*
X123225638Y-114296682D01*
X123225637Y-114296681D01*
X123225634Y-114296680D01*
X123184376Y-114285625D01*
X123133062Y-114252301D01*
X123114373Y-114215622D01*
X123103318Y-114174362D01*
X123060465Y-114100138D01*
X122999862Y-114039535D01*
X122925638Y-113996682D01*
X122925637Y-113996681D01*
X122925634Y-113996680D01*
X122884376Y-113985625D01*
X122833062Y-113952301D01*
X122814373Y-113915622D01*
X122803318Y-113874362D01*
X122760465Y-113800138D01*
X122699862Y-113739535D01*
X122625638Y-113696682D01*
X122542853Y-113674500D01*
X122457147Y-113674500D01*
X122374362Y-113696682D01*
X122300138Y-113739535D01*
X122239535Y-113800138D01*
X122196682Y-113874362D01*
X122174500Y-113957147D01*
X119326403Y-113957147D01*
X121726403Y-111557147D01*
X124174500Y-111557147D01*
X124174500Y-111642853D01*
X124196682Y-111725638D01*
X124239535Y-111799862D01*
X124270505Y-111830832D01*
X124298281Y-111885347D01*
X124299500Y-111900834D01*
X124299500Y-114639882D01*
X124330022Y-114713571D01*
X124330023Y-114713572D01*
X124330024Y-114713574D01*
X126430023Y-116813572D01*
X126430024Y-116813574D01*
X126486426Y-116869976D01*
X126538530Y-116891558D01*
X126538532Y-116891559D01*
X126538533Y-116891559D01*
X126560117Y-116900500D01*
X126560118Y-116900500D01*
X156860118Y-116900500D01*
X157799165Y-116900500D01*
X157857356Y-116919407D01*
X157869168Y-116929495D01*
X157900138Y-116960465D01*
X157974362Y-117003318D01*
X158057147Y-117025500D01*
X158057149Y-117025500D01*
X158142851Y-117025500D01*
X158142853Y-117025500D01*
X158225638Y-117003318D01*
X158299862Y-116960465D01*
X158360465Y-116899862D01*
X158403318Y-116825638D01*
X158425500Y-116742853D01*
X158425500Y-116657147D01*
X158403318Y-116574362D01*
X158360465Y-116500138D01*
X158299862Y-116439535D01*
X158225638Y-116396682D01*
X158142853Y-116374500D01*
X158057147Y-116374500D01*
X157974362Y-116396682D01*
X157900137Y-116439535D01*
X157869168Y-116470505D01*
X157814651Y-116498281D01*
X157799165Y-116499500D01*
X157024058Y-116499500D01*
X156965867Y-116480593D01*
X156954054Y-116470504D01*
X156285810Y-115802260D01*
X155330823Y-114847273D01*
X157399500Y-114847273D01*
X157399500Y-114952727D01*
X157426793Y-115054587D01*
X157426794Y-115054589D01*
X157426794Y-115054590D01*
X157470041Y-115129495D01*
X157479520Y-115145913D01*
X157554087Y-115220480D01*
X157645413Y-115273207D01*
X157747273Y-115300500D01*
X157747275Y-115300500D01*
X157852725Y-115300500D01*
X157852727Y-115300500D01*
X157954587Y-115273207D01*
X158045913Y-115220480D01*
X158120480Y-115145913D01*
X158173207Y-115054587D01*
X158200500Y-114952727D01*
X158200500Y-114847273D01*
X158173207Y-114745413D01*
X158161789Y-114725637D01*
X158120481Y-114654089D01*
X158120480Y-114654087D01*
X158045913Y-114579520D01*
X158038084Y-114575000D01*
X157954589Y-114526794D01*
X157954588Y-114526793D01*
X157954587Y-114526793D01*
X157852727Y-114499500D01*
X157747273Y-114499500D01*
X157645413Y-114526793D01*
X157645412Y-114526793D01*
X157645410Y-114526794D01*
X157645409Y-114526794D01*
X157554089Y-114579518D01*
X157479518Y-114654089D01*
X157426794Y-114745409D01*
X157426794Y-114745410D01*
X157426793Y-114745412D01*
X157426793Y-114745413D01*
X157399500Y-114847273D01*
X155330823Y-114847273D01*
X153913574Y-113430024D01*
X153913572Y-113430023D01*
X153913571Y-113430022D01*
X153839883Y-113399500D01*
X153839882Y-113399500D01*
X152700835Y-113399500D01*
X152642644Y-113380593D01*
X152630832Y-113370505D01*
X152599862Y-113339535D01*
X152525638Y-113296682D01*
X152442853Y-113274500D01*
X152357147Y-113274500D01*
X152274362Y-113296682D01*
X152200138Y-113339535D01*
X152139535Y-113400138D01*
X152096682Y-113474362D01*
X152074500Y-113557147D01*
X152074500Y-113642853D01*
X152096682Y-113725638D01*
X152139535Y-113799862D01*
X152200138Y-113860465D01*
X152274362Y-113903318D01*
X152357147Y-113925500D01*
X152357149Y-113925500D01*
X152442851Y-113925500D01*
X152442853Y-113925500D01*
X152525638Y-113903318D01*
X152599862Y-113860465D01*
X152630832Y-113829495D01*
X152685349Y-113801719D01*
X152700835Y-113800500D01*
X153675942Y-113800500D01*
X153734133Y-113819407D01*
X153745946Y-113829496D01*
X156246946Y-116330496D01*
X156274723Y-116385013D01*
X156265152Y-116445445D01*
X156221887Y-116488710D01*
X156176942Y-116499500D01*
X126724057Y-116499500D01*
X126665866Y-116480593D01*
X126654053Y-116470504D01*
X125514742Y-115331192D01*
X124729496Y-114545946D01*
X124701719Y-114491429D01*
X124700500Y-114475942D01*
X124700500Y-112557971D01*
X127600000Y-112557971D01*
X127600000Y-112892028D01*
X127632743Y-113224481D01*
X127697917Y-113552133D01*
X127794886Y-113871798D01*
X127922726Y-114180431D01*
X127922739Y-114180458D01*
X128080203Y-114475054D01*
X128265802Y-114752821D01*
X128424837Y-114946607D01*
X129527059Y-113844384D01*
X129606112Y-113947407D01*
X129777593Y-114118888D01*
X129880613Y-114197938D01*
X128778391Y-115300161D01*
X128972178Y-115459197D01*
X129249945Y-115644796D01*
X129544541Y-115802260D01*
X129544568Y-115802273D01*
X129853201Y-115930113D01*
X130172866Y-116027082D01*
X130500520Y-116092256D01*
X130500516Y-116092256D01*
X130832972Y-116125000D01*
X131167028Y-116125000D01*
X131499481Y-116092256D01*
X131827133Y-116027082D01*
X132146798Y-115930113D01*
X132455431Y-115802273D01*
X132455458Y-115802260D01*
X132750054Y-115644796D01*
X133027821Y-115459197D01*
X133221607Y-115300161D01*
X132119385Y-114197939D01*
X132222407Y-114118888D01*
X132393888Y-113947407D01*
X132472939Y-113844385D01*
X133575161Y-114946607D01*
X133734197Y-114752821D01*
X133919796Y-114475054D01*
X134077260Y-114180458D01*
X134077273Y-114180431D01*
X134205113Y-113871798D01*
X134302082Y-113552133D01*
X134367256Y-113224481D01*
X134400000Y-112892028D01*
X134400000Y-112557971D01*
X134367256Y-112225518D01*
X134302082Y-111897866D01*
X134205113Y-111578201D01*
X134077273Y-111269568D01*
X134077260Y-111269541D01*
X133919796Y-110974945D01*
X133734197Y-110697178D01*
X133575161Y-110503391D01*
X132472938Y-111605613D01*
X132393888Y-111502593D01*
X132222407Y-111331112D01*
X132119384Y-111252059D01*
X133221607Y-110149837D01*
X133027821Y-109990802D01*
X132750054Y-109805203D01*
X132455458Y-109647739D01*
X132455431Y-109647726D01*
X132146798Y-109519886D01*
X131827133Y-109422917D01*
X131499479Y-109357743D01*
X131499483Y-109357743D01*
X131167028Y-109325000D01*
X130832972Y-109325000D01*
X130500518Y-109357743D01*
X130172866Y-109422917D01*
X129853201Y-109519886D01*
X129544568Y-109647726D01*
X129544541Y-109647739D01*
X129249945Y-109805203D01*
X128972178Y-109990802D01*
X128778391Y-110149837D01*
X129880614Y-111252060D01*
X129777593Y-111331112D01*
X129606112Y-111502593D01*
X129527060Y-111605614D01*
X128424837Y-110503391D01*
X128265802Y-110697178D01*
X128080203Y-110974945D01*
X127922739Y-111269541D01*
X127922726Y-111269568D01*
X127794886Y-111578201D01*
X127697917Y-111897866D01*
X127632743Y-112225518D01*
X127600000Y-112557971D01*
X124700500Y-112557971D01*
X124700500Y-111900834D01*
X124719407Y-111842643D01*
X124729490Y-111830836D01*
X124760465Y-111799862D01*
X124803318Y-111725638D01*
X124825500Y-111642853D01*
X124825500Y-111557147D01*
X124803318Y-111474362D01*
X124760465Y-111400138D01*
X124699862Y-111339535D01*
X124625638Y-111296682D01*
X124542853Y-111274500D01*
X124457147Y-111274500D01*
X124374362Y-111296682D01*
X124300138Y-111339535D01*
X124239535Y-111400138D01*
X124196682Y-111474362D01*
X124174500Y-111557147D01*
X121726403Y-111557147D01*
X124329054Y-108954496D01*
X124383571Y-108926719D01*
X124399058Y-108925500D01*
X124442851Y-108925500D01*
X124442853Y-108925500D01*
X124525638Y-108903318D01*
X124599862Y-108860465D01*
X124660465Y-108799862D01*
X124703318Y-108725638D01*
X124725500Y-108642853D01*
X124725500Y-108557147D01*
X124703318Y-108474362D01*
X124660465Y-108400138D01*
X124599862Y-108339535D01*
X124525638Y-108296682D01*
X124442853Y-108274500D01*
X124357147Y-108274500D01*
X124274362Y-108296682D01*
X124200138Y-108339535D01*
X124139535Y-108400138D01*
X124096682Y-108474362D01*
X124074500Y-108557148D01*
X124074500Y-108600942D01*
X124055593Y-108659133D01*
X124045504Y-108670946D01*
X116245946Y-116470504D01*
X116191429Y-116498281D01*
X116175942Y-116499500D01*
X113823057Y-116499500D01*
X113764866Y-116480593D01*
X113728902Y-116431093D01*
X113728902Y-116369907D01*
X113753051Y-116330498D01*
X114469976Y-115613574D01*
X114500500Y-115539882D01*
X114500500Y-115460118D01*
X114500500Y-112524057D01*
X114519407Y-112465866D01*
X114529490Y-112454059D01*
X116769976Y-110213574D01*
X116800500Y-110139882D01*
X116800500Y-110060118D01*
X116800500Y-109260118D01*
X116796366Y-109250138D01*
X116769977Y-109186428D01*
X116769976Y-109186427D01*
X116769976Y-109186426D01*
X116713574Y-109130024D01*
X116713572Y-109130023D01*
X116707930Y-109124380D01*
X116707926Y-109124377D01*
X116313573Y-108730023D01*
X116239883Y-108699500D01*
X116239882Y-108699500D01*
X114124058Y-108699500D01*
X114116460Y-108697031D01*
X114108571Y-108698281D01*
X114087915Y-108687756D01*
X114065867Y-108680593D01*
X114054054Y-108670504D01*
X113990033Y-108606483D01*
X113962256Y-108551966D01*
X113971827Y-108491534D01*
X114015092Y-108448269D01*
X114049656Y-108439971D01*
X114049440Y-108438326D01*
X114055871Y-108437479D01*
X114055874Y-108437479D01*
X114138659Y-108415297D01*
X114212883Y-108372444D01*
X114273486Y-108311841D01*
X114316339Y-108237617D01*
X114338521Y-108154832D01*
X114338521Y-108111037D01*
X114340989Y-108103439D01*
X114339740Y-108095550D01*
X114350264Y-108074894D01*
X114357428Y-108052846D01*
X114367517Y-108041033D01*
X114379054Y-108029496D01*
X114433571Y-108001719D01*
X114449058Y-108000500D01*
X121925588Y-108000500D01*
X121983779Y-108019407D01*
X122019743Y-108068907D01*
X122019743Y-108130093D01*
X122011325Y-108148999D01*
X121996682Y-108174360D01*
X121988923Y-108203318D01*
X121974500Y-108257147D01*
X121974500Y-108342853D01*
X121996682Y-108425638D01*
X122039535Y-108499862D01*
X122100138Y-108560465D01*
X122174362Y-108603318D01*
X122257147Y-108625500D01*
X122257149Y-108625500D01*
X122342851Y-108625500D01*
X122342853Y-108625500D01*
X122425638Y-108603318D01*
X122499862Y-108560465D01*
X122530832Y-108529495D01*
X122585349Y-108501719D01*
X122600835Y-108500500D01*
X123039883Y-108500500D01*
X123102985Y-108474362D01*
X123113574Y-108469976D01*
X127626403Y-103957147D01*
X128574500Y-103957147D01*
X128574500Y-104042853D01*
X128596682Y-104125638D01*
X128639535Y-104199862D01*
X128700138Y-104260465D01*
X128774362Y-104303318D01*
X128857147Y-104325500D01*
X128857149Y-104325500D01*
X128942851Y-104325500D01*
X128942853Y-104325500D01*
X129025638Y-104303318D01*
X129099862Y-104260465D01*
X129130832Y-104229495D01*
X129185349Y-104201719D01*
X129200835Y-104200500D01*
X134775942Y-104200500D01*
X134834133Y-104219407D01*
X134845946Y-104229496D01*
X145630024Y-115013574D01*
X145630023Y-115013574D01*
X145686426Y-115069976D01*
X145760117Y-115100500D01*
X145760118Y-115100500D01*
X151999165Y-115100500D01*
X152057356Y-115119407D01*
X152069168Y-115129495D01*
X152100138Y-115160465D01*
X152174362Y-115203318D01*
X152257147Y-115225500D01*
X152257149Y-115225500D01*
X152342851Y-115225500D01*
X152342853Y-115225500D01*
X152425638Y-115203318D01*
X152499862Y-115160465D01*
X152560465Y-115099862D01*
X152603318Y-115025638D01*
X152625500Y-114942853D01*
X152625500Y-114857147D01*
X152603318Y-114774362D01*
X152560465Y-114700138D01*
X152499862Y-114639535D01*
X152425638Y-114596682D01*
X152342853Y-114574500D01*
X152257147Y-114574500D01*
X152174362Y-114596682D01*
X152100137Y-114639535D01*
X152069168Y-114670505D01*
X152014651Y-114698281D01*
X151999165Y-114699500D01*
X145924058Y-114699500D01*
X145865867Y-114680593D01*
X145854054Y-114670504D01*
X143204212Y-112020662D01*
X143140697Y-111957147D01*
X149674500Y-111957147D01*
X149674500Y-112042853D01*
X149696682Y-112125638D01*
X149739535Y-112199862D01*
X149800138Y-112260465D01*
X149874362Y-112303318D01*
X149957147Y-112325500D01*
X149957149Y-112325500D01*
X150042851Y-112325500D01*
X150042853Y-112325500D01*
X150125638Y-112303318D01*
X150199862Y-112260465D01*
X150199864Y-112260462D01*
X150200499Y-112260096D01*
X150260348Y-112247374D01*
X150299501Y-112260096D01*
X150300135Y-112260462D01*
X150300138Y-112260465D01*
X150374362Y-112303318D01*
X150457147Y-112325500D01*
X150457149Y-112325500D01*
X150542851Y-112325500D01*
X150542853Y-112325500D01*
X150625638Y-112303318D01*
X150699862Y-112260465D01*
X150699864Y-112260462D01*
X150700499Y-112260096D01*
X150760348Y-112247374D01*
X150799501Y-112260096D01*
X150800135Y-112260462D01*
X150800138Y-112260465D01*
X150874362Y-112303318D01*
X150957147Y-112325500D01*
X150957149Y-112325500D01*
X151042851Y-112325500D01*
X151042853Y-112325500D01*
X151125638Y-112303318D01*
X151199862Y-112260465D01*
X151260465Y-112199862D01*
X151303318Y-112125638D01*
X151325500Y-112042853D01*
X151325500Y-111957147D01*
X151303318Y-111874362D01*
X151260465Y-111800138D01*
X151199862Y-111739535D01*
X151125638Y-111696682D01*
X151042853Y-111674500D01*
X150957147Y-111674500D01*
X150874362Y-111696682D01*
X150800138Y-111739535D01*
X150800136Y-111739536D01*
X150799500Y-111739904D01*
X150739651Y-111752625D01*
X150700500Y-111739904D01*
X150699863Y-111739536D01*
X150699862Y-111739535D01*
X150625638Y-111696682D01*
X150542853Y-111674500D01*
X150457147Y-111674500D01*
X150374362Y-111696682D01*
X150300138Y-111739535D01*
X150300136Y-111739536D01*
X150299500Y-111739904D01*
X150239651Y-111752625D01*
X150200500Y-111739904D01*
X150199863Y-111739536D01*
X150199862Y-111739535D01*
X150125638Y-111696682D01*
X150042853Y-111674500D01*
X149957147Y-111674500D01*
X149874362Y-111696682D01*
X149800138Y-111739535D01*
X149739535Y-111800138D01*
X149696682Y-111874362D01*
X149674500Y-111957147D01*
X143140697Y-111957147D01*
X141906607Y-110723057D01*
X140540697Y-109357147D01*
X155674500Y-109357147D01*
X155674500Y-109442853D01*
X155696682Y-109525638D01*
X155739535Y-109599862D01*
X155800138Y-109660465D01*
X155874362Y-109703318D01*
X155957147Y-109725500D01*
X155957149Y-109725500D01*
X156042851Y-109725500D01*
X156042853Y-109725500D01*
X156125638Y-109703318D01*
X156199862Y-109660465D01*
X156260465Y-109599862D01*
X156303318Y-109525638D01*
X156325500Y-109442853D01*
X156325500Y-109357147D01*
X156303318Y-109274362D01*
X156260465Y-109200138D01*
X156199862Y-109139535D01*
X156125638Y-109096682D01*
X156042853Y-109074500D01*
X155957147Y-109074500D01*
X155874362Y-109096682D01*
X155800138Y-109139535D01*
X155739535Y-109200138D01*
X155696682Y-109274362D01*
X155674500Y-109357147D01*
X140540697Y-109357147D01*
X139640697Y-108457147D01*
X155674500Y-108457147D01*
X155674500Y-108542853D01*
X155696682Y-108625638D01*
X155739535Y-108699862D01*
X155800138Y-108760465D01*
X155874362Y-108803318D01*
X155957147Y-108825500D01*
X155957149Y-108825500D01*
X156042851Y-108825500D01*
X156042853Y-108825500D01*
X156125638Y-108803318D01*
X156199862Y-108760465D01*
X156260465Y-108699862D01*
X156303318Y-108625638D01*
X156325500Y-108542853D01*
X156325500Y-108457147D01*
X156303318Y-108374362D01*
X156260465Y-108300138D01*
X156199862Y-108239535D01*
X156125638Y-108196682D01*
X156042853Y-108174500D01*
X155957147Y-108174500D01*
X155874362Y-108196682D01*
X155800138Y-108239535D01*
X155739535Y-108300138D01*
X155696682Y-108374362D01*
X155674500Y-108457147D01*
X139640697Y-108457147D01*
X139140697Y-107957147D01*
X144674500Y-107957147D01*
X144674500Y-108042853D01*
X144696682Y-108125638D01*
X144739535Y-108199862D01*
X144800138Y-108260465D01*
X144874362Y-108303318D01*
X144957147Y-108325500D01*
X144957149Y-108325500D01*
X145042851Y-108325500D01*
X145042853Y-108325500D01*
X145125638Y-108303318D01*
X145199862Y-108260465D01*
X145260465Y-108199862D01*
X145303318Y-108125638D01*
X145325500Y-108042853D01*
X145325500Y-107957147D01*
X145303318Y-107874362D01*
X145293379Y-107857147D01*
X156674500Y-107857147D01*
X156674500Y-107942853D01*
X156696682Y-108025638D01*
X156739535Y-108099862D01*
X156800138Y-108160465D01*
X156874362Y-108203318D01*
X156957147Y-108225500D01*
X156957149Y-108225500D01*
X157042851Y-108225500D01*
X157042853Y-108225500D01*
X157125638Y-108203318D01*
X157199862Y-108160465D01*
X157260465Y-108099862D01*
X157303318Y-108025638D01*
X157325500Y-107942853D01*
X157325500Y-107857147D01*
X157303318Y-107774362D01*
X157260465Y-107700138D01*
X157199862Y-107639535D01*
X157125638Y-107596682D01*
X157042853Y-107574500D01*
X156957147Y-107574500D01*
X156874362Y-107596682D01*
X156800138Y-107639535D01*
X156739535Y-107700138D01*
X156696682Y-107774362D01*
X156674500Y-107857147D01*
X145293379Y-107857147D01*
X145260465Y-107800138D01*
X145199862Y-107739535D01*
X145125638Y-107696682D01*
X145042853Y-107674500D01*
X144957147Y-107674500D01*
X144874362Y-107696682D01*
X144800138Y-107739535D01*
X144739535Y-107800138D01*
X144696682Y-107874362D01*
X144674500Y-107957147D01*
X139140697Y-107957147D01*
X138240697Y-107057147D01*
X144674500Y-107057147D01*
X144674500Y-107142853D01*
X144696682Y-107225638D01*
X144739535Y-107299862D01*
X144800138Y-107360465D01*
X144874362Y-107403318D01*
X144957147Y-107425500D01*
X144957149Y-107425500D01*
X145042851Y-107425500D01*
X145042853Y-107425500D01*
X145125638Y-107403318D01*
X145199862Y-107360465D01*
X145260465Y-107299862D01*
X145303318Y-107225638D01*
X145325500Y-107142853D01*
X145325500Y-107057147D01*
X145303318Y-106974362D01*
X145260465Y-106900138D01*
X145199862Y-106839535D01*
X145199859Y-106839533D01*
X145194425Y-106836395D01*
X145194423Y-106836395D01*
X145125638Y-106796682D01*
X145042853Y-106774500D01*
X144957147Y-106774500D01*
X144874362Y-106796682D01*
X144800138Y-106839535D01*
X144739535Y-106900138D01*
X144696682Y-106974362D01*
X144674500Y-107057147D01*
X138240697Y-107057147D01*
X137940697Y-106757147D01*
X145674500Y-106757147D01*
X145674500Y-106842853D01*
X145696682Y-106925638D01*
X145739535Y-106999862D01*
X145800138Y-107060465D01*
X145874362Y-107103318D01*
X145957147Y-107125500D01*
X145957149Y-107125500D01*
X146042851Y-107125500D01*
X146042853Y-107125500D01*
X146125638Y-107103318D01*
X146199862Y-107060465D01*
X146260465Y-106999862D01*
X146285126Y-106957147D01*
X156674500Y-106957147D01*
X156674500Y-107042853D01*
X156696682Y-107125638D01*
X156739535Y-107199862D01*
X156800138Y-107260465D01*
X156874362Y-107303318D01*
X156957147Y-107325500D01*
X156957149Y-107325500D01*
X157042851Y-107325500D01*
X157042853Y-107325500D01*
X157125638Y-107303318D01*
X157199862Y-107260465D01*
X157260465Y-107199862D01*
X157303318Y-107125638D01*
X157325500Y-107042853D01*
X157325500Y-106957147D01*
X157303318Y-106874362D01*
X157260465Y-106800138D01*
X157199862Y-106739535D01*
X157125638Y-106696682D01*
X157042853Y-106674500D01*
X156957147Y-106674500D01*
X156874362Y-106696682D01*
X156800138Y-106739535D01*
X156739535Y-106800138D01*
X156696682Y-106874362D01*
X156674500Y-106957147D01*
X146285126Y-106957147D01*
X146303318Y-106925638D01*
X146325500Y-106842853D01*
X146325500Y-106757147D01*
X146303318Y-106674362D01*
X146260465Y-106600138D01*
X146199862Y-106539535D01*
X146125638Y-106496682D01*
X146042853Y-106474500D01*
X145957147Y-106474500D01*
X145874362Y-106496682D01*
X145800138Y-106539535D01*
X145739535Y-106600138D01*
X145696682Y-106674362D01*
X145674500Y-106757147D01*
X137940697Y-106757147D01*
X137540697Y-106357147D01*
X155674500Y-106357147D01*
X155674500Y-106442853D01*
X155696682Y-106525638D01*
X155739535Y-106599862D01*
X155800138Y-106660465D01*
X155874362Y-106703318D01*
X155957147Y-106725500D01*
X155957149Y-106725500D01*
X156042851Y-106725500D01*
X156042853Y-106725500D01*
X156125638Y-106703318D01*
X156199862Y-106660465D01*
X156260465Y-106599862D01*
X156303318Y-106525638D01*
X156325500Y-106442853D01*
X156325500Y-106357147D01*
X156303318Y-106274362D01*
X156260465Y-106200138D01*
X156199862Y-106139535D01*
X156125638Y-106096682D01*
X156042853Y-106074500D01*
X155957147Y-106074500D01*
X155874362Y-106096682D01*
X155800138Y-106139535D01*
X155739535Y-106200138D01*
X155696682Y-106274362D01*
X155674500Y-106357147D01*
X137540697Y-106357147D01*
X136740697Y-105557147D01*
X144674500Y-105557147D01*
X144674500Y-105642853D01*
X144696682Y-105725638D01*
X144739535Y-105799862D01*
X144800138Y-105860465D01*
X144874362Y-105903318D01*
X144957147Y-105925500D01*
X144957149Y-105925500D01*
X145042851Y-105925500D01*
X145042853Y-105925500D01*
X145125638Y-105903318D01*
X145199862Y-105860465D01*
X145203180Y-105857147D01*
X145674500Y-105857147D01*
X145674500Y-105942853D01*
X145696682Y-106025638D01*
X145739535Y-106099862D01*
X145800138Y-106160465D01*
X145874362Y-106203318D01*
X145957147Y-106225500D01*
X145957149Y-106225500D01*
X146042851Y-106225500D01*
X146042853Y-106225500D01*
X146125638Y-106203318D01*
X146199862Y-106160465D01*
X146260465Y-106099862D01*
X146303318Y-106025638D01*
X146325500Y-105942853D01*
X146325500Y-105857147D01*
X146303318Y-105774362D01*
X146260465Y-105700138D01*
X146199862Y-105639535D01*
X146125638Y-105596682D01*
X146042853Y-105574500D01*
X145957147Y-105574500D01*
X145874362Y-105596682D01*
X145800138Y-105639535D01*
X145739535Y-105700138D01*
X145696682Y-105774362D01*
X145674500Y-105857147D01*
X145203180Y-105857147D01*
X145260465Y-105799862D01*
X145303318Y-105725638D01*
X145325500Y-105642853D01*
X145325500Y-105557147D01*
X145303318Y-105474362D01*
X145293379Y-105457147D01*
X155674500Y-105457147D01*
X155674500Y-105542853D01*
X155696682Y-105625638D01*
X155739535Y-105699862D01*
X155800138Y-105760465D01*
X155874362Y-105803318D01*
X155957147Y-105825500D01*
X155957149Y-105825500D01*
X156042851Y-105825500D01*
X156042853Y-105825500D01*
X156125638Y-105803318D01*
X156199862Y-105760465D01*
X156260465Y-105699862D01*
X156303318Y-105625638D01*
X156325500Y-105542853D01*
X156325500Y-105457147D01*
X156303318Y-105374362D01*
X156260465Y-105300138D01*
X156199862Y-105239535D01*
X156125638Y-105196682D01*
X156042853Y-105174500D01*
X155957147Y-105174500D01*
X155874362Y-105196682D01*
X155800138Y-105239535D01*
X155739535Y-105300138D01*
X155696682Y-105374362D01*
X155674500Y-105457147D01*
X145293379Y-105457147D01*
X145260465Y-105400138D01*
X145199862Y-105339535D01*
X145125638Y-105296682D01*
X145042853Y-105274500D01*
X144957147Y-105274500D01*
X144874362Y-105296682D01*
X144800138Y-105339535D01*
X144739535Y-105400138D01*
X144696682Y-105474362D01*
X144674500Y-105557147D01*
X136740697Y-105557147D01*
X135840697Y-104657147D01*
X144674500Y-104657147D01*
X144674500Y-104742853D01*
X144696682Y-104825638D01*
X144739535Y-104899862D01*
X144800138Y-104960465D01*
X144874362Y-105003318D01*
X144957147Y-105025500D01*
X144957149Y-105025500D01*
X145042851Y-105025500D01*
X145042853Y-105025500D01*
X145125638Y-105003318D01*
X145199862Y-104960465D01*
X145260465Y-104899862D01*
X145285126Y-104857147D01*
X156674500Y-104857147D01*
X156674500Y-104942853D01*
X156696682Y-105025638D01*
X156739535Y-105099862D01*
X156800138Y-105160465D01*
X156874362Y-105203318D01*
X156957147Y-105225500D01*
X156957149Y-105225500D01*
X157042851Y-105225500D01*
X157042853Y-105225500D01*
X157125638Y-105203318D01*
X157199862Y-105160465D01*
X157260465Y-105099862D01*
X157303318Y-105025638D01*
X157325500Y-104942853D01*
X157325500Y-104857147D01*
X157303318Y-104774362D01*
X157260465Y-104700138D01*
X157199862Y-104639535D01*
X157125638Y-104596682D01*
X157042853Y-104574500D01*
X156957147Y-104574500D01*
X156874362Y-104596682D01*
X156800138Y-104639535D01*
X156739535Y-104700138D01*
X156696682Y-104774362D01*
X156674500Y-104857147D01*
X145285126Y-104857147D01*
X145303318Y-104825638D01*
X145325500Y-104742853D01*
X145325500Y-104657147D01*
X145303318Y-104574362D01*
X145260465Y-104500138D01*
X145199862Y-104439535D01*
X145199859Y-104439533D01*
X145194425Y-104436395D01*
X145194423Y-104436395D01*
X145125638Y-104396682D01*
X145042853Y-104374500D01*
X144957147Y-104374500D01*
X144874362Y-104396682D01*
X144800138Y-104439535D01*
X144739535Y-104500138D01*
X144696682Y-104574362D01*
X144674500Y-104657147D01*
X135840697Y-104657147D01*
X135540697Y-104357147D01*
X145674500Y-104357147D01*
X145674500Y-104442853D01*
X145696682Y-104525638D01*
X145739535Y-104599862D01*
X145800138Y-104660465D01*
X145874362Y-104703318D01*
X145957147Y-104725500D01*
X145957149Y-104725500D01*
X146042851Y-104725500D01*
X146042853Y-104725500D01*
X146125638Y-104703318D01*
X146199862Y-104660465D01*
X146260465Y-104599862D01*
X146303318Y-104525638D01*
X146325500Y-104442853D01*
X146325500Y-104357147D01*
X146303318Y-104274362D01*
X146260465Y-104200138D01*
X146199862Y-104139535D01*
X146125638Y-104096682D01*
X146042853Y-104074500D01*
X145957147Y-104074500D01*
X145874362Y-104096682D01*
X145800138Y-104139535D01*
X145739535Y-104200138D01*
X145696682Y-104274362D01*
X145674500Y-104357147D01*
X135540697Y-104357147D01*
X135140697Y-103957147D01*
X156674500Y-103957147D01*
X156674500Y-104042853D01*
X156696682Y-104125638D01*
X156739535Y-104199862D01*
X156800138Y-104260465D01*
X156874362Y-104303318D01*
X156957147Y-104325500D01*
X156957149Y-104325500D01*
X157042851Y-104325500D01*
X157042853Y-104325500D01*
X157125638Y-104303318D01*
X157199862Y-104260465D01*
X157260465Y-104199862D01*
X157303318Y-104125638D01*
X157325500Y-104042853D01*
X157325500Y-103957147D01*
X157303318Y-103874362D01*
X157260465Y-103800138D01*
X157199862Y-103739535D01*
X157125638Y-103696682D01*
X157042853Y-103674500D01*
X156957147Y-103674500D01*
X156874362Y-103696682D01*
X156800138Y-103739535D01*
X156739535Y-103800138D01*
X156696682Y-103874362D01*
X156674500Y-103957147D01*
X135140697Y-103957147D01*
X135013574Y-103830024D01*
X135013572Y-103830023D01*
X135013571Y-103830022D01*
X134939883Y-103799500D01*
X134939882Y-103799500D01*
X129200835Y-103799500D01*
X129142644Y-103780593D01*
X129130832Y-103770505D01*
X129099862Y-103739535D01*
X129025638Y-103696682D01*
X128942853Y-103674500D01*
X128857147Y-103674500D01*
X128774362Y-103696682D01*
X128700138Y-103739535D01*
X128639535Y-103800138D01*
X128596682Y-103874362D01*
X128574500Y-103957147D01*
X127626403Y-103957147D01*
X128126403Y-103457147D01*
X145674500Y-103457147D01*
X145674500Y-103542853D01*
X145696682Y-103625638D01*
X145739535Y-103699862D01*
X145800138Y-103760465D01*
X145874362Y-103803318D01*
X145957147Y-103825500D01*
X145957149Y-103825500D01*
X146042851Y-103825500D01*
X146042853Y-103825500D01*
X146125638Y-103803318D01*
X146199862Y-103760465D01*
X146260465Y-103699862D01*
X146303318Y-103625638D01*
X146325500Y-103542853D01*
X146325500Y-103457147D01*
X146303318Y-103374362D01*
X146260465Y-103300138D01*
X146199862Y-103239535D01*
X146125638Y-103196682D01*
X146042853Y-103174500D01*
X145957147Y-103174500D01*
X145874362Y-103196682D01*
X145800138Y-103239535D01*
X145739535Y-103300138D01*
X145696682Y-103374362D01*
X145674500Y-103457147D01*
X128126403Y-103457147D01*
X128826403Y-102757147D01*
X144374500Y-102757147D01*
X144374500Y-102842853D01*
X144396682Y-102925638D01*
X144439535Y-102999862D01*
X144500138Y-103060465D01*
X144574362Y-103103318D01*
X144657147Y-103125500D01*
X144657149Y-103125500D01*
X144742851Y-103125500D01*
X144742853Y-103125500D01*
X144825638Y-103103318D01*
X144899862Y-103060465D01*
X144960465Y-102999862D01*
X145003318Y-102925638D01*
X145025500Y-102842853D01*
X145025500Y-102757147D01*
X145003318Y-102674362D01*
X144960465Y-102600138D01*
X144899862Y-102539535D01*
X144825638Y-102496682D01*
X144742853Y-102474500D01*
X144657147Y-102474500D01*
X144574362Y-102496682D01*
X144500138Y-102539535D01*
X144439535Y-102600138D01*
X144396682Y-102674362D01*
X144374500Y-102757147D01*
X128826403Y-102757147D01*
X130054054Y-101529496D01*
X130108571Y-101501719D01*
X130124058Y-101500500D01*
X143954544Y-101500500D01*
X144012735Y-101519407D01*
X144048699Y-101568907D01*
X144048699Y-101630093D01*
X144012735Y-101679593D01*
X143980169Y-101695126D01*
X143974362Y-101696682D01*
X143900138Y-101739535D01*
X143839535Y-101800138D01*
X143796682Y-101874362D01*
X143774500Y-101957147D01*
X143774500Y-102042853D01*
X143796682Y-102125638D01*
X143839535Y-102199862D01*
X143900138Y-102260465D01*
X143974362Y-102303318D01*
X144057147Y-102325500D01*
X144057149Y-102325500D01*
X144142851Y-102325500D01*
X144142853Y-102325500D01*
X144225638Y-102303318D01*
X144299862Y-102260465D01*
X144360465Y-102199862D01*
X144403318Y-102125638D01*
X144425500Y-102042853D01*
X144425500Y-101957147D01*
X144403318Y-101874362D01*
X144360465Y-101800138D01*
X144299862Y-101739535D01*
X144225638Y-101696682D01*
X144219831Y-101695126D01*
X144168518Y-101661802D01*
X144146592Y-101604681D01*
X144162428Y-101545580D01*
X144209978Y-101507075D01*
X144245456Y-101500500D01*
X153539883Y-101500500D01*
X153602652Y-101474500D01*
X153613574Y-101469976D01*
X156669976Y-98413574D01*
X156700500Y-98339882D01*
X156700500Y-98260118D01*
X156700500Y-96907147D01*
X159374500Y-96907147D01*
X159374500Y-96992853D01*
X159396682Y-97075638D01*
X159439535Y-97149862D01*
X159500138Y-97210465D01*
X159574362Y-97253318D01*
X159657147Y-97275500D01*
X159657149Y-97275500D01*
X159742851Y-97275500D01*
X159742853Y-97275500D01*
X159825638Y-97253318D01*
X159899862Y-97210465D01*
X159960465Y-97149862D01*
X160003318Y-97075638D01*
X160025500Y-96992853D01*
X160025500Y-96907147D01*
X160003318Y-96824362D01*
X159960465Y-96750138D01*
X159899862Y-96689535D01*
X159825638Y-96646682D01*
X159742853Y-96624500D01*
X159657147Y-96624500D01*
X159574362Y-96646682D01*
X159500138Y-96689535D01*
X159439535Y-96750138D01*
X159396682Y-96824362D01*
X159374500Y-96907147D01*
X156700500Y-96907147D01*
X156700500Y-96000834D01*
X156719407Y-95942643D01*
X156729490Y-95930836D01*
X156760465Y-95899862D01*
X156803318Y-95825638D01*
X156825500Y-95742853D01*
X156825500Y-95657147D01*
X156803318Y-95574362D01*
X156760465Y-95500138D01*
X156699862Y-95439535D01*
X156625638Y-95396682D01*
X156542853Y-95374500D01*
X156457147Y-95374500D01*
X156415754Y-95385591D01*
X156374360Y-95396682D01*
X156366347Y-95401309D01*
X156306498Y-95414027D01*
X156250604Y-95389138D01*
X156221225Y-95341194D01*
X156203318Y-95274362D01*
X156160465Y-95200138D01*
X156099862Y-95139535D01*
X156025638Y-95096682D01*
X155942853Y-95074500D01*
X155857147Y-95074500D01*
X155774362Y-95096682D01*
X155700138Y-95139535D01*
X155639535Y-95200138D01*
X155596682Y-95274362D01*
X155574500Y-95357147D01*
X155574500Y-95442853D01*
X155596682Y-95525638D01*
X155639535Y-95599862D01*
X155670505Y-95630832D01*
X155698281Y-95685347D01*
X155699500Y-95700834D01*
X155699500Y-97358083D01*
X155680593Y-97416274D01*
X155631093Y-97452238D01*
X155569907Y-97452238D01*
X155520407Y-97416274D01*
X155514765Y-97407585D01*
X155510466Y-97400140D01*
X155510465Y-97400138D01*
X155449862Y-97339535D01*
X155375638Y-97296682D01*
X155375637Y-97296681D01*
X155375634Y-97296680D01*
X155352106Y-97290376D01*
X155300792Y-97257052D01*
X155278866Y-97199930D01*
X155291993Y-97145252D01*
X155303318Y-97125638D01*
X155325500Y-97042853D01*
X155325500Y-96957147D01*
X155303318Y-96874362D01*
X155260465Y-96800138D01*
X155199862Y-96739535D01*
X155125638Y-96696682D01*
X155042853Y-96674500D01*
X154957147Y-96674500D01*
X154874362Y-96696682D01*
X154800138Y-96739535D01*
X154739535Y-96800138D01*
X154696682Y-96874362D01*
X154684451Y-96920011D01*
X154674500Y-96957148D01*
X154674500Y-97000942D01*
X154655593Y-97059133D01*
X154645504Y-97070946D01*
X152345946Y-99370504D01*
X152291429Y-99398281D01*
X152275942Y-99399500D01*
X129139882Y-99399500D01*
X129060117Y-99399500D01*
X129038533Y-99408440D01*
X129012479Y-99419232D01*
X128986425Y-99430024D01*
X128930023Y-99486425D01*
X128930024Y-99486426D01*
X124145946Y-104270504D01*
X124091429Y-104298281D01*
X124075942Y-104299500D01*
X121474412Y-104299500D01*
X121416221Y-104280593D01*
X121380257Y-104231093D01*
X121380257Y-104169907D01*
X121388675Y-104151001D01*
X121395295Y-104139535D01*
X121403318Y-104125638D01*
X121425500Y-104042853D01*
X121425500Y-103957147D01*
X121403318Y-103874362D01*
X121360465Y-103800138D01*
X121299862Y-103739535D01*
X121225638Y-103696682D01*
X121142853Y-103674500D01*
X121057147Y-103674500D01*
X120974362Y-103696682D01*
X120900138Y-103739535D01*
X120839535Y-103800138D01*
X120796682Y-103874362D01*
X120775211Y-103954496D01*
X120774500Y-103957148D01*
X120774500Y-104042852D01*
X120778306Y-104057057D01*
X120775103Y-104118158D01*
X120736598Y-104165708D01*
X120677497Y-104181543D01*
X120657057Y-104178306D01*
X120642853Y-104174500D01*
X120557147Y-104174500D01*
X120474362Y-104196682D01*
X120400138Y-104239535D01*
X120339535Y-104300138D01*
X120296682Y-104374362D01*
X120274500Y-104457147D01*
X120274500Y-104542853D01*
X120296682Y-104625638D01*
X120339535Y-104699862D01*
X120400138Y-104760465D01*
X120474362Y-104803318D01*
X120557147Y-104825500D01*
X120557149Y-104825500D01*
X120642851Y-104825500D01*
X120642853Y-104825500D01*
X120649876Y-104823618D01*
X120710976Y-104826818D01*
X120758527Y-104865322D01*
X120774500Y-104919244D01*
X120774500Y-104967853D01*
X120796682Y-105050638D01*
X120839535Y-105124862D01*
X120845171Y-105130498D01*
X120872947Y-105185013D01*
X120863376Y-105245445D01*
X120820111Y-105288710D01*
X120775166Y-105299500D01*
X120124058Y-105299500D01*
X120065867Y-105280593D01*
X120054054Y-105270504D01*
X118454496Y-103670946D01*
X118426719Y-103616429D01*
X118425500Y-103600942D01*
X118425500Y-103557148D01*
X118424474Y-103553318D01*
X118403318Y-103474362D01*
X118360465Y-103400138D01*
X118299862Y-103339535D01*
X118225638Y-103296682D01*
X118225635Y-103296681D01*
X118224157Y-103296285D01*
X118224156Y-103296285D01*
X118142853Y-103274500D01*
X118057147Y-103274500D01*
X117974362Y-103296682D01*
X117900138Y-103339535D01*
X117839535Y-103400138D01*
X117796682Y-103474362D01*
X117774500Y-103557147D01*
X117774500Y-103642853D01*
X117796682Y-103725638D01*
X117839535Y-103799862D01*
X117900138Y-103860465D01*
X117974362Y-103903318D01*
X118057147Y-103925500D01*
X118100942Y-103925500D01*
X118159133Y-103944407D01*
X118170946Y-103954496D01*
X119830024Y-105613574D01*
X119830023Y-105613574D01*
X119886426Y-105669976D01*
X119960117Y-105700500D01*
X119960118Y-105700500D01*
X121200166Y-105700500D01*
X121258357Y-105719407D01*
X121294321Y-105768907D01*
X121294321Y-105830093D01*
X121270171Y-105869501D01*
X121239535Y-105900138D01*
X121196682Y-105974362D01*
X121174500Y-106057147D01*
X121174500Y-106142853D01*
X121196682Y-106225638D01*
X121239535Y-106299862D01*
X121300138Y-106360465D01*
X121374362Y-106403318D01*
X121457147Y-106425500D01*
X121457149Y-106425500D01*
X121542851Y-106425500D01*
X121542853Y-106425500D01*
X121625638Y-106403318D01*
X121699862Y-106360465D01*
X121760465Y-106299862D01*
X121803318Y-106225638D01*
X121825500Y-106142853D01*
X121825500Y-106057147D01*
X121803318Y-105974362D01*
X121760465Y-105900138D01*
X121760463Y-105900136D01*
X121760462Y-105900134D01*
X121757615Y-105896424D01*
X121737192Y-105838748D01*
X121754571Y-105780082D01*
X121803113Y-105742836D01*
X121864277Y-105741235D01*
X121896424Y-105757615D01*
X121900134Y-105760462D01*
X121900136Y-105760463D01*
X121900138Y-105760465D01*
X121974362Y-105803318D01*
X122057147Y-105825500D01*
X122057149Y-105825500D01*
X122142851Y-105825500D01*
X122142853Y-105825500D01*
X122225638Y-105803318D01*
X122299862Y-105760465D01*
X122360465Y-105699862D01*
X122403318Y-105625638D01*
X122425500Y-105542853D01*
X122425500Y-105457147D01*
X122403318Y-105374362D01*
X122360465Y-105300138D01*
X122329828Y-105269501D01*
X122302053Y-105214987D01*
X122311624Y-105154555D01*
X122354889Y-105111290D01*
X122399834Y-105100500D01*
X124439883Y-105100500D01*
X124486351Y-105081251D01*
X124513574Y-105069976D01*
X129354053Y-100229495D01*
X129408570Y-100201719D01*
X129424057Y-100200500D01*
X152739883Y-100200500D01*
X152786351Y-100181251D01*
X152813574Y-100169976D01*
X155049142Y-97934406D01*
X155103657Y-97906631D01*
X155144764Y-97908784D01*
X155207147Y-97925500D01*
X155207149Y-97925500D01*
X155292851Y-97925500D01*
X155292853Y-97925500D01*
X155375638Y-97903318D01*
X155449862Y-97860465D01*
X155510465Y-97799862D01*
X155514764Y-97792414D01*
X155560233Y-97751475D01*
X155621083Y-97745079D01*
X155674071Y-97775672D01*
X155698958Y-97831567D01*
X155699500Y-97841916D01*
X155699500Y-98175942D01*
X155680593Y-98234133D01*
X155670504Y-98245946D01*
X153245946Y-100670504D01*
X153191429Y-100698281D01*
X153175942Y-100699500D01*
X129760117Y-100699500D01*
X129686428Y-100730022D01*
X122845946Y-107570504D01*
X122791429Y-107598281D01*
X122775942Y-107599500D01*
X114285117Y-107599500D01*
X114211426Y-107630023D01*
X114083966Y-107757483D01*
X114029450Y-107785260D01*
X114013963Y-107786479D01*
X113970168Y-107786479D01*
X113887383Y-107808661D01*
X113813159Y-107851514D01*
X113769501Y-107895171D01*
X113714987Y-107922947D01*
X113654555Y-107913376D01*
X113611290Y-107870111D01*
X113600500Y-107825166D01*
X113600500Y-107024057D01*
X113602968Y-107016459D01*
X113601719Y-107008570D01*
X113612243Y-106987914D01*
X113619407Y-106965866D01*
X113629496Y-106954053D01*
X113729053Y-106854496D01*
X113783570Y-106826719D01*
X113799057Y-106825500D01*
X113842851Y-106825500D01*
X113842853Y-106825500D01*
X113925638Y-106803318D01*
X113999862Y-106760465D01*
X114060465Y-106699862D01*
X114103318Y-106625638D01*
X114125500Y-106542853D01*
X114125500Y-106457147D01*
X114103318Y-106374362D01*
X114060465Y-106300138D01*
X113999862Y-106239535D01*
X113925638Y-106196682D01*
X113842853Y-106174500D01*
X113757147Y-106174500D01*
X113674362Y-106196682D01*
X113600138Y-106239535D01*
X113539535Y-106300138D01*
X113496682Y-106374362D01*
X113483367Y-106424057D01*
X113474500Y-106457148D01*
X113474500Y-106500942D01*
X113455593Y-106559133D01*
X113445504Y-106570944D01*
X113286426Y-106730023D01*
X113286426Y-106730024D01*
X113286425Y-106730023D01*
X113230023Y-106786426D01*
X113199500Y-106860117D01*
X113199500Y-108339882D01*
X113230022Y-108413571D01*
X113230023Y-108413572D01*
X113230024Y-108413574D01*
X113830024Y-109013574D01*
X113830023Y-109013574D01*
X113886426Y-109069976D01*
X113960117Y-109100500D01*
X113960118Y-109100500D01*
X116075943Y-109100500D01*
X116134134Y-109119407D01*
X116145940Y-109129490D01*
X116266589Y-109250138D01*
X116274128Y-109257677D01*
X116301905Y-109312194D01*
X116292334Y-109372626D01*
X116249069Y-109415891D01*
X116188637Y-109425462D01*
X116154624Y-109413417D01*
X116125640Y-109396683D01*
X116125639Y-109396682D01*
X116125638Y-109396682D01*
X116042853Y-109374500D01*
X115957147Y-109374500D01*
X115874362Y-109396682D01*
X115800138Y-109439535D01*
X115739535Y-109500138D01*
X115696682Y-109574362D01*
X115676453Y-109649861D01*
X115674500Y-109657148D01*
X115674500Y-109700942D01*
X115655593Y-109759133D01*
X115645504Y-109770945D01*
X113786426Y-111630023D01*
X113786426Y-111630024D01*
X113786425Y-111630023D01*
X113730023Y-111686426D01*
X113699500Y-111760117D01*
X113699500Y-115275942D01*
X113680593Y-115334133D01*
X113670504Y-115345946D01*
X110186426Y-118830024D01*
X110186425Y-118830023D01*
X110130023Y-118886426D01*
X110099500Y-118960117D01*
X110099500Y-122675942D01*
X110097031Y-122683539D01*
X110098281Y-122691429D01*
X110087756Y-122712084D01*
X110080593Y-122734133D01*
X110070504Y-122745946D01*
X109970946Y-122845504D01*
X109916429Y-122873281D01*
X109900942Y-122874500D01*
X108917517Y-122874500D01*
X108859326Y-122855593D01*
X108823362Y-122806093D01*
X108823362Y-122744907D01*
X108859326Y-122695407D01*
X108879631Y-122684036D01*
X108899171Y-122675942D01*
X108913574Y-122669976D01*
X109538572Y-122044976D01*
X109538574Y-122044976D01*
X109594976Y-121988574D01*
X109625500Y-121914882D01*
X109625500Y-118999057D01*
X109644407Y-118940866D01*
X109654490Y-118929059D01*
X113394976Y-115188574D01*
X113425500Y-115114882D01*
X113425500Y-115035117D01*
X113425500Y-110560118D01*
X113415288Y-110535465D01*
X113394977Y-110486428D01*
X113394976Y-110486427D01*
X113394976Y-110486426D01*
X113338574Y-110430024D01*
X113338572Y-110430023D01*
X113332930Y-110424380D01*
X113332926Y-110424377D01*
X113254496Y-110345946D01*
X113226719Y-110291429D01*
X113225500Y-110275943D01*
X113225500Y-110232148D01*
X113220523Y-110213574D01*
X113203318Y-110149362D01*
X113160465Y-110075138D01*
X113099862Y-110014535D01*
X113025638Y-109971682D01*
X112942853Y-109949500D01*
X112895456Y-109949500D01*
X112837265Y-109930593D01*
X112801301Y-109881093D01*
X112801301Y-109819907D01*
X112837265Y-109770407D01*
X112869830Y-109754873D01*
X112875638Y-109753318D01*
X112949862Y-109710465D01*
X113010465Y-109649862D01*
X113053318Y-109575638D01*
X113075500Y-109492853D01*
X113075500Y-109407147D01*
X113053318Y-109324362D01*
X113010465Y-109250138D01*
X112949862Y-109189535D01*
X112875638Y-109146682D01*
X112792853Y-109124500D01*
X112707147Y-109124500D01*
X112624362Y-109146682D01*
X112550138Y-109189535D01*
X112489535Y-109250138D01*
X112446682Y-109324362D01*
X112424500Y-109407148D01*
X112424500Y-109450942D01*
X112405593Y-109509133D01*
X112395504Y-109520946D01*
X110920946Y-110995504D01*
X110866429Y-111023281D01*
X110850942Y-111024500D01*
X107550835Y-111024500D01*
X107492644Y-111005593D01*
X107480832Y-110995505D01*
X107449862Y-110964535D01*
X107446576Y-110962638D01*
X107375638Y-110921682D01*
X107292853Y-110899500D01*
X107207147Y-110899500D01*
X107124362Y-110921682D01*
X107050138Y-110964535D01*
X106989535Y-111025138D01*
X106946682Y-111099362D01*
X106924500Y-111182147D01*
X106924500Y-111267853D01*
X106946682Y-111350638D01*
X106989535Y-111424862D01*
X107050138Y-111485465D01*
X107124362Y-111528318D01*
X107207147Y-111550500D01*
X107207149Y-111550500D01*
X107292851Y-111550500D01*
X107292853Y-111550500D01*
X107375638Y-111528318D01*
X107449862Y-111485465D01*
X107480832Y-111454495D01*
X107535349Y-111426719D01*
X107550835Y-111425500D01*
X111014883Y-111425500D01*
X111061351Y-111406251D01*
X111088574Y-111394976D01*
X111830498Y-110653051D01*
X111885013Y-110625276D01*
X111945445Y-110634847D01*
X111988710Y-110678112D01*
X111999500Y-110723057D01*
X111999500Y-113799165D01*
X111980593Y-113857356D01*
X111970505Y-113869168D01*
X111939535Y-113900137D01*
X111930595Y-113915622D01*
X111896682Y-113974362D01*
X111874500Y-114057147D01*
X111874500Y-114142853D01*
X111896682Y-114225638D01*
X111939535Y-114299862D01*
X112000138Y-114360465D01*
X112074362Y-114403318D01*
X112157147Y-114425500D01*
X112157149Y-114425500D01*
X112242851Y-114425500D01*
X112242853Y-114425500D01*
X112325638Y-114403318D01*
X112399862Y-114360465D01*
X112430498Y-114329828D01*
X112485013Y-114302053D01*
X112545445Y-114311624D01*
X112588710Y-114354889D01*
X112599500Y-114399834D01*
X112599500Y-114775942D01*
X112580593Y-114834133D01*
X112570504Y-114845946D01*
X108886426Y-118530024D01*
X108886425Y-118530023D01*
X108830023Y-118586426D01*
X108799500Y-118660117D01*
X108799500Y-121475421D01*
X108797031Y-121483018D01*
X108798281Y-121490908D01*
X108787756Y-121511563D01*
X108780593Y-121533612D01*
X108770504Y-121545425D01*
X108670425Y-121645504D01*
X108615908Y-121673281D01*
X108600421Y-121674500D01*
X108556626Y-121674500D01*
X108473841Y-121696682D01*
X108399617Y-121739535D01*
X108339014Y-121800138D01*
X108296161Y-121874362D01*
X108273979Y-121957147D01*
X108273979Y-122042853D01*
X108288029Y-122095292D01*
X108284827Y-122156391D01*
X108246322Y-122203941D01*
X108187222Y-122219777D01*
X108142905Y-122206651D01*
X108125638Y-122196682D01*
X108122891Y-122195946D01*
X108042853Y-122174500D01*
X107957147Y-122174500D01*
X107874362Y-122196682D01*
X107800138Y-122239535D01*
X107739535Y-122300138D01*
X107696682Y-122374362D01*
X107674500Y-122457147D01*
X107674500Y-122542853D01*
X107696682Y-122625638D01*
X107739535Y-122699862D01*
X107771607Y-122731934D01*
X107799383Y-122786449D01*
X107789812Y-122846881D01*
X107760016Y-122881866D01*
X107750440Y-122888863D01*
X107711426Y-122905024D01*
X107665537Y-122950912D01*
X107659356Y-122955430D01*
X107637199Y-122962697D01*
X107616428Y-122973281D01*
X107601305Y-122974471D01*
X107601218Y-122974500D01*
X107601163Y-122974482D01*
X107600942Y-122974500D01*
X107557147Y-122974500D01*
X107474362Y-122996682D01*
X107400138Y-123039535D01*
X107339535Y-123100138D01*
X107296682Y-123174362D01*
X107274500Y-123257147D01*
X107274500Y-123342853D01*
X107296682Y-123425638D01*
X107339535Y-123499862D01*
X107400138Y-123560465D01*
X107474362Y-123603318D01*
X107557147Y-123625500D01*
X107557149Y-123625500D01*
X107642851Y-123625500D01*
X107642853Y-123625500D01*
X107725638Y-123603318D01*
X107799862Y-123560465D01*
X107860465Y-123499862D01*
X107903318Y-123425638D01*
X107923886Y-123348876D01*
X107957209Y-123297563D01*
X108014330Y-123275636D01*
X108019512Y-123275500D01*
X109294153Y-123275500D01*
X109352344Y-123294407D01*
X109388308Y-123343907D01*
X109389779Y-123400121D01*
X109374500Y-123457147D01*
X109374500Y-123542853D01*
X109396682Y-123625638D01*
X109439535Y-123699862D01*
X109500138Y-123760465D01*
X109574362Y-123803318D01*
X109657147Y-123825500D01*
X109657149Y-123825500D01*
X109742851Y-123825500D01*
X109742853Y-123825500D01*
X109825638Y-123803318D01*
X109899862Y-123760465D01*
X109930832Y-123729495D01*
X109985349Y-123701719D01*
X110000835Y-123700500D01*
X110239883Y-123700500D01*
X110286351Y-123681251D01*
X110313574Y-123669976D01*
X110869976Y-123113574D01*
X110900500Y-123039882D01*
X110900500Y-122960118D01*
X110900500Y-119224057D01*
X110919407Y-119165866D01*
X110929490Y-119154059D01*
X111330498Y-118753051D01*
X111385013Y-118725276D01*
X111445445Y-118734847D01*
X111488710Y-118778112D01*
X111499500Y-118823057D01*
X111499500Y-122975942D01*
X111480593Y-123034133D01*
X111470504Y-123045946D01*
X110445946Y-124070504D01*
X110391429Y-124098281D01*
X110375942Y-124099500D01*
X104624058Y-124099500D01*
X104565867Y-124080593D01*
X104554054Y-124070504D01*
X102679496Y-122195946D01*
X102651719Y-122141429D01*
X102650500Y-122125942D01*
X102650500Y-121200834D01*
X102669407Y-121142643D01*
X102679490Y-121130836D01*
X102710465Y-121099862D01*
X102753318Y-121025638D01*
X102775500Y-120942853D01*
X102775500Y-120857147D01*
X102753318Y-120774362D01*
X102710465Y-120700138D01*
X102649862Y-120639535D01*
X102575638Y-120596682D01*
X102492853Y-120574500D01*
X102407147Y-120574500D01*
X102324362Y-120596682D01*
X102250138Y-120639535D01*
X102189535Y-120700138D01*
X102146682Y-120774362D01*
X102124500Y-120857147D01*
X100010500Y-120857147D01*
X100010500Y-117957147D01*
X101474500Y-117957147D01*
X101474500Y-118042853D01*
X101496682Y-118125638D01*
X101539535Y-118199862D01*
X101600138Y-118260465D01*
X101674362Y-118303318D01*
X101757147Y-118325500D01*
X101757149Y-118325500D01*
X101842851Y-118325500D01*
X101842853Y-118325500D01*
X101925638Y-118303318D01*
X101999862Y-118260465D01*
X102030832Y-118229495D01*
X102085349Y-118201719D01*
X102100835Y-118200500D01*
X104339883Y-118200500D01*
X104376728Y-118185238D01*
X104413574Y-118169976D01*
X104413576Y-118169973D01*
X104420926Y-118165063D01*
X104479813Y-118148451D01*
X104537218Y-118169625D01*
X104571214Y-118220497D01*
X104573391Y-118250658D01*
X104574500Y-118250658D01*
X104574500Y-118257147D01*
X104574500Y-118342853D01*
X104596682Y-118425638D01*
X104639535Y-118499862D01*
X104700138Y-118560465D01*
X104774362Y-118603318D01*
X104857147Y-118625500D01*
X104857149Y-118625500D01*
X104942851Y-118625500D01*
X104942853Y-118625500D01*
X105025638Y-118603318D01*
X105099862Y-118560465D01*
X105160465Y-118499862D01*
X105203318Y-118425638D01*
X105221670Y-118357147D01*
X107274500Y-118357147D01*
X107274500Y-118442853D01*
X107296682Y-118525638D01*
X107339535Y-118599862D01*
X107400138Y-118660465D01*
X107474362Y-118703318D01*
X107557147Y-118725500D01*
X107557149Y-118725500D01*
X107642851Y-118725500D01*
X107642853Y-118725500D01*
X107725638Y-118703318D01*
X107799862Y-118660465D01*
X107860465Y-118599862D01*
X107903318Y-118525638D01*
X107925500Y-118442853D01*
X107925500Y-118357147D01*
X107903318Y-118274362D01*
X107860465Y-118200138D01*
X107799862Y-118139535D01*
X107725638Y-118096682D01*
X107642853Y-118074500D01*
X107557147Y-118074500D01*
X107474362Y-118096682D01*
X107400138Y-118139535D01*
X107339535Y-118200138D01*
X107296682Y-118274362D01*
X107274500Y-118357147D01*
X105221670Y-118357147D01*
X105225500Y-118342853D01*
X105225500Y-118257147D01*
X105203318Y-118174362D01*
X105160465Y-118100138D01*
X105129828Y-118069501D01*
X105102053Y-118014987D01*
X105111624Y-117954555D01*
X105154889Y-117911290D01*
X105199834Y-117900500D01*
X106639883Y-117900500D01*
X106702985Y-117874362D01*
X106713574Y-117869976D01*
X107969976Y-116613574D01*
X108000500Y-116539882D01*
X108000500Y-116460118D01*
X108000500Y-113760118D01*
X107998384Y-113755010D01*
X107969976Y-113686426D01*
X107913574Y-113630023D01*
X107913574Y-113630024D01*
X106429496Y-112145946D01*
X106401719Y-112091429D01*
X106400500Y-112075942D01*
X106400500Y-110524058D01*
X106419407Y-110465867D01*
X106429496Y-110454054D01*
X108854054Y-108029496D01*
X108908571Y-108001719D01*
X108924058Y-108000500D01*
X111899165Y-108000500D01*
X111957356Y-108019407D01*
X111969168Y-108029495D01*
X112000138Y-108060465D01*
X112074362Y-108103318D01*
X112157147Y-108125500D01*
X112157149Y-108125500D01*
X112242851Y-108125500D01*
X112242853Y-108125500D01*
X112325638Y-108103318D01*
X112399862Y-108060465D01*
X112460465Y-107999862D01*
X112503318Y-107925638D01*
X112525500Y-107842853D01*
X112525500Y-107757147D01*
X112503318Y-107674362D01*
X112460465Y-107600138D01*
X112399862Y-107539535D01*
X112325638Y-107496682D01*
X112242853Y-107474500D01*
X112157147Y-107474500D01*
X112074362Y-107496682D01*
X112000137Y-107539535D01*
X111969168Y-107570505D01*
X111914651Y-107598281D01*
X111899165Y-107599500D01*
X108760117Y-107599500D01*
X108686428Y-107630022D01*
X106086426Y-110230024D01*
X106086425Y-110230023D01*
X106030023Y-110286426D01*
X105999500Y-110360117D01*
X105999500Y-112239882D01*
X106030022Y-112313571D01*
X106030023Y-112313572D01*
X106030024Y-112313574D01*
X107570505Y-113854055D01*
X107598281Y-113908570D01*
X107599500Y-113924057D01*
X107599500Y-114841955D01*
X107580593Y-114900146D01*
X107531093Y-114936110D01*
X107469907Y-114936110D01*
X107451001Y-114927692D01*
X107375639Y-114884182D01*
X107348043Y-114876788D01*
X107292853Y-114862000D01*
X107292851Y-114862000D01*
X107249057Y-114862000D01*
X107190866Y-114843093D01*
X107179053Y-114833004D01*
X105529496Y-113183446D01*
X105501719Y-113128929D01*
X105500500Y-113113442D01*
X105500500Y-111672617D01*
X105469977Y-111598928D01*
X105469976Y-111598927D01*
X105469976Y-111598926D01*
X105413574Y-111542524D01*
X105413572Y-111542523D01*
X105407930Y-111536880D01*
X105407926Y-111536877D01*
X105104496Y-111233446D01*
X105076719Y-111178930D01*
X105075500Y-111163443D01*
X105075500Y-111119648D01*
X105075500Y-111119647D01*
X105053318Y-111036862D01*
X105010465Y-110962638D01*
X104949862Y-110902035D01*
X104875638Y-110859182D01*
X104792853Y-110837000D01*
X104707147Y-110837000D01*
X104624362Y-110859182D01*
X104550138Y-110902035D01*
X104489535Y-110962638D01*
X104446682Y-111036862D01*
X104424500Y-111119647D01*
X104424500Y-111205353D01*
X104446682Y-111288138D01*
X104489535Y-111362362D01*
X104550138Y-111422965D01*
X104624362Y-111465818D01*
X104707147Y-111488000D01*
X104750943Y-111488000D01*
X104809134Y-111506907D01*
X104820946Y-111516996D01*
X105070503Y-111766552D01*
X105098281Y-111821069D01*
X105099500Y-111836556D01*
X105099500Y-113277382D01*
X105130022Y-113351071D01*
X105130023Y-113351072D01*
X105130024Y-113351074D01*
X106031252Y-114252301D01*
X106895504Y-115116553D01*
X106923281Y-115171070D01*
X106924500Y-115186557D01*
X106924500Y-115230353D01*
X106946682Y-115313138D01*
X106989535Y-115387362D01*
X107050138Y-115447965D01*
X107124362Y-115490818D01*
X107207147Y-115513000D01*
X107207149Y-115513000D01*
X107292851Y-115513000D01*
X107292853Y-115513000D01*
X107375638Y-115490818D01*
X107449862Y-115447965D01*
X107449864Y-115447962D01*
X107451000Y-115447307D01*
X107510848Y-115434586D01*
X107566744Y-115459473D01*
X107597337Y-115512461D01*
X107599500Y-115533044D01*
X107599500Y-116375942D01*
X107580593Y-116434133D01*
X107570504Y-116445946D01*
X106545946Y-117470504D01*
X106491429Y-117498281D01*
X106475942Y-117499500D01*
X104560117Y-117499500D01*
X104486426Y-117530023D01*
X104245945Y-117770504D01*
X104191429Y-117798281D01*
X104175942Y-117799500D01*
X102100835Y-117799500D01*
X102042644Y-117780593D01*
X102030832Y-117770505D01*
X101999862Y-117739535D01*
X101988908Y-117733211D01*
X101925638Y-117696682D01*
X101842853Y-117674500D01*
X101757147Y-117674500D01*
X101674362Y-117696682D01*
X101600138Y-117739535D01*
X101539535Y-117800138D01*
X101496682Y-117874362D01*
X101474500Y-117957147D01*
X100010500Y-117957147D01*
X100010500Y-102507147D01*
X111224500Y-102507147D01*
X111224500Y-102592853D01*
X111246682Y-102675638D01*
X111289535Y-102749862D01*
X111350138Y-102810465D01*
X111424362Y-102853318D01*
X111507147Y-102875500D01*
X111507149Y-102875500D01*
X111592851Y-102875500D01*
X111592853Y-102875500D01*
X111675638Y-102853318D01*
X111749862Y-102810465D01*
X111810465Y-102749862D01*
X111853318Y-102675638D01*
X111875500Y-102592853D01*
X111875500Y-102507147D01*
X111853318Y-102424362D01*
X111810465Y-102350138D01*
X111749862Y-102289535D01*
X111675638Y-102246682D01*
X111592853Y-102224500D01*
X111507147Y-102224500D01*
X111424362Y-102246682D01*
X111350138Y-102289535D01*
X111289535Y-102350138D01*
X111246682Y-102424362D01*
X111224500Y-102507147D01*
X100010500Y-102507147D01*
X100010500Y-99353856D01*
X103249500Y-99353856D01*
X103249500Y-99446144D01*
X103273386Y-99535288D01*
X103319531Y-99615212D01*
X103384788Y-99680469D01*
X103464712Y-99726614D01*
X103553856Y-99750500D01*
X104313810Y-99750500D01*
X104372001Y-99769407D01*
X104383814Y-99779496D01*
X105644531Y-101040212D01*
X105644530Y-101040212D01*
X105709787Y-101105468D01*
X105709789Y-101105470D01*
X105752318Y-101130024D01*
X105789712Y-101151614D01*
X105878856Y-101175500D01*
X111710236Y-101175500D01*
X111768427Y-101194407D01*
X111804391Y-101243907D01*
X111804391Y-101305093D01*
X111780241Y-101344501D01*
X111735269Y-101389474D01*
X111692416Y-101463698D01*
X111670234Y-101546483D01*
X111670234Y-101632189D01*
X111692416Y-101714974D01*
X111735269Y-101789198D01*
X111795872Y-101849801D01*
X111870096Y-101892654D01*
X111952881Y-101914836D01*
X111952883Y-101914836D01*
X112038585Y-101914836D01*
X112038587Y-101914836D01*
X112121372Y-101892654D01*
X112195596Y-101849801D01*
X112256199Y-101789198D01*
X112299052Y-101714974D01*
X112321234Y-101632189D01*
X112321234Y-101546483D01*
X112299052Y-101463698D01*
X112256199Y-101389474D01*
X112211226Y-101344501D01*
X112183451Y-101289987D01*
X112193022Y-101229555D01*
X112236287Y-101186290D01*
X112281232Y-101175500D01*
X113394153Y-101175500D01*
X113415723Y-101182508D01*
X113438159Y-101185818D01*
X113444244Y-101191775D01*
X113452344Y-101194407D01*
X113465675Y-101212756D01*
X113481881Y-101228621D01*
X113482720Y-101236215D01*
X113488308Y-101243907D01*
X113492093Y-101288948D01*
X113491259Y-101294600D01*
X113474500Y-101357147D01*
X113474500Y-101408204D01*
X113473440Y-101415390D01*
X113462912Y-101436606D01*
X113455593Y-101459133D01*
X113446383Y-101469916D01*
X113446243Y-101470199D01*
X113446060Y-101470294D01*
X113445504Y-101470946D01*
X111745946Y-103170504D01*
X111691429Y-103198281D01*
X111675942Y-103199500D01*
X108960117Y-103199500D01*
X108886428Y-103230022D01*
X108170946Y-103945504D01*
X108116429Y-103973281D01*
X108100942Y-103974500D01*
X108057147Y-103974500D01*
X107974362Y-103996682D01*
X107900138Y-104039535D01*
X107839535Y-104100138D01*
X107796682Y-104174362D01*
X107774500Y-104257147D01*
X107774500Y-104342853D01*
X107796682Y-104425638D01*
X107839535Y-104499862D01*
X107869671Y-104529998D01*
X107897447Y-104584513D01*
X107887876Y-104644945D01*
X107869672Y-104670000D01*
X107839535Y-104700138D01*
X107796682Y-104774362D01*
X107774500Y-104857147D01*
X107774500Y-104942853D01*
X107796682Y-105025638D01*
X107839535Y-105099862D01*
X107900138Y-105160465D01*
X107974362Y-105203318D01*
X107997041Y-105209394D01*
X108048356Y-105242716D01*
X108070284Y-105299837D01*
X108054450Y-105358938D01*
X108041424Y-105375025D01*
X107746473Y-105669976D01*
X107286426Y-106130023D01*
X107286426Y-106130024D01*
X107286425Y-106130023D01*
X107230023Y-106186426D01*
X107199500Y-106260117D01*
X107199500Y-107599165D01*
X107180593Y-107657356D01*
X107170505Y-107669168D01*
X107139535Y-107700137D01*
X107124892Y-107725500D01*
X107096682Y-107774362D01*
X107074500Y-107857147D01*
X107074500Y-107942853D01*
X107096682Y-108025638D01*
X107139535Y-108099862D01*
X107200138Y-108160465D01*
X107274362Y-108203318D01*
X107357147Y-108225500D01*
X107357149Y-108225500D01*
X107442851Y-108225500D01*
X107442853Y-108225500D01*
X107525638Y-108203318D01*
X107599862Y-108160465D01*
X107660465Y-108099862D01*
X107703318Y-108025638D01*
X107725500Y-107942853D01*
X107725500Y-107857147D01*
X107711353Y-107804350D01*
X107714555Y-107743252D01*
X107753060Y-107695702D01*
X107812161Y-107679866D01*
X107856480Y-107692994D01*
X107874362Y-107703318D01*
X107957147Y-107725500D01*
X107957149Y-107725500D01*
X108042851Y-107725500D01*
X108042853Y-107725500D01*
X108125638Y-107703318D01*
X108199862Y-107660465D01*
X108260465Y-107599862D01*
X108303318Y-107525638D01*
X108325500Y-107442853D01*
X108325500Y-107357147D01*
X108303318Y-107274362D01*
X108260465Y-107200138D01*
X108260463Y-107200136D01*
X108260462Y-107200134D01*
X108257615Y-107196424D01*
X108237192Y-107138748D01*
X108254571Y-107080082D01*
X108303113Y-107042836D01*
X108364277Y-107041235D01*
X108396424Y-107057615D01*
X108400134Y-107060462D01*
X108400136Y-107060463D01*
X108400138Y-107060465D01*
X108474362Y-107103318D01*
X108557147Y-107125500D01*
X108557149Y-107125500D01*
X108642851Y-107125500D01*
X108642853Y-107125500D01*
X108725638Y-107103318D01*
X108799862Y-107060465D01*
X108860465Y-106999862D01*
X108903318Y-106925638D01*
X108925500Y-106842853D01*
X108925500Y-106757147D01*
X108911353Y-106704350D01*
X108914555Y-106643252D01*
X108953060Y-106595702D01*
X109012161Y-106579866D01*
X109056480Y-106592994D01*
X109074362Y-106603318D01*
X109157147Y-106625500D01*
X109157149Y-106625500D01*
X109242851Y-106625500D01*
X109242853Y-106625500D01*
X109325638Y-106603318D01*
X109399862Y-106560465D01*
X109460465Y-106499862D01*
X109503318Y-106425638D01*
X109525500Y-106342853D01*
X109525500Y-106257147D01*
X109503318Y-106174362D01*
X109460465Y-106100138D01*
X109399862Y-106039535D01*
X109325638Y-105996682D01*
X109242853Y-105974500D01*
X109157147Y-105974500D01*
X109074362Y-105996682D01*
X109000138Y-106039535D01*
X108939535Y-106100138D01*
X108896682Y-106174362D01*
X108874500Y-106257147D01*
X108874500Y-106342853D01*
X108886439Y-106387411D01*
X108888646Y-106395646D01*
X108885443Y-106456748D01*
X108846938Y-106504298D01*
X108787837Y-106520133D01*
X108743520Y-106507006D01*
X108725639Y-106496682D01*
X108698043Y-106489288D01*
X108642853Y-106474500D01*
X108557147Y-106474500D01*
X108525238Y-106483050D01*
X108474360Y-106496682D01*
X108445377Y-106513416D01*
X108385528Y-106526137D01*
X108329633Y-106501249D01*
X108299041Y-106448261D01*
X108305438Y-106387411D01*
X108325871Y-106357678D01*
X109454054Y-105229496D01*
X109508571Y-105201719D01*
X109524058Y-105200500D01*
X115239883Y-105200500D01*
X115302652Y-105174500D01*
X115313574Y-105169976D01*
X117276401Y-103207147D01*
X123924500Y-103207147D01*
X123924500Y-103292853D01*
X123946682Y-103375638D01*
X123989535Y-103449862D01*
X124050138Y-103510465D01*
X124124362Y-103553318D01*
X124207147Y-103575500D01*
X124207149Y-103575500D01*
X124292851Y-103575500D01*
X124292853Y-103575500D01*
X124375638Y-103553318D01*
X124449862Y-103510465D01*
X124510465Y-103449862D01*
X124553318Y-103375638D01*
X124575500Y-103292853D01*
X124575500Y-103249058D01*
X124594407Y-103190867D01*
X124604496Y-103179054D01*
X129926403Y-97857147D01*
X148274500Y-97857147D01*
X148274500Y-97942853D01*
X148296682Y-98025638D01*
X148339535Y-98099862D01*
X148400138Y-98160465D01*
X148474362Y-98203318D01*
X148557147Y-98225500D01*
X148557149Y-98225500D01*
X148642851Y-98225500D01*
X148642853Y-98225500D01*
X148725638Y-98203318D01*
X148799862Y-98160465D01*
X148860465Y-98099862D01*
X148903318Y-98025638D01*
X148925500Y-97942853D01*
X148925500Y-97857147D01*
X148903318Y-97774362D01*
X148860465Y-97700138D01*
X148799862Y-97639535D01*
X148725638Y-97596682D01*
X148642853Y-97574500D01*
X148557147Y-97574500D01*
X148474362Y-97596682D01*
X148400135Y-97639537D01*
X148392848Y-97646823D01*
X148392836Y-97646836D01*
X148339535Y-97700138D01*
X148322831Y-97729070D01*
X148322827Y-97729075D01*
X148296682Y-97774360D01*
X148289849Y-97799862D01*
X148274500Y-97857147D01*
X129926403Y-97857147D01*
X130626403Y-97157147D01*
X145674500Y-97157147D01*
X145674500Y-97242853D01*
X145696682Y-97325638D01*
X145739535Y-97399862D01*
X145800138Y-97460465D01*
X145874362Y-97503318D01*
X145957147Y-97525500D01*
X145957149Y-97525500D01*
X146042851Y-97525500D01*
X146042853Y-97525500D01*
X146125638Y-97503318D01*
X146199862Y-97460465D01*
X146260465Y-97399862D01*
X146303318Y-97325638D01*
X146307899Y-97308543D01*
X147636137Y-97308543D01*
X147636137Y-97394249D01*
X147658319Y-97477034D01*
X147701172Y-97551258D01*
X147761775Y-97611861D01*
X147835999Y-97654714D01*
X147918784Y-97676896D01*
X147918786Y-97676896D01*
X148004488Y-97676896D01*
X148004490Y-97676896D01*
X148087275Y-97654714D01*
X148161499Y-97611861D01*
X148222102Y-97551258D01*
X148264955Y-97477034D01*
X148287137Y-97394249D01*
X148287137Y-97308543D01*
X148264955Y-97225758D01*
X148222102Y-97151534D01*
X148161499Y-97090931D01*
X148087275Y-97048078D01*
X148004490Y-97025896D01*
X147918784Y-97025896D01*
X147835999Y-97048078D01*
X147761775Y-97090931D01*
X147701172Y-97151534D01*
X147658319Y-97225758D01*
X147636137Y-97308543D01*
X146307899Y-97308543D01*
X146325500Y-97242853D01*
X146325500Y-97157147D01*
X146303318Y-97074362D01*
X146260465Y-97000138D01*
X146199862Y-96939535D01*
X146125638Y-96896682D01*
X146042853Y-96874500D01*
X145957147Y-96874500D01*
X145874362Y-96896682D01*
X145800138Y-96939535D01*
X145739535Y-97000138D01*
X145696682Y-97074362D01*
X145674500Y-97157147D01*
X130626403Y-97157147D01*
X131826403Y-95957147D01*
X144674500Y-95957147D01*
X144674500Y-96042853D01*
X144696682Y-96125638D01*
X144739535Y-96199862D01*
X144800138Y-96260465D01*
X144874362Y-96303318D01*
X144957147Y-96325500D01*
X144957149Y-96325500D01*
X145042851Y-96325500D01*
X145042853Y-96325500D01*
X145125638Y-96303318D01*
X145199862Y-96260465D01*
X145203180Y-96257147D01*
X145674500Y-96257147D01*
X145674500Y-96342853D01*
X145696682Y-96425638D01*
X145739535Y-96499862D01*
X145800138Y-96560465D01*
X145874362Y-96603318D01*
X145957147Y-96625500D01*
X145957149Y-96625500D01*
X146042851Y-96625500D01*
X146042853Y-96625500D01*
X146125638Y-96603318D01*
X146199862Y-96560465D01*
X146260465Y-96499862D01*
X146303318Y-96425638D01*
X146325500Y-96342853D01*
X146325500Y-96257147D01*
X146303318Y-96174362D01*
X146260465Y-96100138D01*
X146199862Y-96039535D01*
X146125638Y-95996682D01*
X146042853Y-95974500D01*
X145957147Y-95974500D01*
X145874362Y-95996682D01*
X145800138Y-96039535D01*
X145739535Y-96100138D01*
X145696682Y-96174362D01*
X145674500Y-96257147D01*
X145203180Y-96257147D01*
X145260465Y-96199862D01*
X145303318Y-96125638D01*
X145325500Y-96042853D01*
X145325500Y-95957147D01*
X145303318Y-95874362D01*
X145260465Y-95800138D01*
X145199862Y-95739535D01*
X145125638Y-95696682D01*
X145042853Y-95674500D01*
X144957147Y-95674500D01*
X144874362Y-95696682D01*
X144800138Y-95739535D01*
X144739535Y-95800138D01*
X144696682Y-95874362D01*
X144674500Y-95957147D01*
X131826403Y-95957147D01*
X132726403Y-95057147D01*
X144674500Y-95057147D01*
X144674500Y-95142853D01*
X144696682Y-95225638D01*
X144739535Y-95299862D01*
X144800138Y-95360465D01*
X144874362Y-95403318D01*
X144957147Y-95425500D01*
X144957149Y-95425500D01*
X145042851Y-95425500D01*
X145042853Y-95425500D01*
X145125638Y-95403318D01*
X145199862Y-95360465D01*
X145260465Y-95299862D01*
X145303318Y-95225638D01*
X145325500Y-95142853D01*
X145325500Y-95057147D01*
X145303318Y-94974362D01*
X145260465Y-94900138D01*
X145199862Y-94839535D01*
X145199859Y-94839533D01*
X145194425Y-94836395D01*
X145194423Y-94836395D01*
X145125638Y-94796682D01*
X145042853Y-94774500D01*
X144957147Y-94774500D01*
X144874362Y-94796682D01*
X144800138Y-94839535D01*
X144739535Y-94900138D01*
X144696682Y-94974362D01*
X144674500Y-95057147D01*
X132726403Y-95057147D01*
X133026403Y-94757147D01*
X145674500Y-94757147D01*
X145674500Y-94842853D01*
X145696682Y-94925638D01*
X145739535Y-94999862D01*
X145800138Y-95060465D01*
X145874362Y-95103318D01*
X145957147Y-95125500D01*
X145957149Y-95125500D01*
X146042851Y-95125500D01*
X146042853Y-95125500D01*
X146125638Y-95103318D01*
X146199862Y-95060465D01*
X146260465Y-94999862D01*
X146303318Y-94925638D01*
X146325500Y-94842853D01*
X146325500Y-94757147D01*
X146303318Y-94674362D01*
X146260465Y-94600138D01*
X146199862Y-94539535D01*
X146125638Y-94496682D01*
X146042853Y-94474500D01*
X145957147Y-94474500D01*
X145874362Y-94496682D01*
X145800138Y-94539535D01*
X145739535Y-94600138D01*
X145696682Y-94674362D01*
X145674500Y-94757147D01*
X133026403Y-94757147D01*
X134226403Y-93557147D01*
X144674500Y-93557147D01*
X144674500Y-93642853D01*
X144696682Y-93725638D01*
X144739535Y-93799862D01*
X144800138Y-93860465D01*
X144874362Y-93903318D01*
X144957147Y-93925500D01*
X144957149Y-93925500D01*
X145042851Y-93925500D01*
X145042853Y-93925500D01*
X145125638Y-93903318D01*
X145199862Y-93860465D01*
X145203180Y-93857147D01*
X145674500Y-93857147D01*
X145674500Y-93942853D01*
X145696682Y-94025638D01*
X145739535Y-94099862D01*
X145800138Y-94160465D01*
X145874362Y-94203318D01*
X145957147Y-94225500D01*
X145957149Y-94225500D01*
X146042851Y-94225500D01*
X146042853Y-94225500D01*
X146125638Y-94203318D01*
X146199862Y-94160465D01*
X146260465Y-94099862D01*
X146303318Y-94025638D01*
X146325500Y-93942853D01*
X146325500Y-93857147D01*
X146303318Y-93774362D01*
X146260465Y-93700138D01*
X146217474Y-93657147D01*
X156674500Y-93657147D01*
X156674500Y-93742853D01*
X156696682Y-93825638D01*
X156739535Y-93899862D01*
X156800138Y-93960465D01*
X156874362Y-94003318D01*
X156957147Y-94025500D01*
X156957149Y-94025500D01*
X157042851Y-94025500D01*
X157042853Y-94025500D01*
X157125638Y-94003318D01*
X157199862Y-93960465D01*
X157260465Y-93899862D01*
X157303318Y-93825638D01*
X157325500Y-93742853D01*
X157325500Y-93657147D01*
X157303318Y-93574362D01*
X157260465Y-93500138D01*
X157199862Y-93439535D01*
X157125638Y-93396682D01*
X157042853Y-93374500D01*
X156957147Y-93374500D01*
X156874362Y-93396682D01*
X156800138Y-93439535D01*
X156739535Y-93500138D01*
X156696682Y-93574362D01*
X156674500Y-93657147D01*
X146217474Y-93657147D01*
X146199862Y-93639535D01*
X146125638Y-93596682D01*
X146042853Y-93574500D01*
X145957147Y-93574500D01*
X145874362Y-93596682D01*
X145800138Y-93639535D01*
X145739535Y-93700138D01*
X145696682Y-93774362D01*
X145674500Y-93857147D01*
X145203180Y-93857147D01*
X145260465Y-93799862D01*
X145303318Y-93725638D01*
X145325500Y-93642853D01*
X145325500Y-93557147D01*
X145303318Y-93474362D01*
X145260465Y-93400138D01*
X145199862Y-93339535D01*
X145125638Y-93296682D01*
X145042853Y-93274500D01*
X144957147Y-93274500D01*
X144874362Y-93296682D01*
X144800138Y-93339535D01*
X144739535Y-93400138D01*
X144696682Y-93474362D01*
X144674500Y-93557147D01*
X134226403Y-93557147D01*
X135126403Y-92657147D01*
X144674500Y-92657147D01*
X144674500Y-92742853D01*
X144696682Y-92825638D01*
X144739535Y-92899862D01*
X144800138Y-92960465D01*
X144874362Y-93003318D01*
X144957147Y-93025500D01*
X144957149Y-93025500D01*
X145042851Y-93025500D01*
X145042853Y-93025500D01*
X145125638Y-93003318D01*
X145199862Y-92960465D01*
X145260465Y-92899862D01*
X145303318Y-92825638D01*
X145325500Y-92742853D01*
X145325500Y-92657147D01*
X145303318Y-92574362D01*
X145260465Y-92500138D01*
X145199862Y-92439535D01*
X145199859Y-92439533D01*
X145194425Y-92436395D01*
X145194423Y-92436395D01*
X145125638Y-92396682D01*
X145042853Y-92374500D01*
X144957147Y-92374500D01*
X144874362Y-92396682D01*
X144800138Y-92439535D01*
X144739535Y-92500138D01*
X144696682Y-92574362D01*
X144674500Y-92657147D01*
X135126403Y-92657147D01*
X135426403Y-92357147D01*
X145674500Y-92357147D01*
X145674500Y-92442853D01*
X145696682Y-92525638D01*
X145739535Y-92599862D01*
X145800138Y-92660465D01*
X145874362Y-92703318D01*
X145957147Y-92725500D01*
X145957149Y-92725500D01*
X146042851Y-92725500D01*
X146042853Y-92725500D01*
X146125638Y-92703318D01*
X146199862Y-92660465D01*
X146203180Y-92657147D01*
X156674500Y-92657147D01*
X156674500Y-92742853D01*
X156696682Y-92825638D01*
X156739535Y-92899862D01*
X156800138Y-92960465D01*
X156874362Y-93003318D01*
X156957147Y-93025500D01*
X156957149Y-93025500D01*
X157042851Y-93025500D01*
X157042853Y-93025500D01*
X157125638Y-93003318D01*
X157199862Y-92960465D01*
X157260465Y-92899862D01*
X157303318Y-92825638D01*
X157325500Y-92742853D01*
X157325500Y-92657147D01*
X157303318Y-92574362D01*
X157260465Y-92500138D01*
X157199862Y-92439535D01*
X157125638Y-92396682D01*
X157042853Y-92374500D01*
X156957147Y-92374500D01*
X156874362Y-92396682D01*
X156800138Y-92439535D01*
X156739535Y-92500138D01*
X156696682Y-92574362D01*
X156674500Y-92657147D01*
X146203180Y-92657147D01*
X146260465Y-92599862D01*
X146303318Y-92525638D01*
X146325500Y-92442853D01*
X146325500Y-92357147D01*
X146303318Y-92274362D01*
X146260465Y-92200138D01*
X146217474Y-92157147D01*
X155674500Y-92157147D01*
X155674500Y-92242853D01*
X155696682Y-92325638D01*
X155739535Y-92399862D01*
X155800138Y-92460465D01*
X155874362Y-92503318D01*
X155957147Y-92525500D01*
X155957149Y-92525500D01*
X156042851Y-92525500D01*
X156042853Y-92525500D01*
X156125638Y-92503318D01*
X156199862Y-92460465D01*
X156260465Y-92399862D01*
X156303318Y-92325638D01*
X156325500Y-92242853D01*
X156325500Y-92157147D01*
X156303318Y-92074362D01*
X156260465Y-92000138D01*
X156199862Y-91939535D01*
X156125638Y-91896682D01*
X156042853Y-91874500D01*
X155957147Y-91874500D01*
X155874362Y-91896682D01*
X155800138Y-91939535D01*
X155739535Y-92000138D01*
X155696682Y-92074362D01*
X155674500Y-92157147D01*
X146217474Y-92157147D01*
X146199862Y-92139535D01*
X146125638Y-92096682D01*
X146042853Y-92074500D01*
X145957147Y-92074500D01*
X145874362Y-92096682D01*
X145800138Y-92139535D01*
X145739535Y-92200138D01*
X145696682Y-92274362D01*
X145674500Y-92357147D01*
X135426403Y-92357147D01*
X150854054Y-76929496D01*
X150908571Y-76901719D01*
X150924058Y-76900500D01*
X151999165Y-76900500D01*
X152057356Y-76919407D01*
X152069168Y-76929495D01*
X152100138Y-76960465D01*
X152174362Y-77003318D01*
X152257147Y-77025500D01*
X152257149Y-77025500D01*
X152342851Y-77025500D01*
X152342853Y-77025500D01*
X152425638Y-77003318D01*
X152499862Y-76960465D01*
X152560465Y-76899862D01*
X152603318Y-76825638D01*
X152625500Y-76742853D01*
X152625500Y-76657147D01*
X152603318Y-76574362D01*
X152594794Y-76559598D01*
X152588675Y-76548999D01*
X152575954Y-76489151D01*
X152600841Y-76433255D01*
X152653830Y-76402663D01*
X152674412Y-76400500D01*
X155076983Y-76400500D01*
X155135174Y-76419407D01*
X155146987Y-76429496D01*
X155371025Y-76653534D01*
X155398802Y-76708051D01*
X155400021Y-76723538D01*
X155400021Y-77100687D01*
X155381114Y-77158878D01*
X155331614Y-77194842D01*
X155270428Y-77194842D01*
X155231019Y-77170692D01*
X155199862Y-77139535D01*
X155125638Y-77096682D01*
X155042853Y-77074500D01*
X154957147Y-77074500D01*
X154874362Y-77096682D01*
X154800138Y-77139535D01*
X154739535Y-77200138D01*
X154696682Y-77274362D01*
X154675528Y-77353313D01*
X154674500Y-77357148D01*
X154674500Y-77400500D01*
X154655593Y-77458691D01*
X154606093Y-77494655D01*
X154575500Y-77499500D01*
X154059500Y-77499500D01*
X154044626Y-77494667D01*
X154028989Y-77494681D01*
X154016262Y-77485451D01*
X154001309Y-77480593D01*
X153992115Y-77467939D01*
X153979458Y-77458760D01*
X153974600Y-77443831D01*
X153965345Y-77431093D01*
X153960500Y-77400586D01*
X153960500Y-77400481D01*
X153960500Y-77363169D01*
X153960467Y-77363090D01*
X153960459Y-77353313D01*
X153960466Y-77353288D01*
X153960459Y-77353207D01*
X153960461Y-77345100D01*
X153930461Y-77233058D01*
X153930449Y-77233037D01*
X153872482Y-77132602D01*
X153872481Y-77132601D01*
X153790472Y-77050576D01*
X153790473Y-77050576D01*
X153690027Y-76992575D01*
X153690028Y-76992575D01*
X153622063Y-76974362D01*
X153577994Y-76962552D01*
X153577991Y-76962551D01*
X153577990Y-76962551D01*
X153559883Y-76962551D01*
X153559882Y-76962551D01*
X153441058Y-76962551D01*
X153440897Y-76962499D01*
X153341999Y-76962500D01*
X153229951Y-76992528D01*
X153129495Y-77050535D01*
X153047480Y-77132567D01*
X153047478Y-77132569D01*
X152989492Y-77233037D01*
X152989491Y-77233039D01*
X152959489Y-77345089D01*
X152959489Y-77345091D01*
X152959500Y-77400481D01*
X152940604Y-77458675D01*
X152891111Y-77494649D01*
X152860500Y-77499500D01*
X152160117Y-77499500D01*
X152086428Y-77530022D01*
X152086426Y-77530024D01*
X149334112Y-80282338D01*
X144886426Y-84730024D01*
X144886425Y-84730023D01*
X144830023Y-84786426D01*
X144799500Y-84860117D01*
X144799500Y-89264146D01*
X144830022Y-89337835D01*
X144830023Y-89337836D01*
X144830024Y-89337838D01*
X145362162Y-89869976D01*
X145362163Y-89869976D01*
X145362164Y-89869977D01*
X145435853Y-89900500D01*
X145435854Y-89900500D01*
X145515618Y-89900500D01*
X145687454Y-89900500D01*
X145745645Y-89919407D01*
X145781609Y-89968907D01*
X145783081Y-90025122D01*
X145774500Y-90057147D01*
X145774500Y-90142853D01*
X145796682Y-90225638D01*
X145839535Y-90299862D01*
X145900138Y-90360465D01*
X145974362Y-90403318D01*
X146057147Y-90425500D01*
X146057149Y-90425500D01*
X146142851Y-90425500D01*
X146142853Y-90425500D01*
X146225638Y-90403318D01*
X146299862Y-90360465D01*
X146360465Y-90299862D01*
X146403318Y-90225638D01*
X146425500Y-90142853D01*
X146425500Y-90057147D01*
X146403318Y-89974362D01*
X146360465Y-89900138D01*
X146300318Y-89839991D01*
X146278860Y-89807875D01*
X146269976Y-89786426D01*
X146243668Y-89760118D01*
X146213574Y-89730023D01*
X146213574Y-89730024D01*
X146103553Y-89620003D01*
X146075776Y-89565486D01*
X146085347Y-89505054D01*
X146103551Y-89479998D01*
X146269976Y-89313574D01*
X146300500Y-89239882D01*
X146300500Y-89200834D01*
X146319407Y-89142643D01*
X146329490Y-89130836D01*
X146360465Y-89099862D01*
X146403318Y-89025638D01*
X146425500Y-88942853D01*
X146425500Y-88857147D01*
X146403318Y-88774362D01*
X146392994Y-88756480D01*
X146389357Y-88739370D01*
X146381187Y-88723902D01*
X146383153Y-88710186D01*
X146380272Y-88696632D01*
X146387387Y-88680649D01*
X146389870Y-88663336D01*
X146399521Y-88653396D01*
X146405158Y-88640736D01*
X146420309Y-88631988D01*
X146432494Y-88619440D01*
X146444355Y-88618105D01*
X146458146Y-88610143D01*
X146492779Y-88608982D01*
X146498631Y-88609821D01*
X146557147Y-88625500D01*
X146608001Y-88625500D01*
X146614991Y-88626502D01*
X146636421Y-88637027D01*
X146659133Y-88644407D01*
X146669537Y-88653293D01*
X146669910Y-88653476D01*
X146670040Y-88653722D01*
X146670946Y-88654496D01*
X148336948Y-90320498D01*
X148364724Y-90375013D01*
X148355153Y-90435445D01*
X148311888Y-90478710D01*
X148266943Y-90489500D01*
X147373312Y-90489500D01*
X147295944Y-90521546D01*
X147106986Y-90710504D01*
X147052470Y-90738281D01*
X147036983Y-90739500D01*
X146090834Y-90739500D01*
X146032643Y-90720593D01*
X146020836Y-90710509D01*
X145999862Y-90689535D01*
X145925638Y-90646682D01*
X145842853Y-90624500D01*
X145757147Y-90624500D01*
X145674362Y-90646682D01*
X145600138Y-90689535D01*
X145539535Y-90750138D01*
X145496682Y-90824362D01*
X145474500Y-90907147D01*
X145474500Y-90992853D01*
X145496682Y-91075638D01*
X145539535Y-91149862D01*
X145600138Y-91210465D01*
X145657780Y-91243744D01*
X145698720Y-91289213D01*
X145705116Y-91350063D01*
X145698240Y-91367984D01*
X145699165Y-91368368D01*
X145696683Y-91374359D01*
X145696682Y-91374361D01*
X145696682Y-91374362D01*
X145674500Y-91457147D01*
X145674500Y-91542853D01*
X145696682Y-91625638D01*
X145739535Y-91699862D01*
X145800138Y-91760465D01*
X145874362Y-91803318D01*
X145957147Y-91825500D01*
X145957149Y-91825500D01*
X146042851Y-91825500D01*
X146042853Y-91825500D01*
X146125638Y-91803318D01*
X146199862Y-91760465D01*
X146260465Y-91699862D01*
X146303318Y-91625638D01*
X146325500Y-91542853D01*
X146325500Y-91457147D01*
X146303318Y-91374362D01*
X146265580Y-91308998D01*
X146252860Y-91249151D01*
X146277747Y-91193256D01*
X146330735Y-91162663D01*
X146351318Y-91160500D01*
X147207054Y-91160500D01*
X147284422Y-91128453D01*
X147422894Y-90989981D01*
X147473380Y-90939496D01*
X147527896Y-90911719D01*
X147543383Y-90910500D01*
X155619815Y-90910500D01*
X155678006Y-90929407D01*
X155713970Y-90978907D01*
X155713970Y-91040093D01*
X155705551Y-91059000D01*
X155696683Y-91074359D01*
X155696682Y-91074361D01*
X155696682Y-91074362D01*
X155674500Y-91157147D01*
X155674500Y-91242853D01*
X155696682Y-91325638D01*
X155739535Y-91399862D01*
X155800138Y-91460465D01*
X155874362Y-91503318D01*
X155957147Y-91525500D01*
X155957149Y-91525500D01*
X156042851Y-91525500D01*
X156042853Y-91525500D01*
X156125638Y-91503318D01*
X156199862Y-91460465D01*
X156260465Y-91399862D01*
X156303318Y-91325638D01*
X156325500Y-91242853D01*
X156325500Y-91177383D01*
X156344407Y-91119192D01*
X156393907Y-91083228D01*
X156455093Y-91083228D01*
X156494504Y-91107379D01*
X160887913Y-95500788D01*
X160915690Y-95555305D01*
X160916909Y-95570792D01*
X160916909Y-95600444D01*
X160939091Y-95683229D01*
X160981944Y-95757453D01*
X161042547Y-95818056D01*
X161116771Y-95860909D01*
X161199556Y-95883091D01*
X161199558Y-95883091D01*
X161285260Y-95883091D01*
X161285262Y-95883091D01*
X161368047Y-95860909D01*
X161442271Y-95818056D01*
X161502874Y-95757453D01*
X161545727Y-95683229D01*
X161567909Y-95600444D01*
X161567909Y-95514738D01*
X161545727Y-95431953D01*
X161502874Y-95357729D01*
X161442271Y-95297126D01*
X161368047Y-95254273D01*
X161285262Y-95232091D01*
X161285260Y-95232091D01*
X161255608Y-95232091D01*
X161197417Y-95213184D01*
X161185604Y-95203095D01*
X157128231Y-91145722D01*
X157100454Y-91091205D01*
X157110025Y-91030773D01*
X157148732Y-90989984D01*
X157199862Y-90960465D01*
X157260465Y-90899862D01*
X157303318Y-90825638D01*
X157325500Y-90742853D01*
X157325500Y-90657147D01*
X157303318Y-90574362D01*
X157260465Y-90500138D01*
X157199862Y-90439535D01*
X157125638Y-90396682D01*
X157042853Y-90374500D01*
X156957147Y-90374500D01*
X156874362Y-90396682D01*
X156800138Y-90439535D01*
X156739534Y-90500139D01*
X156710016Y-90551265D01*
X156664545Y-90592206D01*
X156603695Y-90598600D01*
X156554278Y-90571769D01*
X156504056Y-90521547D01*
X156504054Y-90521546D01*
X156504053Y-90521545D01*
X156426688Y-90489500D01*
X152833057Y-90489500D01*
X152774866Y-90470593D01*
X152738902Y-90421093D01*
X152738902Y-90359907D01*
X152763051Y-90320498D01*
X153426403Y-89657147D01*
X156674500Y-89657147D01*
X156674500Y-89742853D01*
X156696682Y-89825638D01*
X156739535Y-89899862D01*
X156800138Y-89960465D01*
X156874362Y-90003318D01*
X156957147Y-90025500D01*
X156957149Y-90025500D01*
X157042851Y-90025500D01*
X157042853Y-90025500D01*
X157125638Y-90003318D01*
X157199862Y-89960465D01*
X157260465Y-89899862D01*
X157303318Y-89825638D01*
X157325500Y-89742853D01*
X157325500Y-89657147D01*
X157303318Y-89574362D01*
X157260465Y-89500138D01*
X157199862Y-89439535D01*
X157125638Y-89396682D01*
X157042853Y-89374500D01*
X156957147Y-89374500D01*
X156874362Y-89396682D01*
X156800138Y-89439535D01*
X156739535Y-89500138D01*
X156696682Y-89574362D01*
X156674500Y-89657147D01*
X153426403Y-89657147D01*
X153926403Y-89157147D01*
X155674500Y-89157147D01*
X155674500Y-89242853D01*
X155696682Y-89325638D01*
X155739535Y-89399862D01*
X155800138Y-89460465D01*
X155874362Y-89503318D01*
X155957147Y-89525500D01*
X155957149Y-89525500D01*
X156042851Y-89525500D01*
X156042853Y-89525500D01*
X156125638Y-89503318D01*
X156199862Y-89460465D01*
X156260465Y-89399862D01*
X156303318Y-89325638D01*
X156325500Y-89242853D01*
X156325500Y-89157147D01*
X156303318Y-89074362D01*
X156260465Y-89000138D01*
X156199862Y-88939535D01*
X156125638Y-88896682D01*
X156042853Y-88874500D01*
X155957147Y-88874500D01*
X155874362Y-88896682D01*
X155800138Y-88939535D01*
X155739535Y-89000138D01*
X155696682Y-89074362D01*
X155674500Y-89157147D01*
X153926403Y-89157147D01*
X154069976Y-89013574D01*
X154100500Y-88939882D01*
X154100500Y-88860118D01*
X154100500Y-88157147D01*
X155674500Y-88157147D01*
X155674500Y-88242853D01*
X155696682Y-88325638D01*
X155739535Y-88399862D01*
X155800138Y-88460465D01*
X155874362Y-88503318D01*
X155957147Y-88525500D01*
X155957149Y-88525500D01*
X156042851Y-88525500D01*
X156042853Y-88525500D01*
X156125638Y-88503318D01*
X156199862Y-88460465D01*
X156260465Y-88399862D01*
X156303318Y-88325638D01*
X156325500Y-88242853D01*
X156325500Y-88157147D01*
X156303318Y-88074362D01*
X156260465Y-88000138D01*
X156199862Y-87939535D01*
X156125638Y-87896682D01*
X156042853Y-87874500D01*
X155957147Y-87874500D01*
X155874362Y-87896682D01*
X155800138Y-87939535D01*
X155739535Y-88000138D01*
X155696682Y-88074362D01*
X155674500Y-88157147D01*
X154100500Y-88157147D01*
X154100500Y-87657147D01*
X156674500Y-87657147D01*
X156674500Y-87742853D01*
X156696682Y-87825638D01*
X156739535Y-87899862D01*
X156800138Y-87960465D01*
X156874362Y-88003318D01*
X156957147Y-88025500D01*
X156957149Y-88025500D01*
X157042851Y-88025500D01*
X157042853Y-88025500D01*
X157125638Y-88003318D01*
X157199862Y-87960465D01*
X157260465Y-87899862D01*
X157303318Y-87825638D01*
X157325500Y-87742853D01*
X157325500Y-87657147D01*
X157303318Y-87574362D01*
X157260465Y-87500138D01*
X157199862Y-87439535D01*
X157125638Y-87396682D01*
X157042853Y-87374500D01*
X156957147Y-87374500D01*
X156874362Y-87396682D01*
X156800138Y-87439535D01*
X156739535Y-87500138D01*
X156696682Y-87574362D01*
X156674500Y-87657147D01*
X154100500Y-87657147D01*
X154100500Y-86657147D01*
X156674500Y-86657147D01*
X156674500Y-86742853D01*
X156696682Y-86825638D01*
X156739535Y-86899862D01*
X156800138Y-86960465D01*
X156874362Y-87003318D01*
X156957147Y-87025500D01*
X156957149Y-87025500D01*
X157042851Y-87025500D01*
X157042853Y-87025500D01*
X157125638Y-87003318D01*
X157199862Y-86960465D01*
X157260465Y-86899862D01*
X157303318Y-86825638D01*
X157325500Y-86742853D01*
X157325500Y-86657147D01*
X157303318Y-86574362D01*
X157260465Y-86500138D01*
X157199862Y-86439535D01*
X157125638Y-86396682D01*
X157042853Y-86374500D01*
X156957147Y-86374500D01*
X156874362Y-86396682D01*
X156800138Y-86439535D01*
X156739535Y-86500138D01*
X156696682Y-86574362D01*
X156674500Y-86657147D01*
X154100500Y-86657147D01*
X154100500Y-84457147D01*
X155374500Y-84457147D01*
X155374500Y-84542853D01*
X155396682Y-84625638D01*
X155439535Y-84699862D01*
X155500138Y-84760465D01*
X155574362Y-84803318D01*
X155657147Y-84825500D01*
X155657149Y-84825500D01*
X155742851Y-84825500D01*
X155742853Y-84825500D01*
X155825638Y-84803318D01*
X155899862Y-84760465D01*
X155960465Y-84699862D01*
X156003318Y-84625638D01*
X156025500Y-84542853D01*
X156025500Y-84457147D01*
X156003318Y-84374362D01*
X155960465Y-84300138D01*
X155899862Y-84239535D01*
X155825638Y-84196682D01*
X155742853Y-84174500D01*
X155657147Y-84174500D01*
X155574362Y-84196682D01*
X155500138Y-84239535D01*
X155439535Y-84300138D01*
X155396682Y-84374362D01*
X155374500Y-84457147D01*
X154100500Y-84457147D01*
X154100500Y-83600834D01*
X154119407Y-83542643D01*
X154129490Y-83530836D01*
X154160465Y-83499862D01*
X154203318Y-83425638D01*
X154225500Y-83342853D01*
X154225500Y-83257147D01*
X154203318Y-83174362D01*
X154160465Y-83100138D01*
X154099862Y-83039535D01*
X154025638Y-82996682D01*
X153942853Y-82974500D01*
X153857147Y-82974500D01*
X153774362Y-82996682D01*
X153700138Y-83039535D01*
X153639535Y-83100138D01*
X153596682Y-83174362D01*
X153574500Y-83257147D01*
X153574500Y-83342853D01*
X153596682Y-83425638D01*
X153639535Y-83499862D01*
X153670505Y-83530832D01*
X153698281Y-83585347D01*
X153699500Y-83600834D01*
X153699500Y-88775942D01*
X153680593Y-88834133D01*
X153670504Y-88845946D01*
X152545946Y-89970504D01*
X152491429Y-89998281D01*
X152475942Y-89999500D01*
X148624058Y-89999500D01*
X148565867Y-89980593D01*
X148554054Y-89970504D01*
X146954496Y-88370946D01*
X146926719Y-88316429D01*
X146925500Y-88300942D01*
X146925500Y-88257148D01*
X146921669Y-88242851D01*
X146903318Y-88174362D01*
X146860465Y-88100138D01*
X146799862Y-88039535D01*
X146725638Y-87996682D01*
X146642853Y-87974500D01*
X146557147Y-87974500D01*
X146474362Y-87996682D01*
X146400138Y-88039535D01*
X146339535Y-88100138D01*
X146296682Y-88174362D01*
X146274500Y-88257147D01*
X146274500Y-88342853D01*
X146289288Y-88398043D01*
X146296682Y-88425639D01*
X146307006Y-88443520D01*
X146319727Y-88503368D01*
X146294840Y-88559264D01*
X146241851Y-88589856D01*
X146195647Y-88588646D01*
X146142853Y-88574500D01*
X146057147Y-88574500D01*
X145974362Y-88596682D01*
X145900138Y-88639535D01*
X145839535Y-88700138D01*
X145796682Y-88774362D01*
X145774500Y-88857147D01*
X145774500Y-88942853D01*
X145778700Y-88958527D01*
X145796682Y-89025639D01*
X145811325Y-89051001D01*
X145813524Y-89061347D01*
X145819743Y-89069907D01*
X145819743Y-89090604D01*
X145824046Y-89110849D01*
X145819743Y-89120513D01*
X145819743Y-89131093D01*
X145807577Y-89147837D01*
X145799159Y-89166745D01*
X145789997Y-89172034D01*
X145783779Y-89180593D01*
X145764094Y-89186988D01*
X145746170Y-89197337D01*
X145725588Y-89199500D01*
X145724058Y-89199500D01*
X145665867Y-89180593D01*
X145654054Y-89170504D01*
X145529496Y-89045946D01*
X145501719Y-88991429D01*
X145500500Y-88975942D01*
X145500500Y-86407147D01*
X150224500Y-86407147D01*
X150224500Y-86492853D01*
X150246682Y-86575638D01*
X150289535Y-86649862D01*
X150350138Y-86710465D01*
X150424362Y-86753318D01*
X150507147Y-86775500D01*
X150507149Y-86775500D01*
X150592851Y-86775500D01*
X150592853Y-86775500D01*
X150675638Y-86753318D01*
X150749862Y-86710465D01*
X150810465Y-86649862D01*
X150853318Y-86575638D01*
X150875500Y-86492853D01*
X150875500Y-86407147D01*
X150862103Y-86357147D01*
X151074500Y-86357147D01*
X151074500Y-86442853D01*
X151096682Y-86525638D01*
X151139535Y-86599862D01*
X151200138Y-86660465D01*
X151274362Y-86703318D01*
X151357147Y-86725500D01*
X151357149Y-86725500D01*
X151442851Y-86725500D01*
X151442853Y-86725500D01*
X151525638Y-86703318D01*
X151599862Y-86660465D01*
X151660465Y-86599862D01*
X151703318Y-86525638D01*
X151725500Y-86442853D01*
X151725500Y-86357147D01*
X151703318Y-86274362D01*
X151660465Y-86200138D01*
X151599862Y-86139535D01*
X151525638Y-86096682D01*
X151442853Y-86074500D01*
X151357147Y-86074500D01*
X151274362Y-86096682D01*
X151200138Y-86139535D01*
X151139535Y-86200138D01*
X151096682Y-86274362D01*
X151074500Y-86357147D01*
X150862103Y-86357147D01*
X150853318Y-86324362D01*
X150810465Y-86250138D01*
X150749862Y-86189535D01*
X150675638Y-86146682D01*
X150592853Y-86124500D01*
X150507147Y-86124500D01*
X150424362Y-86146682D01*
X150350138Y-86189535D01*
X150289535Y-86250138D01*
X150246682Y-86324362D01*
X150224500Y-86407147D01*
X145500500Y-86407147D01*
X145500500Y-85148321D01*
X145519407Y-85090130D01*
X145529496Y-85078317D01*
X152378317Y-78229496D01*
X152432834Y-78201719D01*
X152448321Y-78200500D01*
X154575500Y-78200500D01*
X154633691Y-78219407D01*
X154669655Y-78268907D01*
X154674500Y-78299500D01*
X154674500Y-78342853D01*
X154696682Y-78425638D01*
X154739535Y-78499862D01*
X154800138Y-78560465D01*
X154874362Y-78603318D01*
X154957147Y-78625500D01*
X154957149Y-78625500D01*
X155042851Y-78625500D01*
X155042853Y-78625500D01*
X155125638Y-78603318D01*
X155144299Y-78592543D01*
X155204146Y-78579821D01*
X155260042Y-78604706D01*
X155290636Y-78657693D01*
X155289427Y-78703901D01*
X155275021Y-78757667D01*
X155275021Y-78757668D01*
X155275021Y-78843374D01*
X155297203Y-78926159D01*
X155340056Y-79000383D01*
X155400659Y-79060986D01*
X155474883Y-79103839D01*
X155557668Y-79126021D01*
X155557670Y-79126021D01*
X155643372Y-79126021D01*
X155643374Y-79126021D01*
X155726159Y-79103839D01*
X155800383Y-79060986D01*
X155860986Y-79000383D01*
X155903839Y-78926159D01*
X155926021Y-78843374D01*
X155926021Y-78757668D01*
X155903839Y-78674883D01*
X155860986Y-78600659D01*
X155830016Y-78569689D01*
X155802240Y-78515172D01*
X155801021Y-78499686D01*
X155801021Y-76559597D01*
X155770497Y-76485906D01*
X155714096Y-76429504D01*
X155314614Y-76030023D01*
X155240924Y-75999500D01*
X155240923Y-75999500D01*
X153839955Y-75999500D01*
X153781764Y-75980593D01*
X153745800Y-75931093D01*
X153745800Y-75869907D01*
X153781764Y-75820407D01*
X153790455Y-75814764D01*
X153815933Y-75800053D01*
X153849862Y-75780465D01*
X153910465Y-75719862D01*
X153953318Y-75645638D01*
X153975500Y-75562853D01*
X153975500Y-75477147D01*
X153953318Y-75394362D01*
X153910465Y-75320138D01*
X153910462Y-75320135D01*
X153910096Y-75319501D01*
X153897374Y-75259652D01*
X153910096Y-75220499D01*
X153910462Y-75219864D01*
X153910465Y-75219862D01*
X153953318Y-75145638D01*
X153975500Y-75062853D01*
X153975500Y-74977147D01*
X153953318Y-74894362D01*
X153910465Y-74820138D01*
X153910462Y-74820135D01*
X153910096Y-74819501D01*
X153897374Y-74759652D01*
X153910096Y-74720499D01*
X153910462Y-74719864D01*
X153910465Y-74719862D01*
X153953318Y-74645638D01*
X153975500Y-74562853D01*
X153975500Y-74477147D01*
X153953318Y-74394362D01*
X153910465Y-74320138D01*
X153849862Y-74259535D01*
X153775638Y-74216682D01*
X153692853Y-74194500D01*
X153607147Y-74194500D01*
X153524362Y-74216682D01*
X153450138Y-74259535D01*
X153389535Y-74320138D01*
X153346682Y-74394362D01*
X153324500Y-74477147D01*
X153324500Y-74562853D01*
X153346682Y-74645638D01*
X153389535Y-74719862D01*
X153389536Y-74719863D01*
X153389904Y-74720500D01*
X153402625Y-74780349D01*
X153389904Y-74819500D01*
X153389536Y-74820136D01*
X153389535Y-74820138D01*
X153346682Y-74894362D01*
X153324500Y-74977147D01*
X153324500Y-75062853D01*
X153346682Y-75145638D01*
X153389535Y-75219862D01*
X153389536Y-75219863D01*
X153389904Y-75220500D01*
X153402625Y-75280349D01*
X153389904Y-75319500D01*
X153389536Y-75320136D01*
X153389535Y-75320138D01*
X153346682Y-75394362D01*
X153324500Y-75477147D01*
X153324500Y-75562853D01*
X153346682Y-75645638D01*
X153389535Y-75719862D01*
X153450138Y-75780465D01*
X153450140Y-75780466D01*
X153509545Y-75814764D01*
X153550486Y-75860233D01*
X153556882Y-75921084D01*
X153526289Y-75974072D01*
X153470393Y-75998958D01*
X153460045Y-75999500D01*
X150560117Y-75999500D01*
X150486428Y-76030022D01*
X141944504Y-84571945D01*
X141889987Y-84599722D01*
X141829555Y-84590151D01*
X141786290Y-84546886D01*
X141775500Y-84501941D01*
X141775500Y-84398621D01*
X141775499Y-84398617D01*
X141770829Y-84375138D01*
X141745698Y-84248795D01*
X141687240Y-84107665D01*
X141687240Y-84107664D01*
X141643933Y-84042851D01*
X141602370Y-83980648D01*
X141494352Y-83872630D01*
X141367337Y-83787761D01*
X141367336Y-83787760D01*
X141367334Y-83787759D01*
X141226205Y-83729302D01*
X141076382Y-83699500D01*
X141076380Y-83699500D01*
X140923620Y-83699500D01*
X140923617Y-83699500D01*
X140773795Y-83729302D01*
X140773793Y-83729302D01*
X140632665Y-83787759D01*
X140632664Y-83787759D01*
X140505648Y-83872630D01*
X140505644Y-83872633D01*
X140397633Y-83980644D01*
X140397630Y-83980648D01*
X140312759Y-84107664D01*
X140312759Y-84107665D01*
X140254302Y-84248793D01*
X140254302Y-84248795D01*
X140224500Y-84398617D01*
X140224500Y-84551382D01*
X140254302Y-84701204D01*
X140254302Y-84701206D01*
X140312759Y-84842334D01*
X140312759Y-84842335D01*
X140336802Y-84878317D01*
X140397630Y-84969352D01*
X140505648Y-85077370D01*
X140632663Y-85162239D01*
X140773795Y-85220698D01*
X140923620Y-85250500D01*
X140923621Y-85250500D01*
X141026941Y-85250500D01*
X141085132Y-85269407D01*
X141121096Y-85318907D01*
X141121096Y-85380093D01*
X141096945Y-85419504D01*
X124520946Y-101995504D01*
X124466429Y-102023281D01*
X124450942Y-102024500D01*
X124407147Y-102024500D01*
X124324362Y-102046682D01*
X124250138Y-102089535D01*
X124189535Y-102150138D01*
X124146682Y-102224362D01*
X124124500Y-102307147D01*
X124124500Y-102392853D01*
X124146682Y-102475638D01*
X124189535Y-102549862D01*
X124250138Y-102610465D01*
X124324362Y-102653318D01*
X124347041Y-102659394D01*
X124355913Y-102665155D01*
X124366364Y-102666811D01*
X124380997Y-102681444D01*
X124398356Y-102692716D01*
X124402148Y-102702594D01*
X124409629Y-102710075D01*
X124412866Y-102730515D01*
X124420284Y-102749837D01*
X124417545Y-102760057D01*
X124419201Y-102770507D01*
X124409805Y-102788947D01*
X124404450Y-102808938D01*
X124391425Y-102825024D01*
X124373599Y-102842851D01*
X124320945Y-102895504D01*
X124266431Y-102923281D01*
X124250943Y-102924500D01*
X124207147Y-102924500D01*
X124124362Y-102946682D01*
X124050138Y-102989535D01*
X123989535Y-103050138D01*
X123946682Y-103124362D01*
X123924500Y-103207147D01*
X117276401Y-103207147D01*
X117848919Y-102634628D01*
X117903434Y-102606853D01*
X117963866Y-102616424D01*
X118007131Y-102659689D01*
X118014545Y-102679005D01*
X118021682Y-102705638D01*
X118064535Y-102779862D01*
X118125138Y-102840465D01*
X118199362Y-102883318D01*
X118282147Y-102905500D01*
X118282149Y-102905500D01*
X118367851Y-102905500D01*
X118367853Y-102905500D01*
X118450638Y-102883318D01*
X118524862Y-102840465D01*
X118585465Y-102779862D01*
X118628318Y-102705638D01*
X118650500Y-102622853D01*
X118650500Y-102537147D01*
X118628318Y-102454362D01*
X118585465Y-102380138D01*
X118524862Y-102319535D01*
X118450638Y-102276682D01*
X118424009Y-102269546D01*
X118372697Y-102236224D01*
X118350770Y-102179103D01*
X118366605Y-102120002D01*
X118379625Y-102103922D01*
X122529053Y-97954496D01*
X122583570Y-97926719D01*
X122599057Y-97925500D01*
X122642851Y-97925500D01*
X122642853Y-97925500D01*
X122725638Y-97903318D01*
X122799862Y-97860465D01*
X122860465Y-97799862D01*
X122903318Y-97725638D01*
X122925500Y-97642853D01*
X122925500Y-97557147D01*
X122903318Y-97474362D01*
X122860465Y-97400138D01*
X122799862Y-97339535D01*
X122725638Y-97296682D01*
X122642853Y-97274500D01*
X122557147Y-97274500D01*
X122501957Y-97289288D01*
X122474361Y-97296682D01*
X122456478Y-97307007D01*
X122396629Y-97319726D01*
X122340734Y-97294838D01*
X122310143Y-97241850D01*
X122311353Y-97195647D01*
X122325500Y-97142853D01*
X122325500Y-97057147D01*
X122303318Y-96974362D01*
X122260465Y-96900138D01*
X122199862Y-96839535D01*
X122125638Y-96796682D01*
X122042853Y-96774500D01*
X121957147Y-96774500D01*
X121874362Y-96796682D01*
X121800138Y-96839535D01*
X121739535Y-96900138D01*
X121696682Y-96974362D01*
X121674500Y-97057147D01*
X121674500Y-97142853D01*
X121681768Y-97169976D01*
X121696682Y-97225639D01*
X121738636Y-97298306D01*
X121751357Y-97358154D01*
X121726470Y-97414050D01*
X121722903Y-97417808D01*
X121369504Y-97771208D01*
X121314987Y-97798986D01*
X121254555Y-97789415D01*
X121211290Y-97746150D01*
X121200500Y-97701205D01*
X121200500Y-96260117D01*
X121169976Y-96186426D01*
X121113574Y-96130023D01*
X121113574Y-96130024D01*
X120496637Y-95513087D01*
X120496635Y-95513086D01*
X120496634Y-95513085D01*
X120422946Y-95482563D01*
X120422945Y-95482563D01*
X119484649Y-95482563D01*
X119426458Y-95463656D01*
X119390494Y-95414156D01*
X119390494Y-95352970D01*
X119426458Y-95303470D01*
X119435137Y-95297833D01*
X119499862Y-95260465D01*
X119560465Y-95199862D01*
X119603318Y-95125638D01*
X119625500Y-95042853D01*
X119625500Y-94957147D01*
X119603318Y-94874362D01*
X119560465Y-94800138D01*
X119499862Y-94739535D01*
X119425638Y-94696682D01*
X119356026Y-94678029D01*
X119304712Y-94644705D01*
X119282786Y-94587584D01*
X119294295Y-94539659D01*
X119293243Y-94539224D01*
X119295721Y-94533237D01*
X119295726Y-94533230D01*
X119317908Y-94450445D01*
X119317908Y-94364739D01*
X119295726Y-94281954D01*
X119252873Y-94207730D01*
X119192270Y-94147127D01*
X119118046Y-94104274D01*
X119035261Y-94082092D01*
X119035259Y-94082092D01*
X118991466Y-94082092D01*
X118933275Y-94063185D01*
X118921462Y-94053096D01*
X118129496Y-93261130D01*
X118101719Y-93206613D01*
X118100500Y-93191126D01*
X118100500Y-92123057D01*
X118119407Y-92064866D01*
X118168907Y-92028902D01*
X118230093Y-92028902D01*
X118269501Y-92053051D01*
X120245505Y-94029055D01*
X120273281Y-94083570D01*
X120274500Y-94099057D01*
X120274500Y-94142853D01*
X120296682Y-94225638D01*
X120339535Y-94299862D01*
X120400138Y-94360465D01*
X120474362Y-94403318D01*
X120557147Y-94425500D01*
X120557149Y-94425500D01*
X120642851Y-94425500D01*
X120642853Y-94425500D01*
X120725638Y-94403318D01*
X120799862Y-94360465D01*
X120860465Y-94299862D01*
X120903318Y-94225638D01*
X120925500Y-94142853D01*
X120925500Y-94119244D01*
X120944407Y-94061053D01*
X120993907Y-94025089D01*
X121050123Y-94023618D01*
X121057147Y-94025500D01*
X121057149Y-94025500D01*
X121142851Y-94025500D01*
X121142853Y-94025500D01*
X121225638Y-94003318D01*
X121299862Y-93960465D01*
X121360465Y-93899862D01*
X121403318Y-93825638D01*
X121425500Y-93742853D01*
X121425500Y-93657147D01*
X121403318Y-93574362D01*
X121360465Y-93500138D01*
X121299862Y-93439535D01*
X121225638Y-93396682D01*
X121142853Y-93374500D01*
X121142851Y-93374500D01*
X121099058Y-93374500D01*
X121040867Y-93355593D01*
X121029054Y-93345504D01*
X120340697Y-92657147D01*
X123674500Y-92657147D01*
X123674500Y-92742853D01*
X123696682Y-92825638D01*
X123739535Y-92899862D01*
X123800138Y-92960465D01*
X123874362Y-93003318D01*
X123957147Y-93025500D01*
X123957149Y-93025500D01*
X124042851Y-93025500D01*
X124042853Y-93025500D01*
X124125638Y-93003318D01*
X124199862Y-92960465D01*
X124260465Y-92899862D01*
X124303318Y-92825638D01*
X124325500Y-92742853D01*
X124325500Y-92657147D01*
X126374500Y-92657147D01*
X126374500Y-92742853D01*
X126396682Y-92825638D01*
X126439535Y-92899862D01*
X126500138Y-92960465D01*
X126574362Y-93003318D01*
X126657147Y-93025500D01*
X126657149Y-93025500D01*
X126742851Y-93025500D01*
X126742853Y-93025500D01*
X126825638Y-93003318D01*
X126899862Y-92960465D01*
X126960465Y-92899862D01*
X127003318Y-92825638D01*
X127025500Y-92742853D01*
X127025500Y-92657147D01*
X127003318Y-92574362D01*
X126960465Y-92500138D01*
X126899862Y-92439535D01*
X126825638Y-92396682D01*
X126742853Y-92374500D01*
X126657147Y-92374500D01*
X126574362Y-92396682D01*
X126500138Y-92439535D01*
X126439535Y-92500138D01*
X126396682Y-92574362D01*
X126374500Y-92657147D01*
X124325500Y-92657147D01*
X124303318Y-92574362D01*
X124260465Y-92500138D01*
X124199862Y-92439535D01*
X124125638Y-92396682D01*
X124042853Y-92374500D01*
X123957147Y-92374500D01*
X123874362Y-92396682D01*
X123800138Y-92439535D01*
X123739535Y-92500138D01*
X123696682Y-92574362D01*
X123674500Y-92657147D01*
X120340697Y-92657147D01*
X119129496Y-91445946D01*
X119101719Y-91391429D01*
X119100500Y-91375942D01*
X119100500Y-88957147D01*
X127974500Y-88957147D01*
X127974500Y-89042853D01*
X127996682Y-89125638D01*
X128039535Y-89199862D01*
X128100138Y-89260465D01*
X128174362Y-89303318D01*
X128257147Y-89325500D01*
X128257149Y-89325500D01*
X128342851Y-89325500D01*
X128342853Y-89325500D01*
X128425638Y-89303318D01*
X128499862Y-89260465D01*
X128560465Y-89199862D01*
X128603318Y-89125638D01*
X128625500Y-89042853D01*
X128625500Y-88957147D01*
X128603318Y-88874362D01*
X128560465Y-88800138D01*
X128499862Y-88739535D01*
X128425638Y-88696682D01*
X128342853Y-88674500D01*
X128257147Y-88674500D01*
X128174362Y-88696682D01*
X128100138Y-88739535D01*
X128039535Y-88800138D01*
X127996682Y-88874362D01*
X127974500Y-88957147D01*
X119100500Y-88957147D01*
X119100500Y-84373994D01*
X119974500Y-84373994D01*
X119974500Y-84576005D01*
X120013908Y-84774124D01*
X120013910Y-84774130D01*
X120091213Y-84960755D01*
X120203439Y-85128714D01*
X120203442Y-85128718D01*
X120346282Y-85271558D01*
X120514244Y-85383786D01*
X120700873Y-85461091D01*
X120898997Y-85500500D01*
X120898998Y-85500500D01*
X121101002Y-85500500D01*
X121101003Y-85500500D01*
X121299127Y-85461091D01*
X121485756Y-85383786D01*
X121653718Y-85271558D01*
X121796558Y-85128718D01*
X121908786Y-84960756D01*
X121986091Y-84774127D01*
X122025500Y-84576003D01*
X122025500Y-84373997D01*
X121986091Y-84175873D01*
X121908786Y-83989244D01*
X121796558Y-83821282D01*
X121653718Y-83678442D01*
X121651473Y-83676942D01*
X121585670Y-83632974D01*
X121485755Y-83566213D01*
X121463868Y-83557147D01*
X127674500Y-83557147D01*
X127674500Y-83642853D01*
X127696682Y-83725638D01*
X127739535Y-83799862D01*
X127800138Y-83860465D01*
X127874362Y-83903318D01*
X127957147Y-83925500D01*
X127957149Y-83925500D01*
X128042851Y-83925500D01*
X128042853Y-83925500D01*
X128125638Y-83903318D01*
X128199862Y-83860465D01*
X128260465Y-83799862D01*
X128303318Y-83725638D01*
X128325500Y-83642853D01*
X128325500Y-83557147D01*
X128674500Y-83557147D01*
X128674500Y-83642853D01*
X128696682Y-83725638D01*
X128739535Y-83799862D01*
X128800138Y-83860465D01*
X128874362Y-83903318D01*
X128957147Y-83925500D01*
X128957149Y-83925500D01*
X129042851Y-83925500D01*
X129042853Y-83925500D01*
X129125638Y-83903318D01*
X129199862Y-83860465D01*
X129260465Y-83799862D01*
X129303318Y-83725638D01*
X129325500Y-83642853D01*
X129325500Y-83557147D01*
X129303318Y-83474362D01*
X129260465Y-83400138D01*
X129199862Y-83339535D01*
X129125638Y-83296682D01*
X129042853Y-83274500D01*
X128957147Y-83274500D01*
X128874362Y-83296682D01*
X128800138Y-83339535D01*
X128739535Y-83400138D01*
X128696682Y-83474362D01*
X128674500Y-83557147D01*
X128325500Y-83557147D01*
X128303318Y-83474362D01*
X128260465Y-83400138D01*
X128199862Y-83339535D01*
X128125638Y-83296682D01*
X128042853Y-83274500D01*
X127957147Y-83274500D01*
X127874362Y-83296682D01*
X127800138Y-83339535D01*
X127739535Y-83400138D01*
X127696682Y-83474362D01*
X127674500Y-83557147D01*
X121463868Y-83557147D01*
X121299130Y-83488910D01*
X121299124Y-83488908D01*
X121101005Y-83449500D01*
X121101003Y-83449500D01*
X120898997Y-83449500D01*
X120898994Y-83449500D01*
X120700875Y-83488908D01*
X120700869Y-83488910D01*
X120514244Y-83566213D01*
X120346285Y-83678439D01*
X120203439Y-83821285D01*
X120091213Y-83989244D01*
X120013910Y-84175869D01*
X120013908Y-84175875D01*
X119974500Y-84373994D01*
X119100500Y-84373994D01*
X119100500Y-81060116D01*
X119070856Y-80988548D01*
X119070855Y-80988547D01*
X119069976Y-80986426D01*
X119040698Y-80957147D01*
X126174500Y-80957147D01*
X126174500Y-81042853D01*
X126196682Y-81125638D01*
X126239535Y-81199862D01*
X126300138Y-81260465D01*
X126374362Y-81303318D01*
X126457147Y-81325500D01*
X126457149Y-81325500D01*
X126542851Y-81325500D01*
X126542853Y-81325500D01*
X126625638Y-81303318D01*
X126699862Y-81260465D01*
X126760465Y-81199862D01*
X126803318Y-81125638D01*
X126825500Y-81042853D01*
X126825500Y-80957147D01*
X127174500Y-80957147D01*
X127174500Y-81042853D01*
X127196682Y-81125638D01*
X127239535Y-81199862D01*
X127300138Y-81260465D01*
X127374362Y-81303318D01*
X127457147Y-81325500D01*
X127457149Y-81325500D01*
X127542851Y-81325500D01*
X127542853Y-81325500D01*
X127625638Y-81303318D01*
X127699862Y-81260465D01*
X127760465Y-81199862D01*
X127803318Y-81125638D01*
X127825500Y-81042853D01*
X127825500Y-80957147D01*
X129174500Y-80957147D01*
X129174500Y-81042853D01*
X129196682Y-81125638D01*
X129239535Y-81199862D01*
X129300138Y-81260465D01*
X129374362Y-81303318D01*
X129457147Y-81325500D01*
X129457149Y-81325500D01*
X129542851Y-81325500D01*
X129542853Y-81325500D01*
X129625638Y-81303318D01*
X129699862Y-81260465D01*
X129760465Y-81199862D01*
X129803318Y-81125638D01*
X129825500Y-81042853D01*
X129825500Y-80957147D01*
X130174500Y-80957147D01*
X130174500Y-81042853D01*
X130196682Y-81125638D01*
X130239535Y-81199862D01*
X130300138Y-81260465D01*
X130374362Y-81303318D01*
X130457147Y-81325500D01*
X130457149Y-81325500D01*
X130542851Y-81325500D01*
X130542853Y-81325500D01*
X130625638Y-81303318D01*
X130699862Y-81260465D01*
X130760465Y-81199862D01*
X130803318Y-81125638D01*
X130825500Y-81042853D01*
X130825500Y-80957147D01*
X130803318Y-80874362D01*
X130760465Y-80800138D01*
X130699862Y-80739535D01*
X130625638Y-80696682D01*
X130542853Y-80674500D01*
X130457147Y-80674500D01*
X130374362Y-80696682D01*
X130300138Y-80739535D01*
X130239535Y-80800138D01*
X130196682Y-80874362D01*
X130174500Y-80957147D01*
X129825500Y-80957147D01*
X129803318Y-80874362D01*
X129760465Y-80800138D01*
X129699862Y-80739535D01*
X129625638Y-80696682D01*
X129542853Y-80674500D01*
X129457147Y-80674500D01*
X129374362Y-80696682D01*
X129300138Y-80739535D01*
X129239535Y-80800138D01*
X129196682Y-80874362D01*
X129174500Y-80957147D01*
X127825500Y-80957147D01*
X127803318Y-80874362D01*
X127760465Y-80800138D01*
X127699862Y-80739535D01*
X127625638Y-80696682D01*
X127542853Y-80674500D01*
X127457147Y-80674500D01*
X127374362Y-80696682D01*
X127300138Y-80739535D01*
X127239535Y-80800138D01*
X127196682Y-80874362D01*
X127174500Y-80957147D01*
X126825500Y-80957147D01*
X126803318Y-80874362D01*
X126760465Y-80800138D01*
X126699862Y-80739535D01*
X126625638Y-80696682D01*
X126542853Y-80674500D01*
X126457147Y-80674500D01*
X126374362Y-80696682D01*
X126300138Y-80739535D01*
X126239535Y-80800138D01*
X126196682Y-80874362D01*
X126174500Y-80957147D01*
X119040698Y-80957147D01*
X119013574Y-80930023D01*
X119013574Y-80930024D01*
X113590697Y-75507147D01*
X131124500Y-75507147D01*
X131124500Y-75592853D01*
X131146682Y-75675638D01*
X131189535Y-75749862D01*
X131250138Y-75810465D01*
X131324362Y-75853318D01*
X131407147Y-75875500D01*
X131407149Y-75875500D01*
X131492851Y-75875500D01*
X131492853Y-75875500D01*
X131575638Y-75853318D01*
X131649862Y-75810465D01*
X131710465Y-75749862D01*
X131753318Y-75675638D01*
X131775500Y-75592853D01*
X131775500Y-75507147D01*
X131753318Y-75424362D01*
X131710465Y-75350138D01*
X131649862Y-75289535D01*
X131575638Y-75246682D01*
X131492853Y-75224500D01*
X131407147Y-75224500D01*
X131324362Y-75246682D01*
X131250138Y-75289535D01*
X131189535Y-75350138D01*
X131146682Y-75424362D01*
X131124500Y-75507147D01*
X113590697Y-75507147D01*
X111354496Y-73270946D01*
X111326719Y-73216429D01*
X111325500Y-73200942D01*
X111325500Y-73157148D01*
X111325500Y-73157147D01*
X111303318Y-73074362D01*
X111260465Y-73000138D01*
X111199862Y-72939535D01*
X111125638Y-72896682D01*
X111042853Y-72874500D01*
X110957147Y-72874500D01*
X110874362Y-72896682D01*
X110800138Y-72939535D01*
X110739535Y-73000138D01*
X110696682Y-73074362D01*
X110674500Y-73157147D01*
X110674500Y-73242853D01*
X110696682Y-73325638D01*
X110739535Y-73399862D01*
X110800138Y-73460465D01*
X110874362Y-73503318D01*
X110957147Y-73525500D01*
X111000942Y-73525500D01*
X111059133Y-73544407D01*
X111070946Y-73554496D01*
X118670504Y-81154054D01*
X118698281Y-81208571D01*
X118699500Y-81224058D01*
X118699500Y-81476943D01*
X118692336Y-81498990D01*
X118688710Y-81521888D01*
X118683061Y-81527536D01*
X118680593Y-81535134D01*
X118661836Y-81548761D01*
X118645445Y-81565153D01*
X118637555Y-81566402D01*
X118631093Y-81571098D01*
X118607908Y-81571098D01*
X118585013Y-81574724D01*
X118577896Y-81571098D01*
X118569907Y-81571098D01*
X118530498Y-81546948D01*
X118513574Y-81530024D01*
X118513572Y-81530023D01*
X114783049Y-77799500D01*
X111054496Y-74070946D01*
X111026719Y-74016429D01*
X111025500Y-74000942D01*
X111025500Y-73957148D01*
X111020562Y-73938718D01*
X111003318Y-73874362D01*
X110960465Y-73800138D01*
X110899862Y-73739535D01*
X110825638Y-73696682D01*
X110742853Y-73674500D01*
X110657147Y-73674500D01*
X110574362Y-73696682D01*
X110500138Y-73739535D01*
X110439535Y-73800138D01*
X110396682Y-73874362D01*
X110374500Y-73957147D01*
X110374500Y-74042853D01*
X110396682Y-74125638D01*
X110439535Y-74199862D01*
X110500138Y-74260465D01*
X110574362Y-74303318D01*
X110657147Y-74325500D01*
X110700942Y-74325500D01*
X110759133Y-74344407D01*
X110770946Y-74354496D01*
X118170504Y-81754053D01*
X118198281Y-81808570D01*
X118199500Y-81824057D01*
X118199500Y-82176942D01*
X118180593Y-82235133D01*
X118131093Y-82271097D01*
X118069907Y-82271097D01*
X118030496Y-82246946D01*
X118013574Y-82230024D01*
X115668050Y-79884500D01*
X112813574Y-77030024D01*
X112813572Y-77030023D01*
X112813571Y-77030022D01*
X112739883Y-76999500D01*
X112739882Y-76999500D01*
X112000835Y-76999500D01*
X111942644Y-76980593D01*
X111930832Y-76970505D01*
X111899862Y-76939535D01*
X111834362Y-76901719D01*
X111825638Y-76896682D01*
X111742853Y-76874500D01*
X111657147Y-76874500D01*
X111574362Y-76896682D01*
X111500138Y-76939535D01*
X111439535Y-77000138D01*
X111396682Y-77074362D01*
X111374500Y-77157147D01*
X111374500Y-77242853D01*
X111396682Y-77325638D01*
X111439535Y-77399862D01*
X111470171Y-77430498D01*
X111480694Y-77451151D01*
X111494321Y-77469907D01*
X111494321Y-77477896D01*
X111497947Y-77485013D01*
X111494321Y-77507907D01*
X111494321Y-77531093D01*
X111489625Y-77537555D01*
X111488376Y-77545445D01*
X111471984Y-77561836D01*
X111458357Y-77580593D01*
X111450759Y-77583061D01*
X111445111Y-77588710D01*
X111400166Y-77599500D01*
X111224056Y-77599500D01*
X111165865Y-77580593D01*
X111154052Y-77570503D01*
X110754496Y-77170946D01*
X110726719Y-77116430D01*
X110725500Y-77100943D01*
X110725500Y-77057148D01*
X110725500Y-77057147D01*
X110703318Y-76974362D01*
X110660465Y-76900138D01*
X110599862Y-76839535D01*
X110525638Y-76796682D01*
X110442853Y-76774500D01*
X110357147Y-76774500D01*
X110274362Y-76796682D01*
X110200138Y-76839535D01*
X110139535Y-76900138D01*
X110096682Y-76974362D01*
X110076261Y-77050577D01*
X110074500Y-77057148D01*
X110074500Y-77111154D01*
X110055593Y-77169345D01*
X110006093Y-77205309D01*
X109944907Y-77205309D01*
X109926008Y-77196895D01*
X109925642Y-77196684D01*
X109925640Y-77196683D01*
X109925639Y-77196682D01*
X109925638Y-77196682D01*
X109842853Y-77174500D01*
X109757147Y-77174500D01*
X109674362Y-77196682D01*
X109600138Y-77239535D01*
X109539535Y-77300138D01*
X109496682Y-77374362D01*
X109474500Y-77457147D01*
X109474500Y-77542853D01*
X109496682Y-77625638D01*
X109539535Y-77699862D01*
X109600138Y-77760465D01*
X109674362Y-77803318D01*
X109757147Y-77825500D01*
X109800942Y-77825500D01*
X109859133Y-77844407D01*
X109870946Y-77854496D01*
X110530024Y-78513574D01*
X110530023Y-78513574D01*
X110586426Y-78569976D01*
X110660117Y-78600500D01*
X110660118Y-78600500D01*
X111275942Y-78600500D01*
X111334133Y-78619407D01*
X111345946Y-78629496D01*
X116670504Y-83954054D01*
X116698281Y-84008571D01*
X116699500Y-84024058D01*
X116699500Y-93952174D01*
X116730022Y-94025863D01*
X116730023Y-94025864D01*
X116730024Y-94025866D01*
X117378520Y-94674362D01*
X118017717Y-95313559D01*
X118028241Y-95334214D01*
X118041868Y-95352970D01*
X118041868Y-95360959D01*
X118045494Y-95368076D01*
X118041868Y-95390970D01*
X118041868Y-95414156D01*
X118037172Y-95420618D01*
X118035923Y-95428508D01*
X118019531Y-95444899D01*
X118005904Y-95463656D01*
X117998306Y-95466124D01*
X117992658Y-95471773D01*
X117947713Y-95482563D01*
X117907121Y-95482563D01*
X117848930Y-95463656D01*
X117837117Y-95453567D01*
X116529496Y-94145946D01*
X116501719Y-94091429D01*
X116500500Y-94075942D01*
X116500500Y-84560117D01*
X116469976Y-84486426D01*
X116413574Y-84430023D01*
X116413574Y-84430024D01*
X111213574Y-79230024D01*
X111213572Y-79230023D01*
X111213571Y-79230022D01*
X111139883Y-79199500D01*
X111139882Y-79199500D01*
X110624058Y-79199500D01*
X110565867Y-79180593D01*
X110554054Y-79170504D01*
X109454496Y-78070946D01*
X109426719Y-78016429D01*
X109425500Y-78000942D01*
X109425500Y-77957148D01*
X109425500Y-77957147D01*
X109403318Y-77874362D01*
X109360465Y-77800138D01*
X109299862Y-77739535D01*
X109225638Y-77696682D01*
X109142853Y-77674500D01*
X109057147Y-77674500D01*
X108974362Y-77696682D01*
X108900138Y-77739535D01*
X108839535Y-77800138D01*
X108796682Y-77874362D01*
X108774500Y-77957147D01*
X108774500Y-78042853D01*
X108796682Y-78125638D01*
X108839535Y-78199862D01*
X108900138Y-78260465D01*
X108974362Y-78303318D01*
X109057147Y-78325500D01*
X109100942Y-78325500D01*
X109159133Y-78344407D01*
X109170946Y-78354496D01*
X110330024Y-79513574D01*
X110330023Y-79513574D01*
X110386426Y-79569976D01*
X110460117Y-79600500D01*
X110460118Y-79600500D01*
X110975942Y-79600500D01*
X111034133Y-79619407D01*
X111045946Y-79629496D01*
X113274125Y-81857675D01*
X113301902Y-81912192D01*
X113292331Y-81972624D01*
X113249066Y-82015889D01*
X113188634Y-82025460D01*
X113154624Y-82013417D01*
X113125638Y-81996682D01*
X113042853Y-81974500D01*
X112957147Y-81974500D01*
X112874362Y-81996682D01*
X112800138Y-82039535D01*
X112739535Y-82100138D01*
X112696682Y-82174362D01*
X112674500Y-82257147D01*
X112674500Y-82342853D01*
X112696682Y-82425638D01*
X112739535Y-82499862D01*
X112800138Y-82560465D01*
X112874362Y-82603318D01*
X112957147Y-82625500D01*
X112957149Y-82625500D01*
X113042851Y-82625500D01*
X113042853Y-82625500D01*
X113125638Y-82603318D01*
X113199862Y-82560465D01*
X113260465Y-82499862D01*
X113303318Y-82425638D01*
X113325500Y-82342853D01*
X113325500Y-82257147D01*
X113303318Y-82174362D01*
X113286583Y-82145376D01*
X113273862Y-82085530D01*
X113298748Y-82029635D01*
X113351736Y-81999042D01*
X113412586Y-82005437D01*
X113442324Y-82025874D01*
X116070504Y-84654054D01*
X116098281Y-84708571D01*
X116099500Y-84724058D01*
X116099500Y-94239882D01*
X116130022Y-94313571D01*
X116130023Y-94313572D01*
X116130024Y-94313574D01*
X116841950Y-95025500D01*
X117546946Y-95730496D01*
X117574723Y-95785013D01*
X117565152Y-95845445D01*
X117521887Y-95888710D01*
X117476942Y-95899500D01*
X117224058Y-95899500D01*
X117165867Y-95880593D01*
X117154054Y-95870504D01*
X116883992Y-95600442D01*
X116613574Y-95330024D01*
X116613572Y-95330023D01*
X116613571Y-95330022D01*
X116539883Y-95299500D01*
X116539882Y-95299500D01*
X115300835Y-95299500D01*
X115242644Y-95280593D01*
X115230832Y-95270505D01*
X115199862Y-95239535D01*
X115125638Y-95196682D01*
X115042853Y-95174500D01*
X114957147Y-95174500D01*
X114874362Y-95196682D01*
X114800138Y-95239535D01*
X114739535Y-95300138D01*
X114696682Y-95374362D01*
X114674500Y-95457147D01*
X114674500Y-95542853D01*
X114678306Y-95557057D01*
X114675103Y-95618158D01*
X114636598Y-95665708D01*
X114577497Y-95681543D01*
X114557057Y-95678306D01*
X114542853Y-95674500D01*
X114457147Y-95674500D01*
X114374362Y-95696682D01*
X114300138Y-95739535D01*
X114239535Y-95800138D01*
X114196682Y-95874362D01*
X114174500Y-95957147D01*
X114174500Y-96042853D01*
X114189779Y-96099878D01*
X114186577Y-96160978D01*
X114148072Y-96208528D01*
X114094153Y-96224500D01*
X111074834Y-96224500D01*
X111016643Y-96205593D01*
X110980679Y-96156093D01*
X110980679Y-96094907D01*
X111004828Y-96055498D01*
X111060465Y-95999862D01*
X111103318Y-95925638D01*
X111125500Y-95842853D01*
X111125500Y-95757147D01*
X111103318Y-95674362D01*
X111060465Y-95600138D01*
X110999862Y-95539535D01*
X110925638Y-95496682D01*
X110842853Y-95474500D01*
X110842851Y-95474500D01*
X110799058Y-95474500D01*
X110740867Y-95455593D01*
X110729054Y-95445504D01*
X110478054Y-95194504D01*
X110450277Y-95139987D01*
X110459848Y-95079555D01*
X110503113Y-95036290D01*
X110536667Y-95028234D01*
X110536419Y-95026347D01*
X110542850Y-95025500D01*
X110542853Y-95025500D01*
X110625638Y-95003318D01*
X110699862Y-94960465D01*
X110760465Y-94899862D01*
X110803318Y-94825638D01*
X110825500Y-94742853D01*
X110825500Y-94724500D01*
X110844407Y-94666309D01*
X110893907Y-94630345D01*
X110924500Y-94625500D01*
X110942851Y-94625500D01*
X110942853Y-94625500D01*
X111025638Y-94603318D01*
X111099862Y-94560465D01*
X111160465Y-94499862D01*
X111203318Y-94425638D01*
X111225500Y-94342853D01*
X111225500Y-94257147D01*
X111223618Y-94250123D01*
X111226818Y-94189024D01*
X111265322Y-94141473D01*
X111319244Y-94125500D01*
X111342851Y-94125500D01*
X111342853Y-94125500D01*
X111425638Y-94103318D01*
X111499862Y-94060465D01*
X111560465Y-93999862D01*
X111603318Y-93925638D01*
X111625500Y-93842853D01*
X111625500Y-93824500D01*
X111644407Y-93766309D01*
X111693907Y-93730345D01*
X111724500Y-93725500D01*
X111742851Y-93725500D01*
X111742853Y-93725500D01*
X111825638Y-93703318D01*
X111899862Y-93660465D01*
X111960465Y-93599862D01*
X112003318Y-93525638D01*
X112025500Y-93442853D01*
X112025500Y-93357147D01*
X112003318Y-93274362D01*
X111960465Y-93200138D01*
X111899862Y-93139535D01*
X111825638Y-93096682D01*
X111742853Y-93074500D01*
X111742851Y-93074500D01*
X111699058Y-93074500D01*
X111640867Y-93055593D01*
X111629054Y-93045504D01*
X110829496Y-92245946D01*
X110801719Y-92191429D01*
X110800500Y-92175942D01*
X110800500Y-89460117D01*
X110769976Y-89386426D01*
X110713574Y-89330023D01*
X110713574Y-89330024D01*
X109754496Y-88370946D01*
X109726719Y-88316429D01*
X109725500Y-88300942D01*
X109725500Y-88257148D01*
X109721669Y-88242851D01*
X109703318Y-88174362D01*
X109660465Y-88100138D01*
X109599862Y-88039535D01*
X109525638Y-87996682D01*
X109442853Y-87974500D01*
X109357147Y-87974500D01*
X109274362Y-87996682D01*
X109200138Y-88039535D01*
X109139535Y-88100138D01*
X109096682Y-88174362D01*
X109074500Y-88257148D01*
X109074500Y-88342855D01*
X109080626Y-88365718D01*
X109077423Y-88426819D01*
X109038917Y-88474368D01*
X109010623Y-88486965D01*
X108974365Y-88496680D01*
X108924447Y-88525500D01*
X108900138Y-88539535D01*
X108839535Y-88600138D01*
X108796682Y-88674362D01*
X108774500Y-88757147D01*
X108774500Y-88842853D01*
X108776381Y-88849876D01*
X108773182Y-88910976D01*
X108734678Y-88958527D01*
X108680756Y-88974500D01*
X108657147Y-88974500D01*
X108574362Y-88996682D01*
X108500138Y-89039535D01*
X108439535Y-89100138D01*
X108396682Y-89174362D01*
X108374500Y-89257147D01*
X108374500Y-89342853D01*
X108396682Y-89425638D01*
X108396890Y-89425999D01*
X108396952Y-89426290D01*
X108399165Y-89431632D01*
X108398175Y-89432042D01*
X108409613Y-89485845D01*
X108384729Y-89541741D01*
X108331742Y-89572336D01*
X108311155Y-89574500D01*
X108257147Y-89574500D01*
X108174362Y-89596682D01*
X108100138Y-89639535D01*
X108039535Y-89700138D01*
X107996682Y-89774362D01*
X107974500Y-89857147D01*
X107974500Y-89942853D01*
X107996682Y-90025638D01*
X108039535Y-90099862D01*
X108100138Y-90160465D01*
X108174362Y-90203318D01*
X108257147Y-90225500D01*
X108300942Y-90225500D01*
X108359133Y-90244407D01*
X108370946Y-90254496D01*
X108870504Y-90754054D01*
X108898281Y-90808571D01*
X108899500Y-90824058D01*
X108899500Y-93339883D01*
X108904244Y-93351337D01*
X108909045Y-93412333D01*
X108877075Y-93464502D01*
X108820547Y-93487917D01*
X108761052Y-93473633D01*
X108742776Y-93459226D01*
X108729496Y-93445946D01*
X108701719Y-93391429D01*
X108700500Y-93375942D01*
X108700500Y-92060117D01*
X108669976Y-91986426D01*
X108613574Y-91930023D01*
X108613574Y-91930024D01*
X107554496Y-90870946D01*
X107526719Y-90816429D01*
X107525500Y-90800942D01*
X107525500Y-90757148D01*
X107521669Y-90742851D01*
X107503318Y-90674362D01*
X107460465Y-90600138D01*
X107399862Y-90539535D01*
X107325638Y-90496682D01*
X107242853Y-90474500D01*
X107157147Y-90474500D01*
X107074362Y-90496682D01*
X107000138Y-90539535D01*
X106939535Y-90600138D01*
X106896682Y-90674362D01*
X106874500Y-90757147D01*
X106874500Y-90842853D01*
X106896682Y-90925638D01*
X106939535Y-90999862D01*
X107000138Y-91060465D01*
X107074362Y-91103318D01*
X107157147Y-91125500D01*
X107200942Y-91125500D01*
X107259133Y-91144407D01*
X107270946Y-91154496D01*
X107874125Y-91757675D01*
X107901902Y-91812192D01*
X107892331Y-91872624D01*
X107849066Y-91915889D01*
X107788634Y-91925460D01*
X107754624Y-91913417D01*
X107725638Y-91896682D01*
X107642853Y-91874500D01*
X107557147Y-91874500D01*
X107474362Y-91896682D01*
X107400138Y-91939535D01*
X107339535Y-92000138D01*
X107296682Y-92074362D01*
X107274500Y-92157147D01*
X107274500Y-92242853D01*
X107296682Y-92325638D01*
X107339535Y-92399862D01*
X107400138Y-92460465D01*
X107400140Y-92460466D01*
X107450885Y-92489764D01*
X107491826Y-92535233D01*
X107498222Y-92596083D01*
X107467629Y-92649071D01*
X107411733Y-92673958D01*
X107401385Y-92674500D01*
X107357147Y-92674500D01*
X107274362Y-92696682D01*
X107200138Y-92739535D01*
X107139535Y-92800138D01*
X107096682Y-92874362D01*
X107074500Y-92957147D01*
X107074500Y-93042853D01*
X107096682Y-93125638D01*
X107139535Y-93199862D01*
X107200138Y-93260465D01*
X107274362Y-93303318D01*
X107357147Y-93325500D01*
X107357149Y-93325500D01*
X107442851Y-93325500D01*
X107442853Y-93325500D01*
X107525638Y-93303318D01*
X107599862Y-93260465D01*
X107630498Y-93229828D01*
X107685013Y-93202053D01*
X107745445Y-93211624D01*
X107788710Y-93254889D01*
X107799500Y-93299834D01*
X107799500Y-93700166D01*
X107780593Y-93758357D01*
X107731093Y-93794321D01*
X107669907Y-93794321D01*
X107630498Y-93770171D01*
X107599862Y-93739535D01*
X107525638Y-93696682D01*
X107442853Y-93674500D01*
X107357147Y-93674500D01*
X107274362Y-93696682D01*
X107200138Y-93739535D01*
X107139535Y-93800138D01*
X107096682Y-93874362D01*
X107074500Y-93957147D01*
X107074500Y-94042853D01*
X107096682Y-94125638D01*
X107139535Y-94199862D01*
X107200138Y-94260465D01*
X107274362Y-94303318D01*
X107357147Y-94325500D01*
X107357149Y-94325500D01*
X107442851Y-94325500D01*
X107442853Y-94325500D01*
X107525638Y-94303318D01*
X107599862Y-94260465D01*
X107660465Y-94199862D01*
X107703318Y-94125638D01*
X107709395Y-94102954D01*
X107742719Y-94051642D01*
X107799840Y-94029715D01*
X107858941Y-94045550D01*
X107875020Y-94058570D01*
X108684848Y-94868398D01*
X109446946Y-95630496D01*
X109474723Y-95685013D01*
X109465152Y-95745445D01*
X109421887Y-95788710D01*
X109376942Y-95799500D01*
X107700835Y-95799500D01*
X107642644Y-95780593D01*
X107630832Y-95770505D01*
X107599862Y-95739535D01*
X107584206Y-95730496D01*
X107525638Y-95696682D01*
X107442853Y-95674500D01*
X107357147Y-95674500D01*
X107274362Y-95696682D01*
X107200138Y-95739535D01*
X107139535Y-95800138D01*
X107096682Y-95874362D01*
X107074500Y-95957147D01*
X107074500Y-96042853D01*
X107096682Y-96125638D01*
X107139535Y-96199862D01*
X107200138Y-96260465D01*
X107274362Y-96303318D01*
X107357147Y-96325500D01*
X107357149Y-96325500D01*
X107442851Y-96325500D01*
X107442853Y-96325500D01*
X107525638Y-96303318D01*
X107599862Y-96260465D01*
X107630832Y-96229495D01*
X107637949Y-96225868D01*
X107642644Y-96219407D01*
X107664693Y-96212242D01*
X107685349Y-96201719D01*
X107700835Y-96200500D01*
X107854544Y-96200500D01*
X107912735Y-96219407D01*
X107948699Y-96268907D01*
X107948699Y-96330093D01*
X107912735Y-96379593D01*
X107880169Y-96395126D01*
X107874362Y-96396682D01*
X107800138Y-96439535D01*
X107739535Y-96500138D01*
X107696682Y-96574362D01*
X107674500Y-96657147D01*
X107674500Y-96742853D01*
X107696682Y-96825638D01*
X107739535Y-96899862D01*
X107800138Y-96960465D01*
X107874362Y-97003318D01*
X107957147Y-97025500D01*
X107957149Y-97025500D01*
X108042851Y-97025500D01*
X108042853Y-97025500D01*
X108125638Y-97003318D01*
X108199862Y-96960465D01*
X108230832Y-96929495D01*
X108285349Y-96901719D01*
X108300835Y-96900500D01*
X109275943Y-96900500D01*
X109334134Y-96919407D01*
X109345945Y-96929495D01*
X109472043Y-97055593D01*
X109496427Y-97079976D01*
X109524205Y-97134493D01*
X109514634Y-97194925D01*
X109471369Y-97238189D01*
X109426424Y-97248980D01*
X107910637Y-97248980D01*
X107836946Y-97279503D01*
X107470945Y-97645504D01*
X107416429Y-97673281D01*
X107400942Y-97674500D01*
X107357147Y-97674500D01*
X107274362Y-97696682D01*
X107200138Y-97739535D01*
X107139535Y-97800138D01*
X107096682Y-97874362D01*
X107074500Y-97957147D01*
X107074500Y-98042853D01*
X107096682Y-98125638D01*
X107139535Y-98199862D01*
X107200138Y-98260465D01*
X107274362Y-98303318D01*
X107357147Y-98325500D01*
X107357149Y-98325500D01*
X107442851Y-98325500D01*
X107442853Y-98325500D01*
X107525638Y-98303318D01*
X107599862Y-98260465D01*
X107660465Y-98199862D01*
X107703318Y-98125638D01*
X107725500Y-98042853D01*
X107725500Y-97999058D01*
X107744407Y-97940867D01*
X107754496Y-97929054D01*
X108004574Y-97678976D01*
X108059091Y-97651199D01*
X108074578Y-97649980D01*
X108358985Y-97649980D01*
X108417176Y-97668887D01*
X108453140Y-97718387D01*
X108453140Y-97779573D01*
X108417176Y-97829073D01*
X108408491Y-97834712D01*
X108403811Y-97837413D01*
X108400139Y-97839534D01*
X108400138Y-97839535D01*
X108339535Y-97900138D01*
X108296682Y-97974362D01*
X108274500Y-98057147D01*
X108274500Y-98142853D01*
X108296682Y-98225638D01*
X108339535Y-98299862D01*
X108400138Y-98360465D01*
X108474362Y-98403318D01*
X108557147Y-98425500D01*
X108557149Y-98425500D01*
X108642851Y-98425500D01*
X108642853Y-98425500D01*
X108725638Y-98403318D01*
X108799862Y-98360465D01*
X108860465Y-98299862D01*
X108903318Y-98225638D01*
X108925500Y-98142853D01*
X108925500Y-98057147D01*
X108903318Y-97974362D01*
X108860465Y-97900138D01*
X108799862Y-97839535D01*
X108791514Y-97834715D01*
X108750575Y-97789248D01*
X108744178Y-97728398D01*
X108774770Y-97675410D01*
X108830665Y-97650522D01*
X108841015Y-97649980D01*
X109154756Y-97649980D01*
X109212947Y-97668887D01*
X109248911Y-97718387D01*
X109248911Y-97779573D01*
X109240493Y-97798480D01*
X109239536Y-97800136D01*
X109239535Y-97800138D01*
X109196682Y-97874362D01*
X109174500Y-97957147D01*
X109174500Y-98042853D01*
X109196682Y-98125638D01*
X109239535Y-98199862D01*
X109300138Y-98260465D01*
X109374362Y-98303318D01*
X109457147Y-98325500D01*
X109457149Y-98325500D01*
X109542851Y-98325500D01*
X109542853Y-98325500D01*
X109625638Y-98303318D01*
X109699862Y-98260465D01*
X109760465Y-98199862D01*
X109803318Y-98125638D01*
X109825500Y-98042853D01*
X109825500Y-97957147D01*
X109803318Y-97874362D01*
X109760465Y-97800138D01*
X109760463Y-97800136D01*
X109759507Y-97798480D01*
X109746786Y-97738631D01*
X109771673Y-97682736D01*
X109824661Y-97652143D01*
X109845244Y-97649980D01*
X110700991Y-97649980D01*
X110722987Y-97657127D01*
X110745833Y-97660718D01*
X110751528Y-97666400D01*
X110759182Y-97668887D01*
X110772777Y-97687600D01*
X110789148Y-97703932D01*
X110789914Y-97711186D01*
X110795146Y-97718387D01*
X110798790Y-97764352D01*
X110797416Y-97773089D01*
X110796682Y-97774362D01*
X110774500Y-97857147D01*
X110774500Y-97918885D01*
X110773299Y-97926526D01*
X110762774Y-97947241D01*
X110755593Y-97969345D01*
X110749177Y-97974006D01*
X110745586Y-97981075D01*
X110724895Y-97991648D01*
X110706093Y-98005309D01*
X110698162Y-98005309D01*
X110691102Y-98008917D01*
X110668148Y-98005309D01*
X110644907Y-98005309D01*
X110632223Y-97999662D01*
X110630658Y-97999416D01*
X110629842Y-97998601D01*
X110626008Y-97996895D01*
X110625642Y-97996684D01*
X110625640Y-97996683D01*
X110625639Y-97996682D01*
X110625638Y-97996682D01*
X110542853Y-97974500D01*
X110457147Y-97974500D01*
X110374362Y-97996682D01*
X110300138Y-98039535D01*
X110239535Y-98100138D01*
X110196682Y-98174362D01*
X110177234Y-98246946D01*
X110174500Y-98257148D01*
X110174500Y-98280755D01*
X110155593Y-98338946D01*
X110106093Y-98374910D01*
X110049881Y-98376383D01*
X110042853Y-98374500D01*
X109957147Y-98374500D01*
X109874362Y-98396682D01*
X109800138Y-98439535D01*
X109739535Y-98500138D01*
X109696682Y-98574362D01*
X109674500Y-98657147D01*
X109674500Y-98742853D01*
X109696682Y-98825638D01*
X109739535Y-98899862D01*
X109800138Y-98960465D01*
X109874362Y-99003318D01*
X109957147Y-99025500D01*
X109957149Y-99025500D01*
X110042851Y-99025500D01*
X110042853Y-99025500D01*
X110125638Y-99003318D01*
X110199862Y-98960465D01*
X110260465Y-98899862D01*
X110303318Y-98825638D01*
X110325500Y-98742853D01*
X110325500Y-98719244D01*
X110344407Y-98661053D01*
X110393907Y-98625089D01*
X110450123Y-98623618D01*
X110457147Y-98625500D01*
X110457149Y-98625500D01*
X110542851Y-98625500D01*
X110542853Y-98625500D01*
X110625638Y-98603318D01*
X110699862Y-98560465D01*
X110760465Y-98499862D01*
X110803318Y-98425638D01*
X110825500Y-98342853D01*
X110825500Y-98288845D01*
X110844407Y-98230654D01*
X110893907Y-98194690D01*
X110955093Y-98194690D01*
X110973997Y-98203107D01*
X110974362Y-98203318D01*
X111057147Y-98225500D01*
X111057149Y-98225500D01*
X111142851Y-98225500D01*
X111142853Y-98225500D01*
X111225638Y-98203318D01*
X111299862Y-98160465D01*
X111360465Y-98099862D01*
X111403318Y-98025638D01*
X111409176Y-98003775D01*
X111442499Y-97952463D01*
X111499620Y-97930536D01*
X111558721Y-97946371D01*
X111574806Y-97959396D01*
X112028984Y-98413574D01*
X112028983Y-98413574D01*
X112085386Y-98469976D01*
X112159077Y-98500500D01*
X118854544Y-98500500D01*
X118912735Y-98519407D01*
X118948699Y-98568907D01*
X118948699Y-98630093D01*
X118912735Y-98679593D01*
X118880169Y-98695126D01*
X118874362Y-98696682D01*
X118800138Y-98739535D01*
X118739535Y-98800138D01*
X118696682Y-98874362D01*
X118674500Y-98957147D01*
X118674500Y-99042853D01*
X118696682Y-99125638D01*
X118739535Y-99199862D01*
X118800138Y-99260465D01*
X118874362Y-99303318D01*
X118957147Y-99325500D01*
X118957149Y-99325500D01*
X119042851Y-99325500D01*
X119042853Y-99325500D01*
X119125638Y-99303318D01*
X119199862Y-99260465D01*
X119230832Y-99229495D01*
X119285349Y-99201719D01*
X119300835Y-99200500D01*
X119701205Y-99200500D01*
X119759396Y-99219407D01*
X119795360Y-99268907D01*
X119795360Y-99330093D01*
X119771209Y-99369504D01*
X117477481Y-101663232D01*
X117422964Y-101691009D01*
X117362532Y-101681438D01*
X117319267Y-101638173D01*
X117309696Y-101577741D01*
X117321742Y-101543726D01*
X117326613Y-101535289D01*
X117326614Y-101535288D01*
X117350500Y-101446144D01*
X117350500Y-101353856D01*
X117326614Y-101264712D01*
X117280470Y-101184788D01*
X116640212Y-100544530D01*
X116560288Y-100498386D01*
X116471144Y-100474500D01*
X116471142Y-100474500D01*
X112524834Y-100474500D01*
X112466643Y-100455593D01*
X112430679Y-100406093D01*
X112430679Y-100344907D01*
X112454828Y-100305498D01*
X112460465Y-100299862D01*
X112503318Y-100225638D01*
X112525500Y-100142853D01*
X112525500Y-100057147D01*
X112503318Y-99974362D01*
X112460465Y-99900138D01*
X112399862Y-99839535D01*
X112335367Y-99802299D01*
X114129348Y-99802299D01*
X114129348Y-99888005D01*
X114151530Y-99970790D01*
X114194383Y-100045014D01*
X114254986Y-100105617D01*
X114329210Y-100148470D01*
X114411995Y-100170652D01*
X114411997Y-100170652D01*
X114497699Y-100170652D01*
X114497701Y-100170652D01*
X114580486Y-100148470D01*
X114654710Y-100105617D01*
X114715313Y-100045014D01*
X114758166Y-99970790D01*
X114780348Y-99888005D01*
X114780348Y-99802299D01*
X114758166Y-99719514D01*
X114715313Y-99645290D01*
X114654710Y-99584687D01*
X114580486Y-99541834D01*
X114497701Y-99519652D01*
X114411995Y-99519652D01*
X114329210Y-99541834D01*
X114254986Y-99584687D01*
X114194383Y-99645290D01*
X114151530Y-99719514D01*
X114129348Y-99802299D01*
X112335367Y-99802299D01*
X112325638Y-99796682D01*
X112242853Y-99774500D01*
X112157147Y-99774500D01*
X112074362Y-99796682D01*
X112000138Y-99839535D01*
X111939535Y-99900138D01*
X111896682Y-99974362D01*
X111874500Y-100057147D01*
X111874500Y-100142853D01*
X111896682Y-100225638D01*
X111939535Y-100299862D01*
X111945171Y-100305498D01*
X111972947Y-100360013D01*
X111963376Y-100420445D01*
X111920111Y-100463710D01*
X111875166Y-100474500D01*
X108124834Y-100474500D01*
X108066643Y-100455593D01*
X108030679Y-100406093D01*
X108030679Y-100344907D01*
X108054828Y-100305498D01*
X108060465Y-100299862D01*
X108103318Y-100225638D01*
X108125500Y-100142853D01*
X108125500Y-100057147D01*
X108103318Y-99974362D01*
X108060465Y-99900138D01*
X107999862Y-99839535D01*
X107925638Y-99796682D01*
X107842853Y-99774500D01*
X107757147Y-99774500D01*
X107674362Y-99796682D01*
X107600138Y-99839535D01*
X107539535Y-99900138D01*
X107496682Y-99974362D01*
X107474500Y-100057147D01*
X107474500Y-100142853D01*
X107496682Y-100225638D01*
X107539535Y-100299862D01*
X107545171Y-100305498D01*
X107572947Y-100360013D01*
X107563376Y-100420445D01*
X107520111Y-100463710D01*
X107475166Y-100474500D01*
X106111189Y-100474500D01*
X106052998Y-100455593D01*
X106041185Y-100445504D01*
X105395181Y-99799500D01*
X104715212Y-99119530D01*
X104635288Y-99073386D01*
X104546144Y-99049500D01*
X103553856Y-99049500D01*
X103464712Y-99073386D01*
X103464711Y-99073386D01*
X103464709Y-99073387D01*
X103384790Y-99119529D01*
X103319529Y-99184790D01*
X103273387Y-99264709D01*
X103273386Y-99264711D01*
X103273386Y-99264712D01*
X103249500Y-99353856D01*
X100010500Y-99353856D01*
X100010500Y-94957147D01*
X107074500Y-94957147D01*
X107074500Y-95042853D01*
X107096682Y-95125638D01*
X107139535Y-95199862D01*
X107200138Y-95260465D01*
X107274362Y-95303318D01*
X107357147Y-95325500D01*
X107357149Y-95325500D01*
X107442851Y-95325500D01*
X107442853Y-95325500D01*
X107525638Y-95303318D01*
X107599862Y-95260465D01*
X107660465Y-95199862D01*
X107703318Y-95125638D01*
X107725500Y-95042853D01*
X107725500Y-94957147D01*
X107703318Y-94874362D01*
X107660465Y-94800138D01*
X107599862Y-94739535D01*
X107525638Y-94696682D01*
X107442853Y-94674500D01*
X107357147Y-94674500D01*
X107274362Y-94696682D01*
X107200138Y-94739535D01*
X107139535Y-94800138D01*
X107096682Y-94874362D01*
X107074500Y-94957147D01*
X100010500Y-94957147D01*
X100010500Y-84532147D01*
X103424500Y-84532147D01*
X103424500Y-84617853D01*
X103446682Y-84700638D01*
X103489535Y-84774862D01*
X103550138Y-84835465D01*
X103624362Y-84878318D01*
X103707147Y-84900500D01*
X103707149Y-84900500D01*
X103792851Y-84900500D01*
X103792853Y-84900500D01*
X103875638Y-84878318D01*
X103949862Y-84835465D01*
X104010465Y-84774862D01*
X104053318Y-84700638D01*
X104075500Y-84617853D01*
X104075500Y-84532147D01*
X104053318Y-84449362D01*
X104010465Y-84375138D01*
X103949862Y-84314535D01*
X103875638Y-84271682D01*
X103792853Y-84249500D01*
X103707147Y-84249500D01*
X103624362Y-84271682D01*
X103550138Y-84314535D01*
X103489535Y-84375138D01*
X103446682Y-84449362D01*
X103424500Y-84532147D01*
X100010500Y-84532147D01*
X100010500Y-83957147D01*
X101674500Y-83957147D01*
X101674500Y-84042853D01*
X101696682Y-84125638D01*
X101739535Y-84199862D01*
X101800138Y-84260465D01*
X101874362Y-84303318D01*
X101957147Y-84325500D01*
X101957149Y-84325500D01*
X102042851Y-84325500D01*
X102042853Y-84325500D01*
X102125638Y-84303318D01*
X102199862Y-84260465D01*
X102260465Y-84199862D01*
X102303318Y-84125638D01*
X102325500Y-84042853D01*
X102325500Y-83957147D01*
X102303318Y-83874362D01*
X102260465Y-83800138D01*
X102199862Y-83739535D01*
X102125638Y-83696682D01*
X102042853Y-83674500D01*
X101957147Y-83674500D01*
X101874362Y-83696682D01*
X101800138Y-83739535D01*
X101739535Y-83800138D01*
X101696682Y-83874362D01*
X101674500Y-83957147D01*
X100010500Y-83957147D01*
X100010500Y-82607147D01*
X107924500Y-82607147D01*
X107924500Y-82692853D01*
X107946682Y-82775638D01*
X107989535Y-82849862D01*
X108050138Y-82910465D01*
X108124362Y-82953318D01*
X108207147Y-82975500D01*
X108207149Y-82975500D01*
X108292851Y-82975500D01*
X108292853Y-82975500D01*
X108375638Y-82953318D01*
X108449862Y-82910465D01*
X108468386Y-82891940D01*
X108522901Y-82864165D01*
X108583333Y-82873736D01*
X108608392Y-82891942D01*
X112030024Y-86313574D01*
X112030023Y-86313574D01*
X112086426Y-86369976D01*
X112160117Y-86400500D01*
X112160118Y-86400500D01*
X112199165Y-86400500D01*
X112257356Y-86419407D01*
X112269168Y-86429495D01*
X112300138Y-86460465D01*
X112374362Y-86503318D01*
X112457147Y-86525500D01*
X112457149Y-86525500D01*
X112542851Y-86525500D01*
X112542853Y-86525500D01*
X112625638Y-86503318D01*
X112699862Y-86460465D01*
X112760465Y-86399862D01*
X112803318Y-86325638D01*
X112825500Y-86242853D01*
X112825500Y-86157147D01*
X112803318Y-86074362D01*
X112760465Y-86000138D01*
X112699862Y-85939535D01*
X112625638Y-85896682D01*
X112542853Y-85874500D01*
X112457147Y-85874500D01*
X112374362Y-85896682D01*
X112317075Y-85929756D01*
X112257228Y-85942477D01*
X112201333Y-85917590D01*
X112197573Y-85914023D01*
X110901401Y-84617851D01*
X109540697Y-83257147D01*
X112074500Y-83257147D01*
X112074500Y-83342853D01*
X112096682Y-83425638D01*
X112139535Y-83499862D01*
X112200138Y-83560465D01*
X112274362Y-83603318D01*
X112357147Y-83625500D01*
X112357149Y-83625500D01*
X112442851Y-83625500D01*
X112442853Y-83625500D01*
X112525638Y-83603318D01*
X112599862Y-83560465D01*
X112660465Y-83499862D01*
X112703318Y-83425638D01*
X112725500Y-83342853D01*
X112725500Y-83257147D01*
X112703318Y-83174362D01*
X112660465Y-83100138D01*
X112599862Y-83039535D01*
X112525638Y-82996682D01*
X112442853Y-82974500D01*
X112357147Y-82974500D01*
X112274362Y-82996682D01*
X112200138Y-83039535D01*
X112139535Y-83100138D01*
X112096682Y-83174362D01*
X112074500Y-83257147D01*
X109540697Y-83257147D01*
X108763574Y-82480024D01*
X108763572Y-82480023D01*
X108763571Y-82480022D01*
X108689883Y-82449500D01*
X108689882Y-82449500D01*
X108550835Y-82449500D01*
X108492644Y-82430593D01*
X108480832Y-82420505D01*
X108449862Y-82389535D01*
X108375638Y-82346682D01*
X108292853Y-82324500D01*
X108207147Y-82324500D01*
X108124362Y-82346682D01*
X108050138Y-82389535D01*
X107989535Y-82450138D01*
X107946682Y-82524362D01*
X107924500Y-82607147D01*
X100010500Y-82607147D01*
X100010500Y-80532147D01*
X103424500Y-80532147D01*
X103424500Y-80617853D01*
X103446682Y-80700638D01*
X103489535Y-80774862D01*
X103550138Y-80835465D01*
X103624362Y-80878318D01*
X103707147Y-80900500D01*
X103707149Y-80900500D01*
X103792851Y-80900500D01*
X103792853Y-80900500D01*
X103875638Y-80878318D01*
X103949862Y-80835465D01*
X104010465Y-80774862D01*
X104053318Y-80700638D01*
X104075500Y-80617853D01*
X104075500Y-80532147D01*
X104053318Y-80449362D01*
X104010465Y-80375138D01*
X103949862Y-80314535D01*
X103875638Y-80271682D01*
X103792853Y-80249500D01*
X103707147Y-80249500D01*
X103624362Y-80271682D01*
X103550138Y-80314535D01*
X103489535Y-80375138D01*
X103446682Y-80449362D01*
X103424500Y-80532147D01*
X100010500Y-80532147D01*
X100010500Y-74957147D01*
X102674500Y-74957147D01*
X102674500Y-75042853D01*
X102696682Y-75125638D01*
X102739535Y-75199862D01*
X102739536Y-75199863D01*
X102739904Y-75200500D01*
X102752625Y-75260349D01*
X102739904Y-75299500D01*
X102739536Y-75300136D01*
X102739535Y-75300138D01*
X102696682Y-75374362D01*
X102674500Y-75457147D01*
X102674500Y-75542853D01*
X102696682Y-75625638D01*
X102739535Y-75699862D01*
X102800138Y-75760465D01*
X102825001Y-75774820D01*
X102865941Y-75820288D01*
X102874500Y-75860555D01*
X102874500Y-75942853D01*
X102896682Y-76025638D01*
X102939535Y-76099862D01*
X103000138Y-76160465D01*
X103074362Y-76203318D01*
X103115623Y-76214373D01*
X103166936Y-76247697D01*
X103185625Y-76284376D01*
X103196680Y-76325634D01*
X103196681Y-76325637D01*
X103196682Y-76325638D01*
X103239535Y-76399862D01*
X103300138Y-76460465D01*
X103374362Y-76503318D01*
X103457147Y-76525500D01*
X103457149Y-76525500D01*
X103542851Y-76525500D01*
X103542853Y-76525500D01*
X103625638Y-76503318D01*
X103699862Y-76460465D01*
X103760465Y-76399862D01*
X103803318Y-76325638D01*
X103825500Y-76242853D01*
X103825500Y-76157147D01*
X103803318Y-76074362D01*
X103760465Y-76000138D01*
X103699862Y-75939535D01*
X103625638Y-75896682D01*
X103625637Y-75896681D01*
X103625634Y-75896680D01*
X103584376Y-75885625D01*
X103533062Y-75852301D01*
X103514373Y-75815622D01*
X103503318Y-75774362D01*
X103460465Y-75700138D01*
X103399862Y-75639535D01*
X103374997Y-75625179D01*
X103334058Y-75579709D01*
X103325500Y-75539444D01*
X103325500Y-75457148D01*
X103316715Y-75424362D01*
X103303318Y-75374362D01*
X103260465Y-75300138D01*
X103260462Y-75300135D01*
X103260096Y-75299501D01*
X103247374Y-75239652D01*
X103260096Y-75200499D01*
X103260462Y-75199864D01*
X103260465Y-75199862D01*
X103303318Y-75125638D01*
X103325500Y-75042853D01*
X103325500Y-74957147D01*
X103303318Y-74874362D01*
X103260465Y-74800138D01*
X103199862Y-74739535D01*
X103125638Y-74696682D01*
X103042853Y-74674500D01*
X102957147Y-74674500D01*
X102874362Y-74696682D01*
X102800138Y-74739535D01*
X102739535Y-74800138D01*
X102696682Y-74874362D01*
X102674500Y-74957147D01*
X100010500Y-74957147D01*
X100010500Y-72053686D01*
X111949500Y-72053686D01*
X111949500Y-72396313D01*
X111987860Y-72736781D01*
X112064103Y-73070820D01*
X112177263Y-73394213D01*
X112177264Y-73394215D01*
X112325916Y-73702895D01*
X112325920Y-73702902D01*
X112325924Y-73702910D01*
X112508211Y-73993018D01*
X112721834Y-74260893D01*
X112964107Y-74503166D01*
X113231982Y-74716789D01*
X113522090Y-74899076D01*
X113522101Y-74899081D01*
X113522104Y-74899083D01*
X113612994Y-74942853D01*
X113830785Y-75047736D01*
X113979751Y-75099861D01*
X114154179Y-75160896D01*
X114154182Y-75160896D01*
X114154183Y-75160897D01*
X114488217Y-75237139D01*
X114828688Y-75275500D01*
X114828689Y-75275500D01*
X115171311Y-75275500D01*
X115171312Y-75275500D01*
X115511783Y-75237139D01*
X115845817Y-75160897D01*
X115847055Y-75160464D01*
X115975206Y-75115622D01*
X116169215Y-75047736D01*
X116477910Y-74899076D01*
X116544640Y-74857147D01*
X144074500Y-74857147D01*
X144074500Y-74942853D01*
X144096682Y-75025638D01*
X144139535Y-75099862D01*
X144200138Y-75160465D01*
X144274362Y-75203318D01*
X144315623Y-75214373D01*
X144366936Y-75247697D01*
X144385625Y-75284376D01*
X144396680Y-75325634D01*
X144396681Y-75325637D01*
X144396682Y-75325638D01*
X144439535Y-75399862D01*
X144500138Y-75460465D01*
X144574362Y-75503318D01*
X144615623Y-75514373D01*
X144666936Y-75547697D01*
X144685625Y-75584376D01*
X144696680Y-75625634D01*
X144696681Y-75625637D01*
X144696682Y-75625638D01*
X144739535Y-75699862D01*
X144800138Y-75760465D01*
X144874362Y-75803318D01*
X144957147Y-75825500D01*
X144957149Y-75825500D01*
X145042851Y-75825500D01*
X145042853Y-75825500D01*
X145125638Y-75803318D01*
X145199862Y-75760465D01*
X145260465Y-75699862D01*
X145303318Y-75625638D01*
X145325500Y-75542853D01*
X145325500Y-75457147D01*
X145303318Y-75374362D01*
X145260465Y-75300138D01*
X145199862Y-75239535D01*
X145125638Y-75196682D01*
X145125637Y-75196681D01*
X145125634Y-75196680D01*
X145084376Y-75185625D01*
X145033062Y-75152301D01*
X145014373Y-75115622D01*
X145003318Y-75074362D01*
X144960465Y-75000138D01*
X144899862Y-74939535D01*
X144825638Y-74896682D01*
X144825637Y-74896681D01*
X144825634Y-74896680D01*
X144784376Y-74885625D01*
X144733062Y-74852301D01*
X144714373Y-74815622D01*
X144703318Y-74774362D01*
X144660465Y-74700138D01*
X144599862Y-74639535D01*
X144525638Y-74596682D01*
X144442853Y-74574500D01*
X144357147Y-74574500D01*
X144274362Y-74596682D01*
X144200138Y-74639535D01*
X144139535Y-74700138D01*
X144096682Y-74774362D01*
X144074500Y-74857147D01*
X116544640Y-74857147D01*
X116768018Y-74716789D01*
X117035893Y-74503166D01*
X117081912Y-74457147D01*
X126174500Y-74457147D01*
X126174500Y-74542853D01*
X126196682Y-74625638D01*
X126239535Y-74699862D01*
X126300138Y-74760465D01*
X126374362Y-74803318D01*
X126457147Y-74825500D01*
X126457149Y-74825500D01*
X126542851Y-74825500D01*
X126542853Y-74825500D01*
X126625638Y-74803318D01*
X126699862Y-74760465D01*
X126733367Y-74726959D01*
X126736100Y-74724598D01*
X126761136Y-74714054D01*
X126785349Y-74701719D01*
X126791599Y-74701226D01*
X126792490Y-74700852D01*
X126793465Y-74701080D01*
X126800835Y-74700500D01*
X130039883Y-74700500D01*
X130102652Y-74674500D01*
X130113574Y-74669976D01*
X132340288Y-72443262D01*
X133429221Y-72443262D01*
X133429221Y-72528968D01*
X133451403Y-72611753D01*
X133494256Y-72685977D01*
X133554859Y-72746580D01*
X133629083Y-72789433D01*
X133711868Y-72811615D01*
X133711870Y-72811615D01*
X133797572Y-72811615D01*
X133797574Y-72811615D01*
X133880359Y-72789433D01*
X133954583Y-72746580D01*
X134015186Y-72685977D01*
X134058039Y-72611753D01*
X134080221Y-72528968D01*
X134080221Y-72443262D01*
X134079295Y-72439807D01*
X135672895Y-72439807D01*
X135672895Y-72525513D01*
X135695077Y-72608298D01*
X135737930Y-72682522D01*
X135798533Y-72743125D01*
X135872757Y-72785978D01*
X135955542Y-72808160D01*
X135955544Y-72808160D01*
X136041246Y-72808160D01*
X136041248Y-72808160D01*
X136124033Y-72785978D01*
X136198257Y-72743125D01*
X136258860Y-72682522D01*
X136301713Y-72608298D01*
X136323895Y-72525513D01*
X136323895Y-72439807D01*
X136301713Y-72357022D01*
X136258860Y-72282798D01*
X136198257Y-72222195D01*
X136124033Y-72179342D01*
X136041248Y-72157160D01*
X135955542Y-72157160D01*
X135872757Y-72179342D01*
X135798533Y-72222195D01*
X135737930Y-72282798D01*
X135695077Y-72357022D01*
X135672895Y-72439807D01*
X134079295Y-72439807D01*
X134058039Y-72360477D01*
X134015186Y-72286253D01*
X133954583Y-72225650D01*
X133880359Y-72182797D01*
X133797574Y-72160615D01*
X133711868Y-72160615D01*
X133629083Y-72182797D01*
X133554859Y-72225650D01*
X133494256Y-72286253D01*
X133451403Y-72360477D01*
X133429221Y-72443262D01*
X132340288Y-72443262D01*
X132729864Y-72053686D01*
X144949500Y-72053686D01*
X144949500Y-72396313D01*
X144987860Y-72736781D01*
X145064103Y-73070820D01*
X145177263Y-73394213D01*
X145177264Y-73394215D01*
X145325916Y-73702895D01*
X145325920Y-73702902D01*
X145325924Y-73702910D01*
X145508211Y-73993018D01*
X145721834Y-74260893D01*
X145964107Y-74503166D01*
X146231982Y-74716789D01*
X146522090Y-74899076D01*
X146522101Y-74899081D01*
X146522104Y-74899083D01*
X146612994Y-74942853D01*
X146830785Y-75047736D01*
X146979751Y-75099861D01*
X147154179Y-75160896D01*
X147154182Y-75160896D01*
X147154183Y-75160897D01*
X147488217Y-75237139D01*
X147828688Y-75275500D01*
X147828689Y-75275500D01*
X148171311Y-75275500D01*
X148171312Y-75275500D01*
X148511783Y-75237139D01*
X148845817Y-75160897D01*
X148847055Y-75160464D01*
X148975206Y-75115622D01*
X149169215Y-75047736D01*
X149477910Y-74899076D01*
X149768018Y-74716789D01*
X150035893Y-74503166D01*
X150278166Y-74260893D01*
X150491789Y-73993018D01*
X150674076Y-73702910D01*
X150822736Y-73394215D01*
X150935897Y-73070817D01*
X151012139Y-72736783D01*
X151050500Y-72396312D01*
X151050500Y-72053688D01*
X151012139Y-71713217D01*
X150935897Y-71379183D01*
X150822736Y-71055785D01*
X150674076Y-70747090D01*
X150491789Y-70456982D01*
X150278166Y-70189107D01*
X150035893Y-69946834D01*
X149768018Y-69733211D01*
X149477910Y-69550924D01*
X149477902Y-69550920D01*
X149477895Y-69550916D01*
X149169215Y-69402264D01*
X149169213Y-69402263D01*
X148845820Y-69289103D01*
X148511781Y-69212860D01*
X148171313Y-69174500D01*
X148171312Y-69174500D01*
X147828688Y-69174500D01*
X147828686Y-69174500D01*
X147488218Y-69212860D01*
X147154179Y-69289103D01*
X146830786Y-69402263D01*
X146830784Y-69402264D01*
X146522104Y-69550916D01*
X146522092Y-69550923D01*
X146231981Y-69733211D01*
X145964108Y-69946833D01*
X145721833Y-70189108D01*
X145508211Y-70456981D01*
X145325923Y-70747092D01*
X145325916Y-70747104D01*
X145177264Y-71055784D01*
X145177263Y-71055786D01*
X145064103Y-71379179D01*
X144987860Y-71713218D01*
X144949500Y-72053686D01*
X132729864Y-72053686D01*
X133146403Y-71637147D01*
X137924500Y-71637147D01*
X137924500Y-71722853D01*
X137946682Y-71805638D01*
X137989535Y-71879862D01*
X138050138Y-71940465D01*
X138124362Y-71983318D01*
X138207147Y-72005500D01*
X138207149Y-72005500D01*
X138292851Y-72005500D01*
X138292853Y-72005500D01*
X138375638Y-71983318D01*
X138449862Y-71940465D01*
X138510465Y-71879862D01*
X138553318Y-71805638D01*
X138575500Y-71722853D01*
X138575500Y-71637147D01*
X138553318Y-71554362D01*
X138510465Y-71480138D01*
X138449862Y-71419535D01*
X138375638Y-71376682D01*
X138292853Y-71354500D01*
X138207147Y-71354500D01*
X138124362Y-71376682D01*
X138050138Y-71419535D01*
X137989535Y-71480138D01*
X137946682Y-71554362D01*
X137924500Y-71637147D01*
X133146403Y-71637147D01*
X135854054Y-68929496D01*
X135908571Y-68901719D01*
X135924058Y-68900500D01*
X153575942Y-68900500D01*
X153634133Y-68919407D01*
X153645946Y-68929496D01*
X156370504Y-71654054D01*
X156398281Y-71708571D01*
X156399500Y-71724058D01*
X156399500Y-78875942D01*
X156380593Y-78934133D01*
X156370504Y-78945946D01*
X152086426Y-83230024D01*
X152086425Y-83230023D01*
X152030023Y-83286426D01*
X151999500Y-83360117D01*
X151999500Y-88475942D01*
X151980593Y-88534133D01*
X151970504Y-88545946D01*
X151670946Y-88845504D01*
X151616429Y-88873281D01*
X151600942Y-88874500D01*
X151557147Y-88874500D01*
X151474362Y-88896682D01*
X151400138Y-88939535D01*
X151339535Y-89000138D01*
X151296682Y-89074362D01*
X151274500Y-89157147D01*
X151274500Y-89242853D01*
X151296682Y-89325638D01*
X151339535Y-89399862D01*
X151400138Y-89460465D01*
X151474362Y-89503318D01*
X151557147Y-89525500D01*
X151557149Y-89525500D01*
X151642851Y-89525500D01*
X151642853Y-89525500D01*
X151725638Y-89503318D01*
X151799862Y-89460465D01*
X151860465Y-89399862D01*
X151903318Y-89325638D01*
X151925500Y-89242853D01*
X151925500Y-89199057D01*
X151944407Y-89140866D01*
X151954490Y-89129059D01*
X152369976Y-88713574D01*
X152400500Y-88639882D01*
X152400500Y-88560118D01*
X152400500Y-83524057D01*
X152419407Y-83465866D01*
X152429490Y-83454059D01*
X154293549Y-81590000D01*
X156675137Y-81590000D01*
X157478012Y-81590000D01*
X157460795Y-81599940D01*
X157404940Y-81655795D01*
X157365444Y-81724204D01*
X157345000Y-81800504D01*
X157345000Y-81879496D01*
X157365444Y-81955796D01*
X157404940Y-82024205D01*
X157460795Y-82080060D01*
X157478012Y-82090000D01*
X156675137Y-82090000D01*
X156683428Y-82131684D01*
X156683431Y-82131695D01*
X156758808Y-82313673D01*
X156758814Y-82313685D01*
X156868249Y-82477462D01*
X156868252Y-82477466D01*
X157007533Y-82616747D01*
X157007537Y-82616750D01*
X157171314Y-82726185D01*
X157171326Y-82726191D01*
X157353310Y-82801570D01*
X157546506Y-82839999D01*
X157546510Y-82840000D01*
X157944999Y-82840000D01*
X157945000Y-82839999D01*
X157945000Y-82140000D01*
X158445000Y-82140000D01*
X158445000Y-82839999D01*
X158445001Y-82840000D01*
X158843490Y-82840000D01*
X158843493Y-82839999D01*
X159036688Y-82801570D01*
X159036690Y-82801570D01*
X159218673Y-82726191D01*
X159218685Y-82726185D01*
X159382462Y-82616750D01*
X159382466Y-82616747D01*
X159521747Y-82477466D01*
X159521750Y-82477462D01*
X159631185Y-82313685D01*
X159631191Y-82313673D01*
X159706568Y-82131695D01*
X159706571Y-82131684D01*
X159714863Y-82090000D01*
X158911988Y-82090000D01*
X158929205Y-82080060D01*
X158985060Y-82024205D01*
X159024556Y-81955796D01*
X159045000Y-81879496D01*
X159045000Y-81800504D01*
X159024556Y-81724204D01*
X158985060Y-81655795D01*
X158929205Y-81599940D01*
X158911988Y-81590000D01*
X159714862Y-81590000D01*
X161005137Y-81590000D01*
X161808012Y-81590000D01*
X161790795Y-81599940D01*
X161734940Y-81655795D01*
X161695444Y-81724204D01*
X161675000Y-81800504D01*
X161675000Y-81879496D01*
X161695444Y-81955796D01*
X161734940Y-82024205D01*
X161790795Y-82080060D01*
X161808012Y-82090000D01*
X161005137Y-82090000D01*
X161013428Y-82131684D01*
X161013431Y-82131695D01*
X161088808Y-82313673D01*
X161088814Y-82313685D01*
X161198249Y-82477462D01*
X161198252Y-82477466D01*
X161337533Y-82616747D01*
X161337537Y-82616750D01*
X161501314Y-82726185D01*
X161501326Y-82726191D01*
X161683310Y-82801570D01*
X161876506Y-82839999D01*
X161876510Y-82840000D01*
X162124999Y-82840000D01*
X162125000Y-82839999D01*
X162125000Y-82140000D01*
X162625000Y-82140000D01*
X162625000Y-82839999D01*
X162625001Y-82840000D01*
X162873490Y-82840000D01*
X162873493Y-82839999D01*
X163066688Y-82801570D01*
X163066690Y-82801570D01*
X163248673Y-82726191D01*
X163248685Y-82726185D01*
X163412462Y-82616750D01*
X163412466Y-82616747D01*
X163551747Y-82477466D01*
X163551750Y-82477462D01*
X163661185Y-82313685D01*
X163661191Y-82313673D01*
X163736568Y-82131695D01*
X163736571Y-82131684D01*
X163744863Y-82090000D01*
X162941988Y-82090000D01*
X162959205Y-82080060D01*
X163015060Y-82024205D01*
X163054556Y-81955796D01*
X163075000Y-81879496D01*
X163075000Y-81800504D01*
X163054556Y-81724204D01*
X163015060Y-81655795D01*
X162959205Y-81599940D01*
X162941988Y-81590000D01*
X163744862Y-81590000D01*
X163736571Y-81548315D01*
X163736568Y-81548304D01*
X163661191Y-81366326D01*
X163661185Y-81366314D01*
X163551750Y-81202537D01*
X163551747Y-81202533D01*
X163412466Y-81063252D01*
X163412462Y-81063249D01*
X163248685Y-80953814D01*
X163248673Y-80953808D01*
X163066689Y-80878429D01*
X162873493Y-80840000D01*
X162625001Y-80840000D01*
X162625000Y-80840001D01*
X162625000Y-81540000D01*
X162125000Y-81540000D01*
X162125000Y-80840001D01*
X162124999Y-80840000D01*
X161876506Y-80840000D01*
X161683311Y-80878429D01*
X161683309Y-80878429D01*
X161501326Y-80953808D01*
X161501314Y-80953814D01*
X161337537Y-81063249D01*
X161337533Y-81063252D01*
X161198252Y-81202533D01*
X161198249Y-81202537D01*
X161088814Y-81366314D01*
X161088808Y-81366326D01*
X161013431Y-81548304D01*
X161013428Y-81548315D01*
X161005137Y-81590000D01*
X159714862Y-81590000D01*
X159706571Y-81548315D01*
X159706568Y-81548304D01*
X159631191Y-81366326D01*
X159631185Y-81366314D01*
X159521750Y-81202537D01*
X159521747Y-81202533D01*
X159382466Y-81063252D01*
X159382462Y-81063249D01*
X159218685Y-80953814D01*
X159218673Y-80953808D01*
X159126235Y-80915520D01*
X159079709Y-80875784D01*
X159065425Y-80816289D01*
X159088839Y-80759761D01*
X159094105Y-80754064D01*
X159115505Y-80732665D01*
X159184688Y-80612836D01*
X159220500Y-80479183D01*
X159220500Y-80340817D01*
X159184688Y-80207164D01*
X159115505Y-80087335D01*
X159017665Y-79989495D01*
X158897836Y-79920312D01*
X158764183Y-79884500D01*
X158625817Y-79884500D01*
X158492164Y-79920312D01*
X158372335Y-79989495D01*
X158274495Y-80087335D01*
X158205312Y-80207164D01*
X158169500Y-80340817D01*
X158169500Y-80479183D01*
X158205312Y-80612836D01*
X158274495Y-80732665D01*
X158372335Y-80830505D01*
X158395497Y-80843878D01*
X158436439Y-80889345D01*
X158445000Y-80929615D01*
X158445000Y-81540000D01*
X157945000Y-81540000D01*
X157945000Y-80840001D01*
X157944999Y-80840000D01*
X157546506Y-80840000D01*
X157353311Y-80878429D01*
X157353309Y-80878429D01*
X157171326Y-80953808D01*
X157171314Y-80953814D01*
X157007537Y-81063249D01*
X157007533Y-81063252D01*
X156868252Y-81202533D01*
X156868249Y-81202537D01*
X156758814Y-81366314D01*
X156758808Y-81366326D01*
X156683431Y-81548304D01*
X156683428Y-81548315D01*
X156675137Y-81590000D01*
X154293549Y-81590000D01*
X156769976Y-79113574D01*
X156800500Y-79039882D01*
X156800500Y-78960118D01*
X156800500Y-74008721D01*
X156819407Y-73950530D01*
X156868907Y-73914566D01*
X156930093Y-73914566D01*
X156969504Y-73938718D01*
X157007528Y-73976743D01*
X157007537Y-73976750D01*
X157171314Y-74086185D01*
X157171326Y-74086191D01*
X157353310Y-74161570D01*
X157546506Y-74199999D01*
X157546510Y-74200000D01*
X157944999Y-74200000D01*
X157945000Y-74199999D01*
X157945000Y-73500000D01*
X158445000Y-73500000D01*
X158445000Y-74110384D01*
X158426093Y-74168575D01*
X158395501Y-74196120D01*
X158372336Y-74209494D01*
X158372335Y-74209495D01*
X158274495Y-74307335D01*
X158205312Y-74427164D01*
X158169500Y-74560817D01*
X158169500Y-74699183D01*
X158205312Y-74832836D01*
X158274495Y-74952665D01*
X158372335Y-75050505D01*
X158492164Y-75119688D01*
X158625817Y-75155500D01*
X158625819Y-75155500D01*
X158764181Y-75155500D01*
X158764183Y-75155500D01*
X158897836Y-75119688D01*
X159017665Y-75050505D01*
X159115505Y-74952665D01*
X159184688Y-74832836D01*
X159220500Y-74699183D01*
X159220500Y-74560817D01*
X159184688Y-74427164D01*
X159115505Y-74307335D01*
X159094114Y-74285944D01*
X159066339Y-74231430D01*
X159075910Y-74170998D01*
X159119175Y-74127733D01*
X159126236Y-74124478D01*
X159218678Y-74086188D01*
X159218685Y-74086185D01*
X159382462Y-73976750D01*
X159382466Y-73976747D01*
X159521747Y-73837466D01*
X159521750Y-73837462D01*
X159631185Y-73673685D01*
X159631191Y-73673673D01*
X159706568Y-73491695D01*
X159706571Y-73491684D01*
X159714863Y-73450000D01*
X158911988Y-73450000D01*
X158929205Y-73440060D01*
X158985060Y-73384205D01*
X159024556Y-73315796D01*
X159045000Y-73239496D01*
X159045000Y-73160504D01*
X159024556Y-73084204D01*
X158985060Y-73015795D01*
X158929205Y-72959940D01*
X158911988Y-72950000D01*
X159714862Y-72950000D01*
X161005137Y-72950000D01*
X161808012Y-72950000D01*
X161790795Y-72959940D01*
X161734940Y-73015795D01*
X161695444Y-73084204D01*
X161675000Y-73160504D01*
X161675000Y-73239496D01*
X161695444Y-73315796D01*
X161734940Y-73384205D01*
X161790795Y-73440060D01*
X161808012Y-73450000D01*
X161005137Y-73450000D01*
X161013428Y-73491684D01*
X161013431Y-73491695D01*
X161088808Y-73673673D01*
X161088814Y-73673685D01*
X161198249Y-73837462D01*
X161198252Y-73837466D01*
X161337533Y-73976747D01*
X161337537Y-73976750D01*
X161501314Y-74086185D01*
X161501326Y-74086191D01*
X161683310Y-74161570D01*
X161876506Y-74199999D01*
X161876510Y-74200000D01*
X162124999Y-74200000D01*
X162125000Y-74199999D01*
X162125000Y-73500000D01*
X162625000Y-73500000D01*
X162625000Y-74199999D01*
X162625001Y-74200000D01*
X162873490Y-74200000D01*
X162873493Y-74199999D01*
X163066688Y-74161570D01*
X163066690Y-74161570D01*
X163248673Y-74086191D01*
X163248685Y-74086185D01*
X163412462Y-73976750D01*
X163412466Y-73976747D01*
X163551747Y-73837466D01*
X163551750Y-73837462D01*
X163661185Y-73673685D01*
X163661191Y-73673673D01*
X163736568Y-73491695D01*
X163736571Y-73491684D01*
X163744863Y-73450000D01*
X162941988Y-73450000D01*
X162959205Y-73440060D01*
X163015060Y-73384205D01*
X163054556Y-73315796D01*
X163075000Y-73239496D01*
X163075000Y-73160504D01*
X163054556Y-73084204D01*
X163015060Y-73015795D01*
X162959205Y-72959940D01*
X162941988Y-72950000D01*
X163744862Y-72950000D01*
X163736571Y-72908315D01*
X163736568Y-72908304D01*
X163661191Y-72726326D01*
X163661185Y-72726314D01*
X163551750Y-72562537D01*
X163551747Y-72562533D01*
X163412466Y-72423252D01*
X163412462Y-72423249D01*
X163248685Y-72313814D01*
X163248673Y-72313808D01*
X163066689Y-72238429D01*
X162873493Y-72200000D01*
X162625001Y-72200000D01*
X162625000Y-72200001D01*
X162625000Y-72900000D01*
X162125000Y-72900000D01*
X162125000Y-72200001D01*
X162124999Y-72200000D01*
X161876506Y-72200000D01*
X161683311Y-72238429D01*
X161683309Y-72238429D01*
X161501326Y-72313808D01*
X161501314Y-72313814D01*
X161337537Y-72423249D01*
X161337533Y-72423252D01*
X161198252Y-72562533D01*
X161198249Y-72562537D01*
X161088814Y-72726314D01*
X161088808Y-72726326D01*
X161013431Y-72908304D01*
X161013428Y-72908315D01*
X161005137Y-72950000D01*
X159714862Y-72950000D01*
X159706571Y-72908315D01*
X159706568Y-72908304D01*
X159631191Y-72726326D01*
X159631185Y-72726314D01*
X159521750Y-72562537D01*
X159521747Y-72562533D01*
X159382466Y-72423252D01*
X159382462Y-72423249D01*
X159218685Y-72313814D01*
X159218673Y-72313808D01*
X159036689Y-72238429D01*
X158843493Y-72200000D01*
X158445001Y-72200000D01*
X158445000Y-72200001D01*
X158445000Y-72900000D01*
X157945000Y-72900000D01*
X157945000Y-72200001D01*
X157944999Y-72200000D01*
X157546506Y-72200000D01*
X157353311Y-72238429D01*
X157353309Y-72238429D01*
X157171326Y-72313808D01*
X157171314Y-72313814D01*
X157007537Y-72423249D01*
X157007533Y-72423252D01*
X156969504Y-72461282D01*
X156914987Y-72489059D01*
X156854555Y-72479488D01*
X156811290Y-72436223D01*
X156800500Y-72391278D01*
X156800500Y-71560117D01*
X156769976Y-71486426D01*
X156713574Y-71430023D01*
X156713574Y-71430024D01*
X153813574Y-68530024D01*
X153813572Y-68530023D01*
X153813571Y-68530022D01*
X153739883Y-68499500D01*
X153739882Y-68499500D01*
X135839882Y-68499500D01*
X135760118Y-68499500D01*
X135760117Y-68499500D01*
X135686428Y-68530022D01*
X129945946Y-74270504D01*
X129891429Y-74298281D01*
X129875942Y-74299500D01*
X126800835Y-74299500D01*
X126742644Y-74280593D01*
X126730832Y-74270505D01*
X126699862Y-74239535D01*
X126625638Y-74196682D01*
X126542853Y-74174500D01*
X126457147Y-74174500D01*
X126374362Y-74196682D01*
X126300138Y-74239535D01*
X126239535Y-74300138D01*
X126196682Y-74374362D01*
X126174500Y-74457147D01*
X117081912Y-74457147D01*
X117278166Y-74260893D01*
X117491789Y-73993018D01*
X117674076Y-73702910D01*
X117822736Y-73394215D01*
X117935897Y-73070817D01*
X118012139Y-72736783D01*
X118050500Y-72396312D01*
X118050500Y-72053688D01*
X118012139Y-71713217D01*
X117935897Y-71379183D01*
X117822736Y-71055785D01*
X117674076Y-70747090D01*
X117491789Y-70456982D01*
X117278166Y-70189107D01*
X117035893Y-69946834D01*
X116768018Y-69733211D01*
X116477910Y-69550924D01*
X116477902Y-69550920D01*
X116477895Y-69550916D01*
X116169215Y-69402264D01*
X116169213Y-69402263D01*
X115845820Y-69289103D01*
X115511781Y-69212860D01*
X115171313Y-69174500D01*
X115171312Y-69174500D01*
X114828688Y-69174500D01*
X114828686Y-69174500D01*
X114488218Y-69212860D01*
X114154179Y-69289103D01*
X113830786Y-69402263D01*
X113830784Y-69402264D01*
X113522104Y-69550916D01*
X113522092Y-69550923D01*
X113231981Y-69733211D01*
X112964108Y-69946833D01*
X112721833Y-70189108D01*
X112508211Y-70456981D01*
X112325923Y-70747092D01*
X112325916Y-70747104D01*
X112177264Y-71055784D01*
X112177263Y-71055786D01*
X112064103Y-71379179D01*
X111987860Y-71713218D01*
X111949500Y-72053686D01*
X100010500Y-72053686D01*
X100010500Y-71045357D01*
X100029407Y-70987166D01*
X100039496Y-70975353D01*
X100975353Y-70039496D01*
X101029870Y-70011719D01*
X101045357Y-70010500D01*
X110004348Y-70010500D01*
X110004349Y-70010500D01*
X111975354Y-68039496D01*
X112029871Y-68011719D01*
X112045358Y-68010500D01*
X112995651Y-68010500D01*
X149995651Y-68010500D01*
X160954643Y-68010500D01*
X161012834Y-68029407D01*
G37*
%TD.AperFunction*%
%TD*%
M02*
