%TF.GenerationSoftware,KiCad,Pcbnew,9.0.0*%
%TF.CreationDate,2025-05-04T18:28:28+01:00*%
%TF.ProjectId,specter,73706563-7465-4722-9e6b-696361645f70,rev?*%
%TF.SameCoordinates,Original*%
%TF.FileFunction,Soldermask,Top*%
%TF.FilePolarity,Negative*%
%FSLAX46Y46*%
G04 Gerber Fmt 4.6, Leading zero omitted, Abs format (unit mm)*
G04 Created by KiCad (PCBNEW 9.0.0) date 2025-05-04 18:28:28*
%MOMM*%
%LPD*%
G01*
G04 APERTURE LIST*
G04 Aperture macros list*
%AMRoundRect*
0 Rectangle with rounded corners*
0 $1 Rounding radius*
0 $2 $3 $4 $5 $6 $7 $8 $9 X,Y pos of 4 corners*
0 Add a 4 corners polygon primitive as box body*
4,1,4,$2,$3,$4,$5,$6,$7,$8,$9,$2,$3,0*
0 Add four circle primitives for the rounded corners*
1,1,$1+$1,$2,$3*
1,1,$1+$1,$4,$5*
1,1,$1+$1,$6,$7*
1,1,$1+$1,$8,$9*
0 Add four rect primitives between the rounded corners*
20,1,$1+$1,$2,$3,$4,$5,0*
20,1,$1+$1,$4,$5,$6,$7,0*
20,1,$1+$1,$6,$7,$8,$9,0*
20,1,$1+$1,$8,$9,$2,$3,0*%
%AMFreePoly0*
4,1,23,0.500000,-0.750000,0.000000,-0.750000,0.000000,-0.745722,-0.065263,-0.745722,-0.191342,-0.711940,-0.304381,-0.646677,-0.396677,-0.554381,-0.461940,-0.441342,-0.495722,-0.315263,-0.495722,-0.250000,-0.500000,-0.250000,-0.500000,0.250000,-0.495722,0.250000,-0.495722,0.315263,-0.461940,0.441342,-0.396677,0.554381,-0.304381,0.646677,-0.191342,0.711940,-0.065263,0.745722,0.000000,0.745722,
0.000000,0.750000,0.500000,0.750000,0.500000,-0.750000,0.500000,-0.750000,$1*%
%AMFreePoly1*
4,1,23,0.000000,0.745722,0.065263,0.745722,0.191342,0.711940,0.304381,0.646677,0.396677,0.554381,0.461940,0.441342,0.495722,0.315263,0.495722,0.250000,0.500000,0.250000,0.500000,-0.250000,0.495722,-0.250000,0.495722,-0.315263,0.461940,-0.441342,0.396677,-0.554381,0.304381,-0.646677,0.191342,-0.711940,0.065263,-0.745722,0.000000,-0.745722,0.000000,-0.750000,-0.500000,-0.750000,
-0.500000,0.750000,0.000000,0.750000,0.000000,0.745722,0.000000,0.745722,$1*%
G04 Aperture macros list end*
%ADD10RoundRect,0.102000X0.350000X-0.100000X0.350000X0.100000X-0.350000X0.100000X-0.350000X-0.100000X0*%
%ADD11RoundRect,0.102000X0.775000X-0.300000X0.775000X0.300000X-0.775000X0.300000X-0.775000X-0.300000X0*%
%ADD12RoundRect,0.102000X-0.900000X0.600000X-0.900000X-0.600000X0.900000X-0.600000X0.900000X0.600000X0*%
%ADD13O,1.800000X1.000000*%
%ADD14O,2.100000X1.000000*%
%ADD15RoundRect,0.150000X0.425000X-0.150000X0.425000X0.150000X-0.425000X0.150000X-0.425000X-0.150000X0*%
%ADD16RoundRect,0.075000X0.500000X-0.075000X0.500000X0.075000X-0.500000X0.075000X-0.500000X-0.075000X0*%
%ADD17C,6.200000*%
%ADD18R,2.200000X1.800000*%
%ADD19R,1.300000X0.300000*%
%ADD20R,4.000000X4.000000*%
%ADD21R,0.700000X0.200000*%
%ADD22C,6.100000*%
%ADD23C,1.000000*%
%ADD24RoundRect,0.135000X0.185000X-0.135000X0.185000X0.135000X-0.185000X0.135000X-0.185000X-0.135000X0*%
%ADD25RoundRect,0.218750X0.218750X0.256250X-0.218750X0.256250X-0.218750X-0.256250X0.218750X-0.256250X0*%
%ADD26RoundRect,0.102000X-0.775000X0.300000X-0.775000X-0.300000X0.775000X-0.300000X0.775000X0.300000X0*%
%ADD27RoundRect,0.102000X0.900000X-0.600000X0.900000X0.600000X-0.900000X0.600000X-0.900000X-0.600000X0*%
%ADD28FreePoly0,0.000000*%
%ADD29FreePoly1,0.000000*%
%ADD30RoundRect,0.250000X-0.450000X0.325000X-0.450000X-0.325000X0.450000X-0.325000X0.450000X0.325000X0*%
%ADD31RoundRect,0.135000X-0.135000X-0.185000X0.135000X-0.185000X0.135000X0.185000X-0.135000X0.185000X0*%
%ADD32R,1.500000X1.000000*%
%ADD33RoundRect,0.140000X-0.140000X-0.170000X0.140000X-0.170000X0.140000X0.170000X-0.140000X0.170000X0*%
%ADD34RoundRect,0.100000X-0.100000X0.225000X-0.100000X-0.225000X0.100000X-0.225000X0.100000X0.225000X0*%
%ADD35RoundRect,0.102000X0.900000X0.550000X-0.900000X0.550000X-0.900000X-0.550000X0.900000X-0.550000X0*%
%ADD36RoundRect,0.135000X0.135000X0.185000X-0.135000X0.185000X-0.135000X-0.185000X0.135000X-0.185000X0*%
%ADD37RoundRect,0.102000X-0.300000X-0.775000X0.300000X-0.775000X0.300000X0.775000X-0.300000X0.775000X0*%
%ADD38RoundRect,0.102000X0.600000X0.900000X-0.600000X0.900000X-0.600000X-0.900000X0.600000X-0.900000X0*%
G04 APERTURE END LIST*
D10*
%TO.C,J6*%
X112960000Y-88925195D03*
X116040000Y-88925195D03*
X112960000Y-89325195D03*
X116040000Y-89325195D03*
X112960000Y-89725195D03*
X116040000Y-89725195D03*
X112960000Y-90125195D03*
X116040000Y-90125195D03*
X112960000Y-90525195D03*
X116040000Y-90525195D03*
X112960000Y-90925195D03*
X116040000Y-90925195D03*
X112960000Y-91325195D03*
X116040000Y-91325195D03*
X112960000Y-91725195D03*
X116040000Y-91725195D03*
X112960000Y-92125195D03*
X116040000Y-92125195D03*
X112960000Y-92525195D03*
X116040000Y-92525195D03*
X112960000Y-92925195D03*
X116040000Y-92925195D03*
X112960000Y-93325195D03*
X116040000Y-93325195D03*
X112960000Y-93725195D03*
X116040000Y-93725195D03*
X112960000Y-94125195D03*
X116040000Y-94125195D03*
X112960000Y-94525195D03*
X116040000Y-94525195D03*
X112960000Y-94925195D03*
X116040000Y-94925195D03*
X112960000Y-95325195D03*
X116040000Y-95325195D03*
X112960000Y-95725195D03*
X116040000Y-95725195D03*
X112960000Y-96125195D03*
X116040000Y-96125195D03*
X112960000Y-96525195D03*
X116040000Y-96525195D03*
X112960000Y-96925195D03*
X116040000Y-96925195D03*
X112960000Y-97325195D03*
X116040000Y-97325195D03*
X112960000Y-97725195D03*
X116040000Y-97725195D03*
X112960000Y-98125195D03*
X116040000Y-98125195D03*
X112960000Y-98525195D03*
X116040000Y-98525195D03*
X112960000Y-98925195D03*
X116040000Y-98925195D03*
X112960000Y-99325195D03*
X116040000Y-99325195D03*
X112960000Y-99725195D03*
X116040000Y-99725195D03*
X112960000Y-100125195D03*
X116040000Y-100125195D03*
X112960000Y-100525195D03*
X116040000Y-100525195D03*
X112960000Y-100925195D03*
X116040000Y-100925195D03*
X112960000Y-101325195D03*
X116040000Y-101325195D03*
X112960000Y-101725195D03*
X116040000Y-101725195D03*
X112960000Y-102125195D03*
X116040000Y-102125195D03*
X112960000Y-102525195D03*
X116040000Y-102525195D03*
X112960000Y-102925195D03*
X116040000Y-102925195D03*
X112960000Y-103325195D03*
X116040000Y-103325195D03*
X112960000Y-103725195D03*
X116040000Y-103725195D03*
X112960000Y-104125195D03*
X116040000Y-104125195D03*
X112960000Y-104525195D03*
X116040000Y-104525195D03*
X112960000Y-104925195D03*
X116040000Y-104925195D03*
X112960000Y-105325195D03*
X116040000Y-105325195D03*
X112960000Y-105725195D03*
X116040000Y-105725195D03*
X112960000Y-106125195D03*
X116040000Y-106125195D03*
X112960000Y-106525195D03*
X116040000Y-106525195D03*
X112960000Y-106925195D03*
X116040000Y-106925195D03*
X112960000Y-107325195D03*
X116040000Y-107325195D03*
X112960000Y-107725195D03*
X116040000Y-107725195D03*
X112960000Y-108125195D03*
X116040000Y-108125195D03*
X112960000Y-108525195D03*
X116040000Y-108525195D03*
%TD*%
D11*
%TO.C,J30*%
X106000000Y-83000000D03*
X106000000Y-84000000D03*
X106000000Y-85000000D03*
X106000000Y-86000000D03*
X106000000Y-87000000D03*
X106000000Y-88000000D03*
D12*
X102125000Y-81700000D03*
X102125000Y-89300000D03*
%TD*%
D11*
%TO.C,J29*%
X106000000Y-72923000D03*
X106000000Y-73923000D03*
X106000000Y-74923000D03*
X106000000Y-75923000D03*
X106000000Y-76923000D03*
X106000000Y-77923000D03*
D12*
X102125000Y-71623000D03*
X102125000Y-79223000D03*
%TD*%
D11*
%TO.C,J28*%
X106000000Y-93000000D03*
X106000000Y-94000000D03*
X106000000Y-95000000D03*
X106000000Y-96000000D03*
X106000000Y-97000000D03*
X106000000Y-98000000D03*
D12*
X102125000Y-91700000D03*
X102125000Y-99300000D03*
%TD*%
D11*
%TO.C,J27*%
X106000000Y-110173000D03*
X106000000Y-111173000D03*
X106000000Y-112173000D03*
X106000000Y-113173000D03*
X106000000Y-114173000D03*
X106000000Y-115173000D03*
D12*
X102125000Y-108873000D03*
X102125000Y-116473000D03*
%TD*%
D10*
%TO.C,J9*%
X150040000Y-108525000D03*
X146960000Y-108525000D03*
X150040000Y-108125000D03*
X146960000Y-108125000D03*
X150040000Y-107725000D03*
X146960000Y-107725000D03*
X150040000Y-107325000D03*
X146960000Y-107325000D03*
X150040000Y-106925000D03*
X146960000Y-106925000D03*
X150040000Y-106525000D03*
X146960000Y-106525000D03*
X150040000Y-106125000D03*
X146960000Y-106125000D03*
X150040000Y-105725000D03*
X146960000Y-105725000D03*
X150040000Y-105325000D03*
X146960000Y-105325000D03*
X150040000Y-104925000D03*
X146960000Y-104925000D03*
X150040000Y-104525000D03*
X146960000Y-104525000D03*
X150040000Y-104125000D03*
X146960000Y-104125000D03*
X150040000Y-103725000D03*
X146960000Y-103725000D03*
X150040000Y-103325000D03*
X146960000Y-103325000D03*
X150040000Y-102925000D03*
X146960000Y-102925000D03*
X150040000Y-102525000D03*
X146960000Y-102525000D03*
X150040000Y-102125000D03*
X146960000Y-102125000D03*
X150040000Y-101725000D03*
X146960000Y-101725000D03*
X150040000Y-101325000D03*
X146960000Y-101325000D03*
X150040000Y-100925000D03*
X146960000Y-100925000D03*
X150040000Y-100525000D03*
X146960000Y-100525000D03*
X150040000Y-100125000D03*
X146960000Y-100125000D03*
X150040000Y-99725000D03*
X146960000Y-99725000D03*
X150040000Y-99325000D03*
X146960000Y-99325000D03*
X150040000Y-98925000D03*
X146960000Y-98925000D03*
X150040000Y-98525000D03*
X146960000Y-98525000D03*
X150040000Y-98125000D03*
X146960000Y-98125000D03*
X150040000Y-97725000D03*
X146960000Y-97725000D03*
X150040000Y-97325000D03*
X146960000Y-97325000D03*
X150040000Y-96925000D03*
X146960000Y-96925000D03*
X150040000Y-96525000D03*
X146960000Y-96525000D03*
X150040000Y-96125000D03*
X146960000Y-96125000D03*
X150040000Y-95725000D03*
X146960000Y-95725000D03*
X150040000Y-95325000D03*
X146960000Y-95325000D03*
X150040000Y-94925000D03*
X146960000Y-94925000D03*
X150040000Y-94525000D03*
X146960000Y-94525000D03*
X150040000Y-94125000D03*
X146960000Y-94125000D03*
X150040000Y-93725000D03*
X146960000Y-93725000D03*
X150040000Y-93325000D03*
X146960000Y-93325000D03*
X150040000Y-92925000D03*
X146960000Y-92925000D03*
X150040000Y-92525000D03*
X146960000Y-92525000D03*
X150040000Y-92125000D03*
X146960000Y-92125000D03*
X150040000Y-91725000D03*
X146960000Y-91725000D03*
X150040000Y-91325000D03*
X146960000Y-91325000D03*
X150040000Y-90925000D03*
X146960000Y-90925000D03*
X150040000Y-90525000D03*
X146960000Y-90525000D03*
X150040000Y-90125000D03*
X146960000Y-90125000D03*
X150040000Y-89725000D03*
X146960000Y-89725000D03*
X150040000Y-89325000D03*
X146960000Y-89325000D03*
X150040000Y-88925000D03*
X146960000Y-88925000D03*
%TD*%
D13*
%TO.C,J1*%
X162375000Y-73200000D03*
D14*
X158195000Y-73200000D03*
D13*
X162375000Y-81840000D03*
D14*
X158195000Y-81840000D03*
D15*
X157620000Y-80720000D03*
X157620000Y-79920000D03*
D16*
X157620000Y-79270000D03*
X157620000Y-78270000D03*
X157620000Y-76770000D03*
X157620000Y-75770000D03*
D15*
X157620000Y-75120000D03*
X157620000Y-74320000D03*
X157620000Y-74320000D03*
X157620000Y-75120000D03*
D16*
X157620000Y-76270000D03*
X157620000Y-77270000D03*
X157620000Y-77770000D03*
X157620000Y-78770000D03*
D15*
X157620000Y-79920000D03*
X157620000Y-80720000D03*
%TD*%
D17*
%TO.C,J3*%
X131000000Y-124725000D03*
X131000000Y-112725000D03*
%TD*%
D18*
%TO.C,J4*%
X161550000Y-84550000D03*
X161550000Y-98850000D03*
D19*
X158300000Y-96950000D03*
X158300000Y-96450000D03*
X158300000Y-95950000D03*
X158300000Y-95450000D03*
X158300000Y-94950000D03*
X158300000Y-94450000D03*
X158300000Y-93950000D03*
X158300000Y-93450000D03*
X158300000Y-92950000D03*
X158300000Y-92450000D03*
X158300000Y-91950000D03*
X158300000Y-91450000D03*
X158300000Y-90950000D03*
X158300000Y-90450000D03*
X158300000Y-89950000D03*
X158300000Y-89450000D03*
X158300000Y-88950000D03*
X158300000Y-88450000D03*
X158300000Y-87950000D03*
X158300000Y-87450000D03*
X158300000Y-86950000D03*
X158300000Y-86450000D03*
%TD*%
D18*
%TO.C,J5*%
X161600000Y-101800000D03*
X161600000Y-116100000D03*
D19*
X158350000Y-114200000D03*
X158350000Y-113700000D03*
X158350000Y-113200000D03*
X158350000Y-112700000D03*
X158350000Y-112200000D03*
X158350000Y-111700000D03*
X158350000Y-111200000D03*
X158350000Y-110700000D03*
X158350000Y-110200000D03*
X158350000Y-109700000D03*
X158350000Y-109200000D03*
X158350000Y-108700000D03*
X158350000Y-108200000D03*
X158350000Y-107700000D03*
X158350000Y-107200000D03*
X158350000Y-106700000D03*
X158350000Y-106200000D03*
X158350000Y-105700000D03*
X158350000Y-105200000D03*
X158350000Y-104700000D03*
X158350000Y-104200000D03*
X158350000Y-103700000D03*
%TD*%
D20*
%TO.C,J8*%
X134000000Y-132000000D03*
%TD*%
%TO.C,J23*%
X126000000Y-132000000D03*
%TD*%
D21*
%TO.C,Module1*%
X150040000Y-108525000D03*
X146960000Y-108525000D03*
X150040000Y-108125000D03*
X146960000Y-108125000D03*
X150040000Y-107725000D03*
X146960000Y-107725000D03*
X150040000Y-107325000D03*
X146960000Y-107325000D03*
X150040000Y-106925000D03*
X146960000Y-106925000D03*
X150040000Y-106525000D03*
X146960000Y-106525000D03*
X150040000Y-106125000D03*
X146960000Y-106125000D03*
X150040000Y-105725000D03*
X146960000Y-105725000D03*
X150040000Y-105325000D03*
X146960000Y-105325000D03*
X150040000Y-104925000D03*
X146960000Y-104925000D03*
X150040000Y-104525000D03*
X146960000Y-104525000D03*
X150040000Y-104125000D03*
X146960000Y-104125000D03*
X150040000Y-103725000D03*
X146960000Y-103725000D03*
X150040000Y-103325000D03*
X146960000Y-103325000D03*
X150040000Y-102925000D03*
X146960000Y-102925000D03*
X150040000Y-102525000D03*
X146960000Y-102525000D03*
X150040000Y-102125000D03*
X146960000Y-102125000D03*
X150040000Y-101725000D03*
X146960000Y-101725000D03*
X150040000Y-101325000D03*
X146960000Y-101325000D03*
X150040000Y-100925000D03*
X146960000Y-100925000D03*
X150040000Y-100525000D03*
X146960000Y-100525000D03*
X150040000Y-100125000D03*
X146960000Y-100125000D03*
X150040000Y-99725000D03*
X146960000Y-99725000D03*
X150040000Y-99325000D03*
X146960000Y-99325000D03*
X150040000Y-98925000D03*
X146960000Y-98925000D03*
X150040000Y-98525000D03*
X146960000Y-98525000D03*
X150040000Y-98125000D03*
X146960000Y-98125000D03*
X150040000Y-97725000D03*
X146960000Y-97725000D03*
X150040000Y-97325000D03*
X146960000Y-97325000D03*
X150040000Y-96925000D03*
X146960000Y-96925000D03*
X150040000Y-96525000D03*
X146960000Y-96525000D03*
X150040000Y-96125000D03*
X146960000Y-96125000D03*
X150040000Y-95725000D03*
X146960000Y-95725000D03*
X150040000Y-95325000D03*
X146960000Y-95325000D03*
X150040000Y-94925000D03*
X146960000Y-94925000D03*
X150040000Y-94525000D03*
X146960000Y-94525000D03*
X150040000Y-94125000D03*
X146960000Y-94125000D03*
X150040000Y-93725000D03*
X146960000Y-93725000D03*
X150040000Y-93325000D03*
X146960000Y-93325000D03*
X150040000Y-92925000D03*
X146960000Y-92925000D03*
X150040000Y-92525000D03*
X146960000Y-92525000D03*
X150040000Y-92125000D03*
X146960000Y-92125000D03*
X150040000Y-91725000D03*
X146960000Y-91725000D03*
X150040000Y-91325000D03*
X146960000Y-91325000D03*
X150040000Y-90925000D03*
X146960000Y-90925000D03*
X150040000Y-90525000D03*
X146960000Y-90525000D03*
X150040000Y-90125000D03*
X146960000Y-90125000D03*
X150040000Y-89725000D03*
X146960000Y-89725000D03*
X150040000Y-89325000D03*
X146960000Y-89325000D03*
X150040000Y-88925000D03*
X146960000Y-88925000D03*
X116040000Y-108525000D03*
X112960000Y-108525000D03*
X116040000Y-108125000D03*
X112960000Y-108125000D03*
X116040000Y-107725000D03*
X112960000Y-107725000D03*
X116040000Y-107325000D03*
X112960000Y-107325000D03*
X116040000Y-106925000D03*
X112960000Y-106925000D03*
X116040000Y-106525000D03*
X112960000Y-106525000D03*
X116040000Y-106125000D03*
X112960000Y-106125000D03*
X116040000Y-105725000D03*
X112960000Y-105725000D03*
X116040000Y-105325000D03*
X112960000Y-105325000D03*
X116040000Y-104925000D03*
X112960000Y-104925000D03*
X116040000Y-104525000D03*
X112960000Y-104525000D03*
X116040000Y-104125000D03*
X112960000Y-104125000D03*
X116040000Y-103725000D03*
X112960000Y-103725000D03*
X116040000Y-103325000D03*
X112960000Y-103325000D03*
X116040000Y-102925000D03*
X112960000Y-102925000D03*
X116040000Y-102525000D03*
X112960000Y-102525000D03*
X116040000Y-102125000D03*
X112960000Y-102125000D03*
X116040000Y-101725000D03*
X112960000Y-101725000D03*
X116040000Y-101325000D03*
X112960000Y-101325000D03*
X116040000Y-100925000D03*
X112960000Y-100925000D03*
X116040000Y-100525000D03*
X112960000Y-100525000D03*
X116040000Y-100125000D03*
X112960000Y-100125000D03*
X116040000Y-99725000D03*
X112960000Y-99725000D03*
X116040000Y-99325000D03*
X112960000Y-99325000D03*
X116040000Y-98925000D03*
X112960000Y-98925000D03*
X116040000Y-98525000D03*
X112960000Y-98525000D03*
X116040000Y-98125000D03*
X112960000Y-98125000D03*
X116040000Y-97725000D03*
X112960000Y-97725000D03*
X116040000Y-97325000D03*
X112960000Y-97325000D03*
X116040000Y-96925000D03*
X112960000Y-96925000D03*
X116040000Y-96525000D03*
X112960000Y-96525000D03*
X116040000Y-96125000D03*
X112960000Y-96125000D03*
X116040000Y-95725000D03*
X112960000Y-95725000D03*
X116040000Y-95325000D03*
X112960000Y-95325000D03*
X116040000Y-94925000D03*
X112960000Y-94925000D03*
X116040000Y-94525000D03*
X112960000Y-94525000D03*
X116040000Y-94125000D03*
X112960000Y-94125000D03*
X116040000Y-93725000D03*
X112960000Y-93725000D03*
X116040000Y-93325000D03*
X112960000Y-93325000D03*
X116040000Y-92925000D03*
X112960000Y-92925000D03*
X116040000Y-92525000D03*
X112960000Y-92525000D03*
X116040000Y-92125000D03*
X112960000Y-92125000D03*
X116040000Y-91725000D03*
X112960000Y-91725000D03*
X116040000Y-91325000D03*
X112960000Y-91325000D03*
X116040000Y-90925000D03*
X112960000Y-90925000D03*
X116040000Y-90525000D03*
X112960000Y-90525000D03*
X116040000Y-90125000D03*
X112960000Y-90125000D03*
X116040000Y-89725000D03*
X112960000Y-89725000D03*
X116040000Y-89325000D03*
X112960000Y-89325000D03*
X116040000Y-88925000D03*
X112960000Y-88925000D03*
D22*
X148000000Y-120225000D03*
X148000000Y-72225000D03*
X115000000Y-120225000D03*
X115000000Y-72225000D03*
%TD*%
D23*
%TO.C,TP35*%
X155700000Y-84500000D03*
%TD*%
D24*
%TO.C,R12*%
X156200000Y-113010000D03*
X156200000Y-111990000D03*
%TD*%
%TO.C,R17*%
X103900000Y-120110000D03*
X103900000Y-119090000D03*
%TD*%
D25*
%TO.C,D7*%
X102987500Y-122900000D03*
X101412500Y-122900000D03*
%TD*%
D26*
%TO.C,J22*%
X106000000Y-102500000D03*
X106000000Y-103500000D03*
X106000000Y-104500000D03*
X106000000Y-105500000D03*
D27*
X102125000Y-101200000D03*
X102125000Y-106800000D03*
%TD*%
D25*
%TO.C,D8*%
X102975000Y-124500000D03*
X101400000Y-124500000D03*
%TD*%
D28*
%TO.C,JP7*%
X153300000Y-121500000D03*
D29*
X154600000Y-121500000D03*
%TD*%
D30*
%TO.C,D5*%
X110000000Y-84475000D03*
X110000000Y-86525000D03*
%TD*%
D31*
%TO.C,R14*%
X153290000Y-114900000D03*
X154310000Y-114900000D03*
%TD*%
D32*
%TO.C,JP5*%
X109500000Y-120400000D03*
X109500000Y-119100000D03*
%TD*%
D28*
%TO.C,JP8*%
X153300000Y-119000000D03*
D29*
X154600000Y-119000000D03*
%TD*%
D30*
%TO.C,D4*%
X108100000Y-79375000D03*
X108100000Y-81425000D03*
%TD*%
D33*
%TO.C,C2*%
X153740000Y-72570000D03*
X154700000Y-72570000D03*
%TD*%
%TO.C,C1*%
X153720000Y-71320000D03*
X154680000Y-71320000D03*
%TD*%
D32*
%TO.C,JP1*%
X115200000Y-112850000D03*
X115200000Y-111550000D03*
%TD*%
D34*
%TO.C,U7*%
X102450000Y-119000000D03*
X101800000Y-119000000D03*
X101150000Y-119000000D03*
X101150000Y-120900000D03*
X102450000Y-120900000D03*
%TD*%
D35*
%TO.C,S1*%
X119300000Y-128950000D03*
X113100000Y-128950000D03*
X119300000Y-125250000D03*
X113100000Y-125250000D03*
%TD*%
D36*
%TO.C,R13*%
X154320000Y-116000000D03*
X153300000Y-116000000D03*
%TD*%
D30*
%TO.C,D6*%
X110200000Y-79350000D03*
X110200000Y-81400000D03*
%TD*%
D37*
%TO.C,J26*%
X106300000Y-124900000D03*
X107300000Y-124900000D03*
X108300000Y-124900000D03*
X109300000Y-124900000D03*
D38*
X105000000Y-128775000D03*
X110600000Y-128775000D03*
%TD*%
D32*
%TO.C,JP6*%
X123600000Y-126800000D03*
X123600000Y-125500000D03*
%TD*%
D24*
%TO.C,R19*%
X104900000Y-120110000D03*
X104900000Y-119090000D03*
%TD*%
%TO.C,R1*%
X154650000Y-75030000D03*
X154650000Y-74010000D03*
%TD*%
M02*
