M48
; DRILL file {KiCad 9.0.0} date 2025-05-04T18:28:28+0100
; FORMAT={-:-/ absolute / inch / decimal}
; #@! TF.CreationDate,2025-05-04T18:28:28+01:00
; #@! TF.GenerationSoftware,Kicad,Pcbnew,9.0.0
; #@! TF.FileFunction,Plated,1,4,PTH
FMAT,2
INCH
; #@! TA.AperFunction,Plated,PTH,ViaDrill
T1C0.0079
; #@! TA.AperFunction,Plated,PTH,ViaDrill
T2C0.0118
; #@! TA.AperFunction,Plated,PTH,ComponentDrill
T3C0.0236
; #@! TA.AperFunction,Plated,PTH,ComponentDrill
T4C0.0787
; #@! TA.AperFunction,Plated,PTH,ComponentDrill
T5C0.1457
%
G90
G05
T1
X4.0079Y-4.6457
X4.0157Y-3.3071
X4.0335Y-4.7598
X4.0551Y-2.9528
X4.0551Y-2.9724
X4.0551Y-4.9921
X4.063Y-2.9882
X4.0748Y-3.0
X4.0787Y-3.9134
X4.0846Y-3.1722
X4.0846Y-3.3297
X4.1024Y-3.9134
X4.124Y-4.3765
X4.1299Y-4.6575
X4.1732Y-4.1535
X4.2205Y-3.5748
X4.2224Y-4.3789
X4.2224Y-4.5349
X4.2283Y-3.6614
X4.2283Y-3.7008
X4.2283Y-3.7402
X4.2283Y-3.7795
X4.2283Y-3.8583
X4.2283Y-4.248
X4.2362Y-3.6299
X4.2362Y-4.6614
X4.2362Y-4.8543
X4.2441Y-3.9409
X4.252Y-3.8071
X4.252Y-4.2283
X4.252Y-4.8228
X4.2559Y-4.1063
X4.2559Y-4.1299
X4.2618Y-3.2539
X4.2638Y-3.5394
X4.2756Y-4.8031
X4.2756Y-3.8622
X4.2756Y-4.2047
X4.2795Y-3.5157
X4.2913Y-5.0
X4.2953Y-3.0709
X4.2953Y-3.4961
X4.2992Y-4.185
X4.3071Y-3.4764
X4.311Y-3.8583
X4.311Y-5.0
X4.3189Y-4.8189
X4.3189Y-4.8622
X4.3228Y-3.0512
X4.3307Y-3.8858
X4.3307Y-5.0
X4.3386Y-4.9134
X4.3465Y-3.0354
X4.3465Y-3.7913
X4.3504Y-3.7283
X4.3504Y-3.8701
X4.3583Y-2.9134
X4.3622Y-3.7717
X4.3661Y-3.7126
X4.3701Y-2.8819
X4.374Y-3.8543
X4.378Y-3.8976
X4.3819Y-3.6929
X4.3917Y-4.0374
X4.3976Y-3.0394
X4.3976Y-3.6772
X4.3976Y-3.8976
X4.4093Y-3.9996
X4.4173Y-3.8465
X4.4173Y-3.9409
X4.4173Y-4.2441
X4.4173Y-4.4921
X4.4252Y-3.2795
X4.4291Y-3.3937
X4.4341Y-4.3671
X4.439Y-4.3091
X4.4449Y-4.3415
X4.4488Y-3.2402
X4.4528Y-4.9311
X4.4803Y-3.9921
X4.4803Y-4.1929
X4.4887Y-4.2564
X4.5Y-4.0079
X4.502Y-3.8169
X4.5061Y-3.9309
X4.5079Y-3.7795
X4.5236Y-3.7992
X4.5276Y-3.7598
X4.5277Y-4.0874
X4.5315Y-3.622
X4.5386Y-3.8376
X4.5669Y-4.3189
X4.6063Y-3.9921
X4.6496Y-4.0787
X4.6585Y-4.0386
X4.6654Y-3.7367
X4.6847Y-3.7168
X4.685Y-3.8976
X4.689Y-3.8346
X4.6929Y-4.6339
X4.6929Y-4.6535
X4.6929Y-4.6732
X4.6929Y-4.6929
X4.6969Y-3.7402
X4.6969Y-4.9311
X4.7087Y-3.8465
X4.7126Y-4.6339
X4.7126Y-4.6535
X4.7126Y-4.6732
X4.7126Y-4.6929
X4.7283Y-3.8622
X4.7305Y-3.7838
X4.7323Y-4.6339
X4.7323Y-4.6535
X4.7323Y-4.6732
X4.7323Y-4.6929
X4.7402Y-3.8031
X4.748Y-3.7047
X4.748Y-4.1142
X4.752Y-4.6339
X4.752Y-4.6535
X4.752Y-4.6732
X4.752Y-4.6929
X4.7539Y-4.5335
X4.7677Y-3.689
X4.7677Y-4.0945
X4.7677Y-4.1309
X4.7835Y-4.1772
X4.8031Y-3.8228
X4.8071Y-4.1535
X4.815Y-4.2638
X4.8228Y-4.4882
X4.8268Y-3.8425
X4.8346Y-4.5
X4.8465Y-4.5118
X4.8661Y-4.9409
X4.8661Y-4.9921
X4.8819Y-3.6496
X4.8917Y-4.065
X4.8976Y-4.2756
X4.8996Y-4.0295
X4.9016Y-4.3937
X4.9803Y-2.9331
X4.9803Y-3.189
X4.9882Y-3.6496
X5.0197Y-3.189
X5.0295Y-3.1181
X5.0394Y-3.2913
X5.0512Y-3.5039
X5.0748Y-4.0945
X5.0787Y-3.2913
X5.0886Y-3.1181
X5.0984Y-3.189
X5.1378Y-3.189
X5.1752Y-2.9744
X5.2441Y-3.0433
X5.2638Y-3.0433
X5.2659Y-2.8538
X5.2835Y-3.0433
X5.3031Y-3.0433
X5.3228Y-3.0433
X5.3543Y-2.8536
X5.3976Y-3.0512
X5.4173Y-3.0512
X5.437Y-3.0512
X5.4429Y-2.822
X5.4567Y-3.0512
X5.5118Y-4.7244
X5.5118Y-4.7441
X5.5118Y-4.7638
X5.5118Y-4.7835
X5.5315Y-4.7244
X5.5315Y-4.7441
X5.5315Y-4.7638
X5.5315Y-4.7835
X5.5512Y-4.7244
X5.5512Y-4.7441
X5.5512Y-4.7638
X5.5512Y-4.7835
X5.5709Y-4.7244
X5.5709Y-4.7441
X5.5709Y-4.7638
X5.5709Y-4.7835
X5.6732Y-4.0157
X5.685Y-2.9488
X5.6969Y-2.9606
X5.6969Y-4.0472
X5.7087Y-2.9724
X5.7087Y-3.6496
X5.7087Y-3.685
X5.7087Y-3.7441
X5.7087Y-3.7795
X5.7087Y-4.122
X5.7087Y-4.1575
X5.7087Y-4.2165
X5.7087Y-4.252
X5.7402Y-3.5807
X5.748Y-3.6024
X5.748Y-3.6378
X5.748Y-3.6969
X5.748Y-3.7323
X5.748Y-3.7913
X5.748Y-3.8268
X5.748Y-4.0748
X5.748Y-4.1102
X5.748Y-4.1693
X5.748Y-4.2047
X5.752Y-3.5
X5.752Y-3.5472
X5.7717Y-3.4764
X5.8253Y-3.8327
X5.8504Y-3.8543
X5.9055Y-4.4094
X5.9252Y-4.4094
X5.9272Y-3.4035
X5.9449Y-4.4094
X5.9606Y-3.4016
X5.9685Y-3.5118
X5.9961Y-3.0197
X5.9961Y-4.5236
X6.0Y-4.4724
X6.0492Y-2.9339
X6.0492Y-2.9535
X6.0492Y-2.9732
X6.0591Y-3.2795
X6.1024Y-3.0472
X6.1024Y-3.0827
X6.1024Y-3.8189
X6.1122Y-3.8425
X6.126Y-3.1024
X6.1299Y-3.3268
X6.1378Y-3.7559
X6.1417Y-3.4724
X6.1417Y-3.5118
X6.1417Y-3.5906
X6.1417Y-3.6299
X6.1417Y-4.1535
X6.1417Y-4.189
X6.1417Y-4.2717
X6.1417Y-4.3071
X6.159Y-4.624
X6.1614Y-3.7677
X6.1811Y-3.4134
X6.1811Y-3.4528
X6.1811Y-3.5315
X6.1811Y-3.5709
X6.1811Y-3.6496
X6.1811Y-3.689
X6.1811Y-4.0945
X6.1811Y-4.1299
X6.1811Y-4.2126
X6.1811Y-4.248
X6.2008Y-2.7362
X6.2008Y-2.7559
X6.2008Y-2.7756
X6.2008Y-2.7953
X6.2205Y-2.7362
X6.2205Y-2.7559
X6.2205Y-2.7756
X6.2205Y-2.7953
X6.2244Y-4.5945
X6.2402Y-2.7362
X6.2402Y-2.7559
X6.2402Y-2.7756
X6.2402Y-2.7953
X6.2598Y-2.7362
X6.2598Y-2.7559
X6.2598Y-2.7756
X6.2598Y-2.7953
X6.2874Y-3.8169
X6.3481Y-3.7621
X6.3583Y-4.252
X6.3583Y-4.2717
X6.3583Y-4.2913
X6.3583Y-4.311
X6.378Y-4.252
X6.378Y-4.2717
X6.378Y-4.2913
X6.378Y-4.311
X6.3976Y-4.252
X6.3976Y-4.2717
X6.3976Y-4.2913
X6.3976Y-4.311
X6.4173Y-4.252
X6.4173Y-4.2717
X6.4173Y-4.2913
X6.4173Y-4.311
T2
X6.2126Y-4.5236
T4
X4.9606Y-5.1969
X5.2756Y-5.1969
T5
X5.1575Y-4.438
X5.1575Y-4.9104
T3
G00X6.2065Y-2.8819
M15
G01X6.2498Y-2.8819
M16
G05
G00X6.2065Y-3.222
M15
G01X6.2498Y-3.222
M16
G05
G00X6.377Y-2.8819
M15
G01X6.4085Y-2.8819
M16
G05
G00X6.377Y-3.222
M15
G01X6.4085Y-3.222
M16
G05
M30
